<svg width="272" height="56" viewBox="0 0 272 56" fill="none" xmlns="http://www.w3.org/2000/svg">
<g clip-path="url(#clip0)">
<path d="M9.84411 54.4487C0.468651 47.6928 -3.06653 36.9376 3.02038 25.5206C3.4216 24.768 4.61486 25.034 4.86344 25.8497C5.75132 28.7636 7.55164 30.2182 7.55164 30.2182C6.97901 28.8969 4.75179 14.6298 15.4974 8.06862C16.1231 7.68653 16.8879 8.25205 16.7907 8.97841C16.3018 12.6318 15.9372 20.4722 22.294 18.2709C28.0603 16.274 23.9163 5.83899 21.7966 1.31239C21.4519 0.576283 22.1884 -0.240942 22.9412 0.0665158C35.7139 5.28301 45.7072 13.7897 42.0971 29.1918C43.0491 29.3704 46.1724 28.8254 47.9446 26.266C48.4078 25.5968 49.4756 25.5666 49.707 26.3469C51.4603 32.2566 54.0638 47.7824 40.1451 56C39.36 54.0268 37.8405 52.5372 37.2647 52.0677C37.1211 51.9502 36.9841 51.991 36.8736 52.1397C36.3285 52.8741 34.5006 55.1525 32.7089 55.291C29.4014 55.546 27.5576 51.9525 28.3668 48.0348C28.4581 47.5934 28.0627 47.1807 27.6332 47.3189C22.4222 48.9977 21.0644 52.4619 21.0644 52.4619C18.8089 50.6283 16.8134 47.2338 17.2361 39.5196C17.2678 38.9401 16.5448 38.6658 16.2215 39.148C14.1774 42.1973 10.1522 48.8593 9.84411 54.4487Z" fill="white"/>
<path d="M77.8013 21.6744C75.7232 21.6744 74.1524 22.1318 73.0889 23.0464C72.0252 23.9363 71.4934 25.2835 71.4934 27.0881V28.6826H82.1796V33.5029H71.4934V42.9583H65.4824V27.1252C65.4824 23.788 66.5211 21.1924 68.5992 19.3384C70.7016 17.4844 73.6331 16.5574 77.3929 16.5574C78.8773 16.5574 80.2748 16.718 81.5857 17.0394C82.897 17.3361 84.0348 17.781 84.9994 18.3743L83.1442 23.1205C81.6601 22.1565 79.879 21.6744 77.8013 21.6744Z" fill="white"/>
<path d="M87.7714 23.0093H93.5598V42.9583H87.7714V23.0093ZM90.6656 20.2283C89.6019 20.2283 88.7363 19.9193 88.0684 19.3013C87.4004 18.6833 87.0664 17.917 87.0664 17.0023C87.0664 16.0877 87.4004 15.3214 88.0684 14.7034C88.7363 14.0854 89.6019 13.7764 90.6656 13.7764C91.7293 13.7764 92.5952 14.073 93.2632 14.6663C93.9309 15.2596 94.2648 16.0012 94.2648 16.8911C94.2648 17.8552 93.9309 18.6586 93.2632 19.3013C92.5952 19.9193 91.7293 20.2283 90.6656 20.2283Z" fill="white"/>
<path d="M104.831 25.642C105.524 24.6779 106.452 23.9487 107.614 23.4543C108.801 22.9598 110.162 22.7126 111.696 22.7126V28.0522C111.053 28.0028 110.62 27.978 110.397 27.978C108.74 27.978 107.441 28.4477 106.501 29.3871C105.561 30.3017 105.091 31.6859 105.091 33.54V42.9583H99.3027V23.0093H104.831V25.642Z" fill="white"/>
<path d="M125.383 38.6199C126.422 38.6199 127.337 38.4717 128.129 38.1751C128.945 37.8537 129.7 37.3592 130.392 36.6918L133.472 40.0291C131.592 42.1798 128.847 43.255 125.235 43.255C122.984 43.255 120.993 42.8225 119.261 41.9572C117.529 41.0672 116.194 39.8436 115.254 38.2862C114.314 36.7288 113.844 34.9615 113.844 32.984C113.844 31.0309 114.301 29.2759 115.217 27.7185C116.157 26.1364 117.431 24.9127 119.039 24.0475C120.671 23.1576 122.502 22.7126 124.53 22.7126C126.435 22.7126 128.166 23.1205 129.725 23.9363C131.283 24.7274 132.52 25.8892 133.435 27.4218C134.375 28.9299 134.845 30.7219 134.845 32.7985L120.077 35.6536C120.498 36.6424 121.153 37.3842 122.044 37.8784C122.959 38.3729 124.072 38.6199 125.383 38.6199ZM124.53 27.0881C123.071 27.0881 121.883 27.5578 120.968 28.4972C120.053 29.4365 119.57 30.7342 119.521 32.3907L129.242 30.4996C128.97 29.4612 128.414 28.6331 127.573 28.0151C126.732 27.3971 125.717 27.0881 124.53 27.0881Z" fill="white"/>
<path d="M148.05 43.4035C145.996 43.4035 144.005 43.1315 142.076 42.5876C140.171 42.019 138.637 41.2898 137.475 40.3998L139.516 35.8762C140.629 36.6918 141.952 37.3468 143.486 37.8414C145.019 38.3359 146.553 38.5829 148.087 38.5829C149.793 38.5829 151.055 38.3359 151.871 37.8414C152.688 37.3221 153.096 36.6424 153.096 35.8018C153.096 35.1841 152.848 34.6772 152.354 34.2818C151.884 33.8613 151.265 33.5276 150.498 33.2804C149.756 33.0334 148.742 32.7614 147.456 32.4648C145.477 31.995 143.857 31.5254 142.595 31.0556C141.334 30.5861 140.245 29.8319 139.33 28.7938C138.44 27.7556 137.994 26.3712 137.994 24.6408C137.994 23.1329 138.402 21.7733 139.219 20.562C140.035 19.326 141.259 18.3496 142.892 17.6327C144.549 16.9158 146.566 16.5574 148.94 16.5574C150.598 16.5574 152.218 16.7551 153.801 17.1507C155.384 17.5462 156.769 18.1147 157.957 18.8563L156.101 23.4172C153.702 22.0576 151.303 21.3778 148.903 21.3778C147.221 21.3778 145.972 21.6497 145.156 22.1936C144.364 22.7374 143.968 23.4543 143.968 24.3442C143.968 25.2341 144.426 25.9016 145.341 26.3465C146.281 26.7668 147.703 27.187 149.608 27.6072C151.587 28.0769 153.207 28.5466 154.469 29.0163C155.73 29.4859 156.806 30.2277 157.697 31.2411C158.612 32.2546 159.07 33.6267 159.07 35.357C159.07 36.8403 158.649 38.1998 157.808 39.4358C156.992 40.6471 155.755 41.6112 154.098 42.328C152.44 43.0451 150.424 43.4035 148.05 43.4035Z" fill="white"/>
<path d="M175.162 41.9942C174.593 42.4146 173.888 42.7359 173.047 42.9582C172.23 43.1561 171.377 43.2549 170.486 43.2549C168.087 43.2549 166.244 42.6492 164.958 41.4379C163.672 40.2269 163.028 38.4469 163.028 36.0984V18.5967H168.817V23.4542H173.752V27.9038H168.817V36.0243C168.817 36.8648 169.027 37.5199 169.448 37.9894C169.868 38.4346 170.474 38.6571 171.266 38.6571C172.156 38.6571 172.948 38.4099 173.64 37.9153L175.162 41.9942Z" fill="white"/>
<path d="M198.446 23.0093V42.9583H192.917V40.6594C191.482 42.39 189.404 43.255 186.683 43.255C184.803 43.255 183.096 42.8348 181.563 41.9943C180.054 41.154 178.867 39.955 178.001 38.3976C177.135 36.8402 176.702 35.0356 176.702 32.984C176.702 30.9321 177.135 29.1275 178.001 27.5701C178.867 26.0128 180.054 24.8139 181.563 23.9734C183.096 23.1329 184.803 22.7126 186.683 22.7126C189.231 22.7126 191.223 23.5161 192.657 25.1229V23.0093H198.446ZM187.685 38.5088C189.145 38.5088 190.357 38.0145 191.322 37.0255C192.286 36.012 192.769 34.6649 192.769 32.984C192.769 31.3028 192.286 29.968 191.322 28.9793C190.357 27.9657 189.145 27.4589 187.685 27.4589C186.201 27.4589 184.977 27.9657 184.012 28.9793C183.047 29.968 182.565 31.3028 182.565 32.984C182.565 34.6649 183.047 36.012 184.012 37.0255C184.977 38.0145 186.201 38.5088 187.685 38.5088Z" fill="white"/>
<path d="M209.705 25.642C210.397 24.6779 211.325 23.9487 212.487 23.4543C213.675 22.9598 215.035 22.7126 216.569 22.7126V28.0522C215.926 28.0028 215.493 27.978 215.27 27.978C213.613 27.978 212.314 28.4477 211.374 29.3871C210.434 30.3017 209.964 31.6859 209.964 33.54V42.9583H204.176V23.0093H209.705V25.642Z" fill="white"/>
<path d="M232.404 41.9942C231.835 42.4146 231.13 42.7359 230.289 42.9582C229.473 43.1561 228.619 43.2549 227.729 43.2549C225.329 43.2549 223.486 42.6492 222.2 41.4379C220.914 40.2269 220.271 38.4469 220.271 36.0984V18.5967H226.059V23.4542H230.994V27.9038H226.059V36.0243C226.059 36.8648 226.269 37.5199 226.69 37.9894C227.11 38.4346 227.716 38.6571 228.508 38.6571C229.398 38.6571 230.19 38.4099 230.883 37.9153L232.404 41.9942Z" fill="white"/>
<path d="M245.483 38.6199C246.522 38.6199 247.437 38.4717 248.229 38.1751C249.045 37.8537 249.8 37.3592 250.492 36.6918L253.572 40.0291C251.692 42.1798 248.946 43.255 245.335 43.255C243.083 43.255 241.092 42.8225 239.361 41.9572C237.629 41.0672 236.293 39.8436 235.353 38.2862C234.413 36.7288 233.943 34.9615 233.943 32.984C233.943 31.0309 234.401 29.2759 235.316 27.7185C236.256 26.1364 237.53 24.9127 239.138 24.0475C240.771 23.1576 242.601 22.7126 244.63 22.7126C246.534 22.7126 248.266 23.1205 249.824 23.9363C251.383 24.7274 252.62 25.8892 253.535 27.4218C254.475 28.9299 254.945 30.7219 254.945 32.7985L240.177 35.6536C240.598 36.6424 241.253 37.3842 242.143 37.8784C243.059 38.3729 244.172 38.6199 245.483 38.6199ZM244.63 27.0881C243.17 27.0881 241.983 27.5578 241.067 28.4972C240.152 29.4365 239.67 30.7342 239.62 32.3907L249.342 30.4996C249.07 29.4612 248.513 28.6331 247.672 28.0151C246.831 27.3971 245.817 27.0881 244.63 27.0881Z" fill="white"/>
<path d="M264.736 25.642C265.428 24.6779 266.356 23.9487 267.519 23.4543C268.706 22.9598 270.066 22.7126 271.6 22.7126V28.0522C270.957 28.0028 270.524 27.978 270.302 27.978C268.644 27.978 267.345 28.4477 266.405 29.3871C265.466 30.3017 264.995 31.6859 264.995 33.54V42.9583H259.207V23.0093H264.736V25.642Z" fill="white"/>
</g>
<defs>
<clipPath id="clip0">
<rect width="271.672" height="56" fill="white"/>
</clipPath>
</defs>
</svg>
