<svg width="286" height="112" viewBox="0 0 286 112" fill="none" xmlns="http://www.w3.org/2000/svg">
<rect width="286" height="112" fill="black" fill-opacity="0.01"/>
<path fill-rule="evenodd" clip-rule="evenodd" d="M41.6014 29.7486L26.0816 38.4971L26.0175 55.9437C25.9667 69.719 26.0193 73.4415 26.2679 73.6341C26.5044 73.8174 45.571 84.4655 56.3703 90.4454L57.3715 91L72.8913 82.2541L88.4111 73.5082L88.4689 55.9622L88.5265 38.4162L74.4653 30.5904C66.7315 26.2862 59.6655 22.3675 58.7626 21.8823L57.1212 21L41.6014 29.7486ZM66.4556 40.9229L75.2694 45.8375L75.2664 55.9725L75.2631 66.1076L66.359 71.1222C60.6107 74.3594 57.3117 76.0837 57.0509 75.9877C56.8288 75.9055 52.7266 73.6546 47.9352 70.9856L39.2234 66.1326L39.2276 56.0067L39.2322 45.8808L48.0514 40.8976C52.9021 38.1569 57.0444 35.9355 57.2564 35.9613C57.4684 35.9871 61.6082 38.22 66.4556 40.9229ZM174.746 43.208C172.946 44.9393 174.164 47.446 176.805 47.446C178.16 47.446 179.152 46.3769 179.152 44.9177C179.152 42.5092 176.53 41.4919 174.746 43.208ZM214.789 42.816C212.705 44.4399 213.75 47.4275 216.406 47.4407C217.971 47.4484 218.953 46.4758 218.953 44.9177C218.953 43.3595 217.971 42.3869 216.406 42.3946C215.76 42.398 215.107 42.568 214.789 42.816ZM116.517 43.0041C111.822 44.099 108.155 47.6844 107.049 52.2619C106.612 54.072 106.663 57.3598 107.158 59.2177C108.631 64.7457 113.552 68.3785 119.586 68.3915C124.596 68.4024 129.135 65.4784 130.691 61.2375L131.057 60.2406L129.152 59.6247C128.104 59.2859 127.225 59.0347 127.197 59.0665C127.169 59.0985 126.859 59.6733 126.509 60.3437C125.852 61.6028 124.391 63.0476 123.153 63.6635C121.974 64.2501 119.74 64.5429 118.238 64.3077C115.396 63.8629 113.151 62.1993 111.892 59.6061C111.256 58.2977 111.19 57.9114 111.192 55.5126C111.193 53.1003 111.258 52.7286 111.919 51.349C112.835 49.4374 114.779 47.6644 116.632 47.0499C118.516 46.4255 121.092 46.4864 122.775 47.1953C124.341 47.8554 126.198 49.7206 126.612 51.0497L126.895 51.959L128.868 51.337C130.097 50.9493 130.84 50.5865 130.84 50.3741C130.84 50.1867 130.489 49.3461 130.058 48.5057C127.802 44.0958 121.979 41.7303 116.517 43.0041ZM134.845 55.2718V67.9136H136.848H138.85V62.652C138.85 59.3651 138.957 57.0833 139.135 56.5719C140.179 53.5672 144.278 53.1646 145.76 55.9215C146.03 56.4248 146.11 57.858 146.11 62.2428V67.9136H148.259H150.408L150.3 61.5927C150.18 54.5533 150.085 54.0481 148.569 52.3917C147.362 51.0729 145.96 50.5188 143.844 50.525C141.998 50.5303 140.574 51.0042 139.539 51.9585L138.85 52.5928V47.6114V42.6301H136.848H134.845V55.2718ZM204.684 55.2718V67.9136H206.812H208.94V55.2718V42.6301H206.812H204.684V55.2718ZM244.485 55.2718V67.9136H246.488H248.49V65.5557V63.1978L249.593 62.1566C250.2 61.5838 250.791 61.173 250.908 61.2435C251.024 61.3141 252.189 62.8398 253.497 64.6335L255.875 67.8953L258.437 67.9044L261 67.9136L257.373 63.0688C255.379 60.4041 253.747 58.1529 253.747 58.0658C253.747 57.9788 254.544 57.152 255.518 56.2285C256.492 55.3051 258.081 53.7096 259.049 52.6833L260.809 50.8171L258.092 50.8198L255.374 50.8227L252.12 54.1909C250.331 56.0436 248.782 57.5594 248.679 57.5594C248.575 57.5594 248.49 54.2003 248.49 50.0947V42.6301H246.488H244.485V55.2718ZM160.209 50.5735C157.586 51.1063 155.554 52.8612 154.858 55.1931C154.672 55.8199 154.72 55.8806 155.578 56.0956C158.137 56.7368 158.271 56.7209 158.782 55.7175C159.04 55.2112 159.646 54.5417 160.128 54.2304C160.864 53.7548 161.24 53.6799 162.48 53.7635C163.76 53.8497 164.052 53.9655 164.671 54.6313C165.562 55.5909 165.626 56.6783 164.821 57.1695C164.511 57.3586 163.075 57.6882 161.63 57.902C157.909 58.4523 156.844 58.8407 155.657 60.0793C153.44 62.3921 154.155 66.0645 157.135 67.6728C158.068 68.1765 158.577 68.2743 160.253 68.2714C162.463 68.2678 163.401 67.9319 164.821 66.6354L165.635 65.8928V66.5222C165.635 67.8001 165.805 67.9136 167.727 67.9136L169.515 67.9138L169.434 61.4723C169.356 55.3229 169.326 54.9745 168.767 53.7835C168.12 52.4061 166.687 51.2279 165.162 50.821C163.795 50.4559 161.381 50.3353 160.209 50.5735ZM191.964 50.5966C190.703 50.8311 189.376 51.5658 188.683 52.4136L188.194 53.0122L188.116 51.9749L188.038 50.9375L186.098 50.8672L184.158 50.7969V59.3552V67.9136H186.161H188.163V62.7042C188.163 59.4162 188.272 57.1471 188.457 56.5524C188.807 55.4296 190.164 54.2027 191.113 54.1519C193.175 54.0419 194.122 54.4274 194.933 55.7062C195.38 56.412 195.421 56.9509 195.422 62.1947L195.423 67.9136H197.55H199.678L199.674 62.1947C199.67 55.869 199.447 54.3335 198.301 52.7435C197.115 51.0967 194.337 50.1554 191.964 50.5966ZM231.801 50.5877C230.392 50.8547 229.404 51.3751 228.634 52.2552L227.993 52.9881L227.916 51.9628L227.839 50.9375L225.899 50.8672L223.959 50.7969V59.3552V67.9136H225.949H227.939L228.014 62.1516C228.097 55.8271 228.105 55.7907 229.793 54.5786C230.69 53.9345 232.758 53.9455 233.686 54.5993C235.105 55.5991 235.223 56.1909 235.223 62.3151L235.223 67.9136H237.38H239.537L239.429 61.5927C239.328 55.6412 239.288 55.1982 238.744 54.0096C237.547 51.39 234.775 50.024 231.801 50.5877ZM174.646 59.3653V67.9136H176.649H178.651V59.3653V50.8171H176.649H174.646V59.3653ZM214.373 50.9684C214.276 51.0618 214.197 54.9126 214.197 59.526V67.9136H216.328H218.458L218.393 59.4255L218.327 50.9375L216.438 50.8682C215.399 50.8299 214.47 50.8752 214.373 50.9684ZM165.268 62.2917C164.95 63.9258 163.14 65.2648 161.25 65.2648C158.628 65.2648 157.477 62.7401 159.452 61.322C159.891 61.0066 161.004 60.7104 162.69 60.4605L165.259 60.0795L165.341 60.7899C165.386 61.1805 165.353 61.8564 165.268 62.2917Z" fill="white"/>
</svg>
