<svg width="244" height="90" viewBox="0 0 144 56" fill="none" xmlns="http://www.w3.org/2000/svg">
<rect width="244" height="256" fill="black" fill-opacity="0.01"/>
<path fill-rule="evenodd" clip-rule="evenodd" d="M30.6434 22.5539C31.3075 22.1987 32.0925 22.1987 32.6964 22.5539L39.7008 26.5202C40.3649 26.8753 40.7272 27.5264 40.7272 28.2368V36.1099C40.7272 36.8203 40.3045 37.4715 39.7008 37.8267L32.7567 41.7336C32.0925 42.0888 31.3075 42.0888 30.7038 41.7336L23.7597 37.8267C23.0956 37.4715 22.7333 36.8203 22.7333 36.1099V33.3869L25.9335 31.5519V34.2749C25.9335 34.9852 26.3562 35.6364 26.9601 35.9916L30.6434 38.0635C31.3075 38.4186 32.0925 38.4186 32.6964 38.0635L36.3797 35.9324C37.0439 35.5772 37.4062 34.9261 37.4062 34.2156V30.0127C37.4062 29.3024 36.9834 28.6512 36.3797 28.296L32.6964 26.2241C32.0321 25.8689 31.2472 25.8689 30.6434 26.2241L25.9335 28.888L22.7333 30.7231L18.0235 33.3869C17.3593 33.7421 16.5743 33.7421 15.9705 33.3869L9.0265 29.48C8.36229 29.1248 8 28.4736 8 27.7632V19.8901C8 19.1797 8.36229 18.5285 9.0265 18.1734L15.9705 14.2664C16.6347 13.9112 17.4196 13.9112 18.0235 14.2664L24.8467 18.1734C25.5109 18.5285 25.8732 19.1797 25.8732 19.8901V22.6131L22.6729 24.4482V21.7252C22.6729 21.0148 22.2502 20.3636 21.6464 20.0085L17.9631 17.9366C17.2989 17.5814 16.5139 17.5814 15.9101 17.9366L12.2268 20.0085C11.5626 20.3636 11.2003 21.0148 11.2003 21.7252V25.9281C11.2003 26.6385 11.6229 27.2896 12.2268 27.6448L15.9705 29.7759C16.6347 30.1311 17.4196 30.1311 18.0235 29.7759L22.7333 27.0529L25.9335 25.277L30.6434 22.5539ZM80.0976 14.0288V33.5045H76.5954V14.0288H80.0976ZM59.9268 24.9209C59.5042 24.0329 58.84 23.3817 58.055 22.9082C57.2701 22.3754 56.304 22.1386 55.2774 22.1386C53.7678 22.1386 52.3187 22.6714 50.9903 23.7369L50.6884 22.4346H47.6692V38.6545H51.1715V32.4981C51.5941 32.9125 52.1375 33.2676 52.7414 33.4452C53.3451 33.6819 53.949 33.8004 54.6133 33.8004C55.7604 33.8004 56.8474 33.5636 57.7532 33.0901C58.6588 32.6756 59.3834 32.0244 59.8665 31.1365C60.4099 30.2486 60.6514 29.2422 60.6514 28.0583C60.6514 26.8744 60.4099 25.8088 59.9268 24.9209ZM57.0286 28.1175C57.0286 29.0054 56.7266 29.7158 56.1228 30.2486C55.5189 30.7813 54.7943 31.0773 53.8887 31.0773C53.2244 31.0773 52.681 30.8997 52.198 30.6038C51.7752 30.3077 51.413 29.8934 51.2318 29.3607V26.6968C51.5337 26.164 51.8961 25.7496 52.379 25.5128C52.8621 25.2168 53.466 25.0984 54.1302 25.0984C54.9151 25.0984 55.6397 25.3352 56.1831 25.9272C56.7266 26.5192 57.0286 27.2295 57.0286 28.1175ZM64.94 22.9679C63.9739 23.4415 63.2494 24.1519 62.7059 24.9806C62.2228 25.8686 61.9209 26.875 61.9209 27.9997C61.9209 29.1835 62.2228 30.1899 62.7059 31.0779C63.2494 31.9658 63.9739 32.617 64.94 33.0905C65.9061 33.5642 66.9931 33.801 68.2007 33.801C69.4084 33.801 70.5556 33.5049 71.4613 33.0314C72.4274 32.5578 73.0917 31.8474 73.6351 30.9595C74.1785 30.0716 74.42 29.1244 74.42 27.9997C74.42 26.875 74.1785 25.9278 73.6351 25.0398C73.0917 24.1519 72.3671 23.4415 71.4613 22.9679C70.4952 22.4352 69.4084 22.1984 68.2007 22.1984C66.9931 22.1984 65.9061 22.4944 64.94 22.9679ZM68.2007 30.9595C67.4158 30.9595 66.7515 30.7227 66.2685 30.1307C65.7251 29.5387 65.4835 28.8284 65.4835 27.9997C65.4835 27.1117 65.7251 26.4013 66.2081 25.8094C66.7515 25.2766 67.3553 24.9806 68.1404 24.9806C68.9857 24.9806 69.5894 25.2766 70.133 25.8686C70.616 26.4013 70.8576 27.1117 70.8576 27.9997C70.8576 28.8284 70.616 29.5979 70.133 30.1307C69.6499 30.6635 68.9857 30.9595 68.2007 30.9595ZM87.3419 38.7139L94.4669 22.7308H91.3272L88.4288 29.124L85.5304 22.7308H81.5452L86.6173 32.9718L83.9605 38.7139H87.3419ZM107.872 22.7312V33.5049C107.872 34.5113 107.57 35.4585 106.967 36.2871C106.363 37.1159 105.578 37.7672 104.551 38.2407C103.525 38.7142 102.438 38.951 101.23 38.951C100.325 38.951 99.5396 38.8327 98.8753 38.6551C98.2112 38.4183 97.6677 38.1815 97.2451 37.9448C96.762 37.6487 96.279 37.2935 95.7354 36.82L97.7885 34.4521C98.2716 34.9257 98.815 35.2809 99.298 35.5177C99.7811 35.7544 100.445 35.932 101.17 35.932C102.076 35.932 102.8 35.6953 103.404 35.2809C104.008 34.8665 104.31 34.2154 104.31 33.4458V31.9067C103.947 32.4394 103.464 32.9129 102.74 33.2682C102.015 33.6234 101.17 33.801 100.204 33.801C99.2377 33.801 98.2716 33.5641 97.4262 33.0314C96.5809 32.5578 95.9166 31.8474 95.3732 30.9595C94.8901 30.0716 94.5883 29.1244 94.5883 28.0588C94.5883 26.9933 94.8298 25.987 95.3732 25.099C95.9166 24.2111 96.5809 23.5007 97.4866 22.9679C98.3319 22.4352 99.2377 22.1984 100.204 22.1984C101.109 22.1984 101.895 22.3168 102.619 22.5536C103.344 22.7904 103.887 23.1455 104.249 23.5599L104.612 22.7312H107.872ZM104.31 29.3611V26.6974C104.068 26.1646 103.706 25.7502 103.163 25.4542C102.619 25.1582 102.015 24.9806 101.291 24.9806C100.445 24.9806 99.7208 25.2766 99.1169 25.8094C98.5131 26.3422 98.2111 27.0525 98.2111 27.9405C98.2111 28.7693 98.5131 29.5388 99.1169 30.1307C99.7208 30.7227 100.445 31.0187 101.291 31.0187C102.679 30.9595 103.706 30.4268 104.31 29.3611ZM113.006 22.9082C112.04 23.4409 111.315 24.0921 110.772 24.98C110.228 25.868 109.987 26.8744 109.987 27.8806C109.987 29.1238 110.228 30.1301 110.772 31.0182C111.315 31.9061 112.04 32.5572 113.006 33.0308C113.972 33.5043 115.059 33.7412 116.266 33.7412C117.474 33.7412 118.621 33.4452 119.527 32.9716C120.493 32.4981 121.218 31.7877 121.701 30.8997C122.244 30.0118 122.486 29.0646 122.486 27.9399C122.486 26.8151 122.184 25.868 121.701 24.98C121.157 24.0921 120.433 23.3817 119.527 22.9082C118.561 22.3754 117.474 22.1386 116.266 22.1386C115.059 22.1386 113.972 22.4346 113.006 22.9082ZM116.206 30.9589C115.421 30.9589 114.757 30.7221 114.274 30.1301C113.791 29.5383 113.549 28.8278 113.489 27.9991C113.489 27.1703 113.73 26.4008 114.274 25.868C114.817 25.3352 115.421 25.0392 116.206 25.0392C116.991 25.0392 117.655 25.3352 118.138 25.868C118.621 26.4008 118.863 27.1112 118.863 27.9991C118.863 28.8278 118.621 29.5974 118.138 30.1301C117.655 30.663 116.991 30.9589 116.206 30.9589ZM134.864 23.0863C135.588 23.6783 135.891 24.4479 135.951 25.395V33.5049H132.389V26.6974C132.328 25.6318 131.785 25.099 130.758 25.099C129.973 25.099 129.309 25.4542 128.826 26.2238C128.343 26.9933 128.101 27.9405 128.101 29.0652V33.5049H124.599V22.7312H127.799L128.041 24.4479C128.464 23.7375 129.007 23.2047 129.732 22.7904C130.456 22.376 131.302 22.1984 132.268 22.1984C133.294 22.1984 134.2 22.4944 134.864 23.0863Z" fill="white"/>
</svg>
