<svg width="286" height="112" viewBox="0 0 286 112" fill="none" xmlns="http://www.w3.org/2000/svg">
<rect width="286" height="112" fill="black" fill-opacity="0.01"/>
<path fill-rule="evenodd" clip-rule="evenodd" d="M71.0271 17.0116L32 17.0483V56.0242V95L71.1745 94.9633L110.349 94.9266L110.387 77.0934C110.414 64.0358 110.379 59.2073 110.258 59.0625C110.129 58.9088 109.475 58.8648 107.325 58.8648C104.938 58.8648 104.546 58.8964 104.468 59.0953C104.419 59.2221 104.379 66.041 104.379 74.2485V89.1712H70.8426H37.3062L37.3434 55.9871L37.3805 22.803L70.6217 22.7633C88.9044 22.7413 103.996 22.7548 104.158 22.7933C104.451 22.8626 104.452 22.9678 104.414 37.877L104.376 52.8909H107.4H110.423V34.9849C110.423 20.785 110.385 17.0681 110.239 17.0269C110.137 16.9983 92.4921 16.9913 71.0271 17.0116ZM51.4583 37.7377V42.2545H58.1655H64.8727V60.3947V78.5348H70.6954H76.5182V60.3947V42.2545H83.2991H90.08V37.7377V33.2209H70.7691H51.4583V37.7377ZM164.411 49.3907C163.167 49.6825 162.361 50.701 162.189 52.1978C162.1 52.9792 162.046 53.1028 161.81 53.0621C161.659 53.0362 161.375 53.0546 161.179 53.1031C160.845 53.1861 160.826 53.245 160.867 54.0975L160.911 55.0036L161.538 55.0484L162.164 55.0932V58.5088V61.9246H163.565H164.965V58.5078V55.0911L165.813 55.0474L166.66 55.0036V54.0566V53.1095L165.813 53.0658L164.965 53.0221V52.5472C164.965 51.8304 165.264 51.5362 166.089 51.4426L166.808 51.361L166.851 50.3962C166.891 49.4963 166.871 49.4252 166.556 49.3417C166.112 49.2243 165.014 49.2494 164.411 49.3907ZM202.26 49.9579C200.518 50.3379 199.173 51.709 198.655 53.6336C198.277 55.0367 198.387 57.8657 198.867 59.0834C199.335 60.2724 200.563 61.4709 201.677 61.8264C203.366 62.3653 205.37 62.2376 207.101 61.4805C208.456 60.8882 208.451 60.8996 208.451 58.1109V55.6593H206.019H203.587V56.6064V57.5535H204.619H205.65V58.478C205.65 59.7148 205.403 59.9474 204.045 59.9847C202.85 60.0176 202.26 59.7113 201.779 58.81C201.333 57.9722 201.22 54.8665 201.594 53.7226C202.054 52.3161 203.043 51.6828 204.255 52.0182C205.012 52.2274 205.28 52.4856 205.553 53.2648L205.753 53.838L207.122 53.8801L208.491 53.9224L208.394 53.3218C208.169 51.9348 207.267 50.7979 205.946 50.2368C205.214 49.9254 203.131 49.7679 202.26 49.9579ZM225.067 49.9806C223.39 50.3995 222.144 51.569 221.498 53.328C221.119 54.3618 221.033 57.0075 221.344 58.0639C222.039 60.4304 223.287 61.6314 225.522 62.0878C227.523 62.4965 229.582 61.6233 230.708 59.8879C231.389 58.8397 231.65 57.7445 231.646 55.9507C231.641 53.0773 230.601 51.1702 228.552 50.2739C227.734 49.9165 225.931 49.7647 225.067 49.9806ZM117.195 50.0497C117.191 50.0898 117.183 50.5651 117.179 51.1061L117.171 52.0896L118.956 52.1305L120.742 52.1714V57.048V61.9246H122.179L123.616 61.9247L123.575 57.0435L123.535 52.1624H125.381H127.228V51.0696V49.9769H122.216C119.459 49.9769 117.2 50.0096 117.195 50.0497ZM210.368 55.9507V61.9246L211.805 61.9247L213.242 61.9249V59.8484V57.772L214.013 57.728L214.784 57.6842L215.853 59.8043L216.923 61.9246H218.513H220.103L218.829 59.489L217.556 57.0533L217.899 56.8299C219.179 55.9953 219.731 54.8834 219.613 53.3769C219.516 52.1376 219.045 51.3373 218.073 50.7631C217 50.1294 216.015 49.9769 212.996 49.9769H210.368V55.9507ZM233.218 54.5301C233.219 59.0045 233.225 59.0962 233.566 59.82C234.393 61.5742 236.682 62.5261 238.993 62.0766C240.826 61.7202 241.781 60.9777 242.367 59.4546C242.624 58.785 242.651 58.3075 242.651 54.3411V49.9664L241.213 50.008L239.776 50.0497L239.702 54.6151L239.629 59.1805L239.147 59.6054C238.313 60.3422 236.778 60.1078 236.288 59.1686C236.139 58.8849 236.08 57.7034 236.046 54.3844L236.001 49.9769H234.609H233.216L233.218 54.5301ZM244.533 55.9401L244.493 61.9247H245.967L247.441 61.9249V59.8484V57.772L249.219 57.6817C251.213 57.5804 252.086 57.3015 252.949 56.4897C254.459 55.0694 254.323 52.4981 252.664 51.0947C251.629 50.2186 250.955 50.0758 247.555 50.0117L244.573 49.9554L244.533 55.9401ZM227.139 52.0933C228.295 52.5504 228.935 54.3918 228.731 56.6696C228.593 58.2011 228.375 58.8288 227.754 59.474C227.279 59.9675 227.138 60.0304 226.512 60.0304C225.53 60.0304 224.934 59.6311 224.5 58.6817C224.19 58.0038 224.151 57.7043 224.151 56.0236C224.151 53.4338 224.583 52.3789 225.79 52.0217C226.402 51.8406 226.515 51.8465 227.139 52.0933ZM216.279 52.615C216.629 52.9855 216.706 53.1955 216.706 53.7738C216.706 55.2241 216.091 55.7005 214.312 55.6293L213.242 55.5865L213.2 54.0665C213.176 53.2304 213.191 52.4599 213.232 52.3545C213.286 52.216 213.662 52.1624 214.579 52.1624C215.812 52.1624 215.864 52.1763 216.279 52.615ZM250.484 52.575C250.877 52.922 250.962 53.116 251.019 53.793C251.08 54.5294 251.048 54.6404 250.64 55.0924L250.193 55.5865H248.817H247.441L247.4 53.8744L247.358 52.1624H248.687C249.938 52.1624 250.044 52.1866 250.484 52.575ZM131.467 53.21C131.163 53.386 130.877 53.6484 130.83 53.7933C130.697 54.2082 130.471 54.1006 130.471 53.6222C130.471 53.0932 130.205 53.0023 128.845 53.0653L127.891 53.1095L127.852 57.517L127.813 61.9246H129.215H130.618L130.62 59.0469C130.622 57.4641 130.671 56.0964 130.731 56.0075C130.974 55.6437 131.84 55.345 132.513 55.3925L133.198 55.4408V54.2023V52.9638L132.608 52.9269C132.213 52.9023 131.836 52.9958 131.467 53.21ZM136.36 53.0806C135.013 53.4573 134.068 54.313 133.905 55.3034L133.823 55.805H135.242C136.55 55.805 136.662 55.7827 136.662 55.5219C136.662 55.1772 137.193 54.7851 137.66 54.7851C138.177 54.7851 138.726 55.4077 138.726 55.9953V56.4903L137.503 56.5755C134.858 56.7601 133.664 57.6536 133.665 59.447C133.667 60.8378 134.402 61.685 135.962 62.0932C136.802 62.3132 137.858 62.0961 138.402 61.5915C138.69 61.3238 138.762 61.3088 138.879 61.4913C138.954 61.6094 139.017 61.7551 139.018 61.8153C139.02 61.8755 139.658 61.9246 140.438 61.9246C141.844 61.9246 141.855 61.9218 141.742 61.5967C141.68 61.4164 141.588 59.892 141.539 58.2091C141.444 55.0118 141.371 54.6502 140.657 53.8935C139.925 53.1171 137.721 52.7002 136.36 53.0806ZM147.229 53.0391C147.001 53.1069 146.591 53.3307 146.318 53.5365C145.701 54.0015 145.684 54.0008 145.627 53.5102L145.58 53.1095H144.327H143.074L143.035 57.517L142.996 61.9246H144.399H145.801V58.7274C145.801 55.5886 145.808 55.526 146.129 55.3034C146.581 54.9902 147.462 55.016 147.886 55.3548C148.229 55.6294 148.234 55.6736 148.279 58.7788L148.324 61.9246H149.642H150.961L150.95 58.4641C150.942 56.1973 150.878 54.8402 150.765 54.5297C150.287 53.2282 148.761 52.5848 147.229 53.0391ZM154.675 53.1673C152.938 53.7605 152.132 55.3338 152.826 56.7795C153.165 57.4838 153.964 57.9603 155.63 58.4497C157.231 58.9203 157.447 59.0488 157.447 59.5331C157.447 59.9669 157.049 60.1774 156.241 60.1715C155.515 60.1662 155.165 59.9569 154.95 59.3994C154.806 59.0229 154.763 59.0105 153.627 59.0105C152.947 59.0105 152.411 59.0767 152.354 59.1674C152.16 59.4781 152.752 60.6074 153.407 61.178C155.002 62.5652 158.096 62.4978 159.422 61.0472C160.374 60.0062 160.421 58.8543 159.554 57.836C159.051 57.2449 158.573 57.0216 157.045 56.6647C155.638 56.3357 155.236 56.0906 155.236 55.5615C155.236 55.3117 155.377 55.1508 155.753 54.9736C156.401 54.6684 156.957 54.8292 157.288 55.4179C157.516 55.8245 157.545 55.8321 158.822 55.8318C159.537 55.8317 160.149 55.8055 160.181 55.7737C160.213 55.7418 160.171 55.4689 160.086 55.1673C159.593 53.3986 156.906 52.4057 154.675 53.1673ZM170.64 52.9817C169.084 53.3788 167.942 54.3825 167.546 55.7C167.254 56.6712 167.263 58.3949 167.564 59.4205C167.905 60.5797 169.005 61.6345 170.226 61.9731C171.33 62.2794 171.869 62.2785 172.989 61.9689C173.702 61.7717 174.032 61.5729 174.62 60.9854C175.571 60.0358 175.875 59.2024 175.874 57.5514C175.873 55.4528 175.067 53.9812 173.547 53.3012C172.924 53.0228 171.216 52.835 170.64 52.9817ZM180.926 53.1745C180.665 53.3339 180.367 53.5976 180.264 53.7605C180 54.1784 179.879 54.1294 179.826 53.583L179.78 53.1095H178.527H177.274L177.235 57.517L177.196 61.9246H178.598H180.001V59.1158C180.001 55.9748 180.045 55.8117 180.977 55.5078C181.27 55.4123 181.77 55.3686 182.087 55.4107L182.665 55.4874L182.623 54.2256L182.581 52.9638L181.991 52.9242C181.602 52.8979 181.239 52.9833 180.926 53.1745ZM188.045 53.1076C187.727 53.2198 187.282 53.4464 187.056 53.6111C186.534 53.9932 186.516 53.9901 186.46 53.5102L186.413 53.1095H185.16H183.907L183.868 57.517L183.829 61.9246H185.232H186.634V58.8026V55.6804L187.023 55.3785C187.409 55.0778 188.171 54.9815 188.505 55.191C188.895 55.4364 188.993 56.2028 188.993 59.02V61.9246H190.393H191.794V58.7369C191.794 55.159 191.77 55.2384 192.873 55.1154C193.989 54.9911 194.005 55.0425 194.005 58.7294V61.9246L195.442 61.9247L196.879 61.925L196.806 58.3186C196.724 54.3215 196.682 54.1312 195.717 53.4035C194.749 52.674 193.006 52.779 192.03 53.6256C191.757 53.8626 191.488 54.0566 191.433 54.0566C191.378 54.0566 191.167 53.8618 190.964 53.6237C190.369 52.9253 189.167 52.7126 188.045 53.1076ZM172.358 55.2339C172.521 55.3205 172.749 55.6134 172.864 55.8849C173.103 56.45 173.146 58.5087 172.931 59.0681C172.425 60.3841 170.775 60.3625 170.248 59.0329C170.048 58.5292 170.05 56.5726 170.251 56.0658C170.605 55.1724 171.542 54.8024 172.358 55.2339ZM138.726 58.8542C138.726 59.4564 138.663 59.6209 138.337 59.8741C137.624 60.4285 136.367 60.1463 136.367 59.4319C136.367 59.0038 136.673 58.4679 137.01 58.3068C137.184 58.2239 137.64 58.1516 138.026 58.1462L138.726 58.1363V58.8542Z" fill="white"/>
</svg>
