<svg width="286" height="111" viewBox="0 0 286 111" fill="none" xmlns="http://www.w3.org/2000/svg">
<rect width="286" height="111" fill="black" fill-opacity="0.01"/>
<path fill-rule="evenodd" clip-rule="evenodd" d="M45.8448 30.7093C36.7116 32.9202 28.9367 40.7797 26.7639 49.9971C26.3476 51.7622 26.004 53.4883 26 53.8324C25.9945 54.3002 27.5748 54.4585 32.2536 54.4585H38.5148V50.7018C38.5148 47.6965 38.3645 46.9452 37.7634 46.9452C37.1789 46.9452 37.0121 46.2775 37.0121 43.9398V40.9345H40.0174H43.0228V43.9398C43.0228 46.2775 42.856 46.9452 42.2714 46.9452C41.6313 46.9452 41.5201 48.281 41.5201 55.9612C41.5201 63.6413 41.6313 64.9772 42.2714 64.9772C42.6847 64.9772 43.0228 65.3153 43.0228 65.7286C43.0228 66.3687 44.3587 66.4799 52.0388 66.4799C59.719 66.4799 61.0548 66.3687 61.0548 65.7286C61.0548 65.3153 61.3929 64.9772 61.8062 64.9772C62.4072 64.9772 62.5575 64.2259 62.5575 61.2205V57.4639H56.5468H50.5361V51.4532V45.4425H55.7955C60.1367 45.4425 61.0548 45.5737 61.0548 46.1938C61.0548 46.7784 61.7225 46.9452 64.0602 46.9452H67.0655V43.9398V40.9345H64.0602C61.7225 40.9345 61.0548 41.1013 61.0548 41.6858C61.0548 42.3059 60.1367 42.4371 55.7955 42.4371H50.5361V36.176C50.5361 29.0584 50.9028 29.4851 45.8448 30.7093ZM216.832 33.6716V36.9273H220.338H223.844V33.6716V30.4158H220.338H216.832V33.6716ZM108.541 41.1048C107.247 41.4694 105.274 42.3725 104.158 43.1113L102.128 44.4547V42.6946V40.9345H99.6234H97.119V61.2205V81.5066H99.6234H102.128V74.1826V66.8586L103.255 67.6875C107.706 70.9619 114.076 71.7037 119.021 69.5238C122.105 68.1649 125.336 64.8555 126.798 61.5591C128.218 58.3565 128.218 53.065 126.798 49.8623C123.724 42.9305 115.707 39.0852 108.541 41.1048ZM144.453 40.8994C140.141 41.9428 135.834 45.4625 133.99 49.4496C132.531 52.6037 132.531 58.8178 133.99 61.9719C135.302 64.8089 138.551 68.0707 141.396 69.4086C146.106 71.622 152.369 71.2183 156.183 68.4554C157.303 67.6445 158.334 66.9808 158.474 66.9808C158.614 66.9808 158.728 67.7697 158.728 68.7339V70.487H161.233H163.737V55.7107V40.9345H161.233H158.728V42.6876C158.728 43.6518 158.614 44.4407 158.474 44.4407C158.334 44.4407 157.308 43.7805 156.194 42.9741C153.208 40.8108 148.361 39.9542 144.453 40.8994ZM196.175 41.1463C191.796 42.7086 189.789 45.2081 189.786 49.099C189.782 53.8374 192.188 55.9812 199.782 58.0043C203.996 59.1268 206.313 60.6055 206.313 62.1717C206.313 62.582 205.788 63.5286 205.146 64.275C204.21 65.3624 203.436 65.677 201.249 65.8583C197.678 66.1543 195.125 65.0969 193.739 62.7478C193.162 61.77 192.613 60.9701 192.518 60.9701C192.423 60.9701 191.544 61.4429 190.564 62.0215C188.201 63.4149 188.284 64.6111 190.923 67.2503C194.705 71.032 201.376 72.0037 206.303 69.4902C211.272 66.9552 212.701 61.1424 209.305 57.275C207.799 55.559 206.193 54.8247 199.957 52.9984C195.821 51.7873 194.793 50.9718 194.793 48.9056C194.793 44.5594 203.93 44.3671 205.891 48.6722L206.451 49.9004L208.352 48.9307C210.886 47.6379 210.994 47.3499 209.674 45.3909C206.879 41.243 201.044 39.4083 196.175 41.1463ZM241.125 40.8689C234.193 42.6871 229.354 48.7884 229.354 55.7107C229.354 61.4494 232.846 66.9277 238.12 69.4627C240.044 70.3873 241.494 70.6744 244.381 70.7019C248.366 70.7395 250.59 70.0993 253.238 68.1529C254.115 67.5082 254.961 66.9808 255.116 66.9808C255.273 66.9808 255.4 70.2491 255.4 74.2437V81.5066H257.905H260.409V61.2205V40.9345H257.905H255.4V42.6876C255.4 44.5439 254.901 44.899 253.934 43.7324C252.118 41.5451 244.792 39.9071 241.125 40.8689ZM171.251 55.7107V70.487H173.755H176.26V60.9501C176.26 52.5566 176.374 51.1907 177.214 49.5548C178.327 47.3869 180.274 46.1142 183.192 45.6473C185.268 45.3158 185.276 45.3062 185.276 43.1244V40.9345H183.106C181.82 40.9345 179.986 41.4158 178.598 42.1186L176.26 43.3027V42.1186C176.26 41.0316 176.054 40.9345 173.755 40.9345H171.251V55.7107ZM217.834 55.7107V70.5421L220.213 70.3893L222.592 70.2366V55.7107V41.1849L220.213 41.0321L217.834 40.8794V55.7107ZM116.537 46.2179C120.511 47.8778 122.669 51.2638 122.656 55.8159C122.646 59.4419 121.252 62.0846 118.232 64.2048C116.303 65.5598 115.665 65.7281 112.476 65.7256C109.254 65.723 108.653 65.5588 106.56 64.1077C100.754 60.0825 100.625 51.4096 106.312 47.4966C107.457 46.7087 108.844 45.9504 109.393 45.8116C111.476 45.2847 114.751 45.471 116.537 46.2179ZM152.108 46.2204C156.224 47.9394 158.401 51.2238 158.401 55.7107C158.401 60.1977 156.224 63.4821 152.108 65.2011C145.588 67.9245 137.697 62.7277 137.697 55.7107C137.697 48.6938 145.588 43.497 152.108 46.2204ZM249.175 46.3907C255.138 49.099 256.969 57.1223 252.783 62.2008C248.966 66.832 241.472 67.1746 237.381 62.9055C232.4 57.7083 234.01 49.378 240.572 46.3982C243.189 45.2096 246.568 45.2066 249.175 46.3907ZM26 58.09C26.004 58.4346 26.3476 60.1602 26.7639 61.9253C28.9653 71.2649 36.7351 79.0347 46.0747 81.2361C47.8398 81.6524 49.5659 81.996 49.91 82C50.3779 82.0055 50.5361 80.4252 50.5361 75.7464V69.4852H46.7795C43.7741 69.4852 43.0228 69.6355 43.0228 70.2366C43.0228 70.8211 42.3551 70.9879 40.0174 70.9879H37.0121V67.9826C37.0121 65.6449 37.1789 64.9772 37.7634 64.9772C38.3645 64.9772 38.5148 64.2259 38.5148 61.2205V57.4639H32.2536C27.5748 57.4639 25.9945 57.6221 26 58.09ZM65.5629 61.2205C65.5629 64.2259 65.7131 64.9772 66.3142 64.9772C66.8987 64.9772 67.0655 65.6449 67.0655 67.9826V70.9879H64.0602C61.7225 70.9879 61.0548 70.8211 61.0548 70.2366C61.0548 69.6355 60.3035 69.4852 57.2982 69.4852H53.5415V75.7464C53.5415 80.4252 53.6998 82.0055 54.1676 82C54.5122 81.996 56.2378 81.6524 58.0029 81.2361C67.3425 79.0347 75.1123 71.2649 77.3138 61.9253C77.73 60.1602 78.0736 58.4346 78.0776 58.09C78.0831 57.6221 76.5028 57.4639 71.824 57.4639H65.5629V61.2205Z" fill="white"/>
</svg>
