<svg width="286" height="112" viewBox="0 0 286 112" fill="none" xmlns="http://www.w3.org/2000/svg">
<rect width="286" height="112" fill="black" fill-opacity="0.01"/>
<path fill-rule="evenodd" clip-rule="evenodd" d="M64.2412 70.8163L49.4323 56.0051L64.248 41.1824L73.5955 50.5298C75.2669 52.0348 77.8241 51.9678 79.4145 50.3774C81.0049 48.787 81.0718 46.2299 79.5668 44.5585L67.2222 32.2231C65.5658 30.5923 62.9073 30.5923 61.2509 32.2231L43.4563 50.0199V39.4392C43.4563 37.104 41.5633 35.211 39.2282 35.211C36.893 35.211 35 37.104 35 39.4392V72.5571C35 74.8923 36.893 76.7853 39.2282 76.7853C41.5633 76.7853 43.4563 74.8923 43.4563 72.5571V61.9764L61.2532 79.7779C62.9101 81.4074 65.5676 81.4074 67.2245 79.7779L79.5599 67.4402C81.0649 65.7687 80.998 63.2116 79.4076 61.6212C77.8172 60.0308 75.26 59.9638 73.5886 61.4688L64.2412 70.8163ZM60.3359 54.3837C60.9917 52.8021 62.5358 51.7714 64.248 51.7723V51.77C65.3706 51.7706 66.447 52.2171 67.2404 53.0114C68.0338 53.8056 68.4791 54.8825 68.4785 56.0051C68.4785 57.7173 67.447 59.2608 65.865 59.9158C64.2831 60.5708 62.4623 60.2083 61.2519 58.9973C60.0415 57.7862 59.68 55.9653 60.3359 54.3837ZM205.469 56.0045C205.469 54.7275 205.469 53.5264 205.428 52.4171C205.4 51.3706 205.296 50.3275 205.118 49.2959C204.951 48.3539 204.657 47.4391 204.243 46.5767C203.806 45.6874 203.222 44.8784 202.516 44.1835C201.514 43.1572 200.322 42.3358 199.007 41.7651C197.583 41.1886 196.059 40.9028 194.523 40.9246C192.982 40.9047 191.452 41.1903 190.022 41.7651C188.699 42.328 187.499 43.1459 186.492 44.1721C185.787 44.8665 185.205 45.6757 184.772 46.5652C184.361 47.4278 184.072 48.3428 183.911 49.2844C183.736 50.3163 183.637 51.3594 183.612 52.4056C183.584 53.5149 183.571 54.7161 183.578 55.993C183.579 56.3071 183.58 56.616 183.581 56.9199V56.9207V56.9214V56.9222V56.923V56.9237C183.584 57.8541 183.586 58.7376 183.612 59.5781C183.637 60.6243 183.736 61.6674 183.911 62.6993C184.072 63.6409 184.361 64.5559 184.772 65.4185C185.207 66.307 185.789 67.1159 186.492 67.8116C187.498 68.8387 188.698 69.6553 190.022 70.214C191.451 70.7925 192.982 71.0799 194.523 71.0591C196.059 71.0818 197.584 70.7943 199.007 70.214C200.322 69.6509 201.515 68.8346 202.516 67.8116C203.221 67.1155 203.804 66.3067 204.243 65.4185C204.657 64.5561 204.951 63.6412 205.118 62.6993C205.294 61.6706 205.396 60.6306 205.423 59.5873C205.458 58.4711 205.474 57.2768 205.465 56.0022L205.469 56.0045ZM199.682 56.0045C199.682 57.4192 199.661 58.5974 199.613 59.5345C199.586 60.3042 199.509 61.0713 199.383 61.8311C199.297 62.3373 199.143 62.8295 198.924 63.2941C198.746 63.6685 198.514 64.0145 198.235 64.3207C197.804 64.8142 197.269 65.2064 196.669 65.469C195.993 65.7581 195.265 65.9051 194.53 65.9009C193.792 65.9041 193.061 65.7572 192.381 65.469C191.766 65.2113 191.216 64.8189 190.773 64.3207C190.492 64.0159 190.26 63.6696 190.084 63.2941C189.871 62.829 189.725 62.3367 189.648 61.8311C189.525 61.0709 189.448 60.3039 189.418 59.5345C189.377 58.5974 189.356 57.4208 189.356 56.0045C189.356 54.5897 189.377 53.4092 189.418 52.4722C189.448 51.7027 189.525 50.9358 189.648 50.1755C189.725 49.67 189.871 49.1776 190.084 48.7126C190.26 48.3373 190.493 47.9911 190.773 47.686C191.217 47.1885 191.766 46.7962 192.381 46.5376C193.06 46.2462 193.792 46.0992 194.53 46.1058C195.266 46.0982 195.994 46.2453 196.669 46.5376C197.268 46.8011 197.803 47.1931 198.235 47.686C198.514 47.9925 198.746 48.3384 198.924 48.7126C199.143 49.1771 199.297 49.6693 199.383 50.1755C199.509 50.9354 199.586 51.7025 199.613 52.4722C199.663 53.407 199.682 54.5874 199.682 56.0045ZM251.588 41.6923C251.585 41.413 251.36 41.1872 251.08 41.1847H246.306C246.026 41.186 245.799 41.4125 245.798 41.6923V59.3307L234.154 41.3271C234.076 41.2054 234.007 41.1847 233.835 41.1847H229.407C229.128 41.1884 228.903 41.4135 228.899 41.6923V70.3134C228.903 70.5917 229.128 70.8161 229.407 70.8186H234.179C234.458 70.8174 234.683 70.5919 234.684 70.3134V52.629L246.331 70.6739C246.411 70.7957 246.476 70.8163 246.65 70.8163H251.076C251.355 70.8151 251.581 70.59 251.583 70.3111L251.588 41.6923ZM219.075 41.1847C219.354 41.186 219.581 41.4125 219.582 41.6923V70.3111C219.581 70.5909 219.354 70.8174 219.075 70.8186H214.304C214.025 70.8174 213.798 70.5909 213.797 70.3111V41.6923C213.798 41.4125 214.025 41.186 214.304 41.1847H219.075ZM162.476 56.0049C162.476 54.581 162.492 53.3959 162.534 52.452C162.562 51.6823 162.639 50.9153 162.763 50.1553C163.204 47.606 165.157 46.1017 167.648 46.1017C169.274 46.1155 170.749 46.7172 171.691 48.086C172.117 48.725 172.428 49.434 172.609 50.1806C172.623 50.2592 172.695 50.3141 172.775 50.3069H178.39C178.47 50.3069 178.5 50.2518 178.486 50.1737C177.873 46.6988 176.02 43.5776 172.745 42.032C171.135 41.2867 169.378 40.9139 167.605 40.9411C164.443 40.9411 161.78 42.0236 159.615 44.1886C158.379 45.3932 157.535 46.9429 157.194 48.6349C156.863 50.3008 156.696 52.7567 156.693 56.0026C156.69 59.2486 156.857 61.7037 157.194 63.368C157.532 65.0622 158.373 66.615 159.608 67.8236C161.771 69.987 164.435 71.0688 167.598 71.0688C169.371 71.0956 171.128 70.7235 172.738 69.9801C176.013 68.4345 177.866 65.3133 178.48 61.8384C178.493 61.7581 178.463 61.7052 178.383 61.7052H172.765C172.686 61.6969 172.613 61.7523 172.6 61.8316C172.418 62.5773 172.107 63.2854 171.681 63.9238C170.74 65.3018 169.265 65.8967 167.639 65.9081C165.147 65.9081 163.195 64.4061 162.754 61.8568C162.629 61.0969 162.553 60.3298 162.525 59.5602C162.492 58.6116 162.476 57.4243 162.476 56.0049ZM102.659 41.1847C102.939 41.186 103.166 41.4125 103.167 41.6923V53.736L113.55 41.2835C113.596 41.2216 113.67 41.1871 113.748 41.1916H120.084C120.383 41.1916 120.463 41.4098 120.272 41.6395L110.826 52.9712L121.122 70.4259C121.255 70.6533 121.207 70.8189 120.941 70.8189H115.144C115.029 70.8233 114.92 70.7653 114.859 70.667L106.995 57.3349L103.167 61.9121V70.3134C103.164 70.5923 102.938 70.8174 102.659 70.8189H97.8891C97.6102 70.8174 97.3841 70.5923 97.3815 70.3134V41.6923C97.3828 41.4125 97.6093 41.186 97.8891 41.1847H102.659ZM137.921 65.9083C135.236 65.9083 132.802 63.4234 132.802 60.4561V41.6923C132.801 41.4125 132.574 41.186 132.294 41.1847H127.524C127.244 41.186 127.018 41.4125 127.017 41.6923V60.3826C127.017 66.9166 131.904 71.069 137.921 71.069C143.938 71.069 148.826 66.9166 148.826 60.3826V41.6923C148.823 41.413 148.597 41.1872 148.318 41.1847H143.546C143.267 41.1872 143.042 41.4134 143.04 41.6923V60.4561C143.04 63.4211 140.604 65.9083 137.921 65.9083Z" fill="white"/>
</svg>
