<svg width="286" height="111" viewBox="0 0 286 111" fill="none" xmlns="http://www.w3.org/2000/svg">
<rect width="286" height="111" fill="black" fill-opacity="0.01"/>
<path fill-rule="evenodd" clip-rule="evenodd" d="M56.9658 43.5931C59.2081 47.0296 60.401 51.0448 60.3989 55.1482C60.4028 59.2547 59.2098 63.2732 56.9658 66.7124L65.2987 75.0391L59.0398 81.2987L50.7061 72.9651C47.2687 75.2068 43.2535 76.4003 39.1497 76.4003C35.0459 76.4003 31.0307 75.2068 27.5933 72.9651L19.2596 81.2987L13 75.0391L21.3337 66.7048C19.092 63.2674 17.8985 59.2523 17.8985 55.1486C17.8985 51.0449 19.092 47.0297 21.3337 43.5923L13 35.2596L19.2596 29L27.6001 37.3335C31.0375 35.0919 35.0527 33.8984 39.1565 33.8984C43.2603 33.8984 47.2755 35.0919 50.7129 37.3335L59.0405 29L65.2987 35.2596L56.9658 43.5931ZM27.9551 49.802C27.1607 51.4722 26.7502 53.2988 26.7535 55.1482C26.7492 57.2162 27.2633 59.2522 28.249 61.0702C29.2346 62.8882 30.6602 64.4301 32.3954 65.555C34.1307 66.6799 36.1203 67.3518 38.1822 67.5095C40.2442 67.6671 42.3128 67.3053 44.1989 66.4572L36.0188 58.2795L42.2807 52.0184L50.4578 60.2067C51.2157 58.5198 51.5866 56.6847 51.5433 54.8358C51.5 52.9869 51.0435 51.1712 50.2073 49.5216C49.3712 47.872 48.1766 46.4305 46.711 45.3025C45.2454 44.1745 43.546 43.3888 41.7373 43.0028C39.9286 42.6168 38.0565 42.6404 36.2581 43.0718C34.4597 43.5033 32.7807 44.3316 31.344 45.4962C29.9073 46.6607 28.7494 48.1319 27.9551 49.802ZM98.1271 65.8084C102.317 63.6809 104.671 59.0707 104.671 53.9642C104.671 46.9058 100.19 40.8412 92.615 40.8412C85.0395 40.8412 80.5592 46.9058 80.5592 53.9642C80.5592 61.0218 85.0395 67.0864 92.615 67.0864H92.7114L95.7739 71.5549L100.351 69.0004L98.1271 65.8084ZM99.2224 53.9634C99.2224 58.2899 96.902 61.9427 92.615 61.9427H92.6144C88.296 61.9427 85.9742 58.2899 86.007 53.9634C85.9742 49.6362 88.2953 45.9833 92.615 45.9833C96.902 45.9833 99.2224 49.6362 99.2224 53.9634ZM107.379 59.8506C107.379 64.2838 109.377 66.8368 113.116 66.8368V66.8375C115.469 66.8375 117.081 65.7377 117.952 63.9289V66.3767H122.851V49.2814H117.951V58.4673C117.951 60.7722 117.049 62.2623 114.954 62.2623C113.084 62.2623 112.375 60.985 112.375 58.6447V49.2814H107.379V59.8506ZM125.816 57.829C125.816 62.9712 128.492 66.8368 133.134 66.8368V66.8375C135.294 66.8375 137.228 65.667 138.066 63.9643V66.3767H142.965V49.2814H138.066V51.7284C137.228 49.991 135.455 48.8205 133.199 48.8205C128.686 48.8205 125.816 52.7215 125.816 57.829ZM138.26 57.829C138.26 60.3114 137.002 62.3337 134.552 62.3337V62.3329C132.264 62.3329 130.845 60.4181 130.845 57.829C130.845 55.2399 132.263 53.3605 134.552 53.3605C137.002 53.3605 138.26 55.382 138.26 57.829ZM151.992 49.2814H147.06V66.3752H151.992V57.4381C151.992 54.8137 153.023 53.3951 154.989 53.3951C156.988 53.3951 157.729 54.7077 157.729 57.5794V66.3752H162.693V55.8075C162.693 51.1616 160.792 48.8205 157.021 48.8205C154.667 48.8205 152.894 49.849 151.992 51.7645V49.2814ZM176.489 62.0495C176.038 62.1202 175.394 62.1555 174.781 62.1555V62.1547C173.557 62.1547 172.622 61.7653 172.622 59.2469V53.5725H176.135V49.2806H172.622V44.2091H167.69V49.2806H165.24V53.5725H167.69V60.3828C167.69 66.0925 170.881 66.6601 173.202 66.6601C174.62 66.6601 175.781 66.518 176.489 66.376V62.0495ZM178.198 61.2338C178.198 64.4612 181.002 66.9082 185.548 66.9082V66.9075C189.803 66.9075 192.349 64.5319 192.349 61.0211C192.349 58.5733 190.802 56.978 188.417 56.2684L184.742 55.1693C183.904 54.9204 183.421 54.4243 183.421 53.6439C183.421 52.7929 184.129 52.2253 185.193 52.2253C186.514 52.2253 187.321 52.8989 187.321 54.1047H192.188C192.188 50.8774 189.803 48.7852 185.258 48.7852C181.164 48.7852 178.617 51.0195 178.617 54.2115C178.617 56.6585 179.939 58.432 182.518 59.1409L186.321 60.2054C187.159 60.4181 187.45 60.985 187.45 61.6593C187.45 62.6524 186.709 63.2553 185.645 63.2553C184.129 63.2553 183.097 62.4043 183.097 61.2338H178.198ZM205.275 62.0495C204.824 62.1202 204.179 62.1555 203.567 62.1555L203.566 62.1547C202.342 62.1547 201.407 61.7653 201.407 59.2469V53.5725H204.921V49.2806H201.407V44.2091H196.475V49.2806H194.026V53.5725H196.475V60.3828C196.475 66.0925 199.667 66.6601 201.987 66.6601C203.406 66.6601 204.566 66.518 205.275 66.376V62.0495ZM206.984 57.829C206.984 62.9712 209.659 66.8375 214.301 66.8375C216.461 66.8375 218.395 65.667 219.233 63.9643V66.3767H224.133V49.2814H219.233V51.7284C218.395 49.991 216.622 48.8205 214.366 48.8205C209.853 48.8205 206.984 52.7215 206.984 57.829ZM219.427 57.829C219.427 60.3114 218.17 62.3329 215.719 62.3329C213.431 62.3329 212.012 60.4181 212.012 57.829C212.012 55.2399 213.43 53.3605 215.719 53.3605C218.17 53.3605 219.427 55.382 219.427 57.829ZM233.159 49.2821H228.227V66.376H233.159V57.5802C233.159 54.3521 234.223 53.3951 235.802 53.3951C237.317 53.3951 238.091 54.3528 238.091 56.7284V66.3767H243.055V57.581C243.055 54.3528 244.119 53.3958 245.666 53.3958C247.18 53.3958 247.987 54.3889 247.987 56.7645V66.3752H252.951V55.7722C252.951 52.19 251.887 48.8205 247.439 48.8205C245.15 48.8205 243.312 50.1331 242.475 51.9772C241.797 50.1685 240.379 48.8205 237.607 48.8205C235.448 48.8205 233.835 50.0617 233.159 51.7645V49.2821ZM261.783 49.2821H256.851V73.4697H261.783V63.9643C262.557 65.5603 264.426 66.8375 266.715 66.8375C271.002 66.8375 274 63.1839 274 57.829C274 52.4381 271.099 48.8205 266.844 48.8205C264.523 48.8205 262.589 50.097 261.783 51.7284V49.2821ZM268.972 57.829C268.972 60.4886 267.456 62.3326 265.297 62.3329C263.105 62.3329 261.557 60.5241 261.557 57.829C261.557 55.1693 263.072 53.3605 265.297 53.3605C267.456 53.3605 268.972 55.2046 268.972 57.829ZM271.66 49.3964C271.865 49.5317 272.107 49.5994 272.384 49.5994C272.658 49.5994 272.898 49.5317 273.106 49.3964C273.314 49.2611 273.474 49.0776 273.584 48.8446C273.695 48.6123 273.75 48.3529 273.75 48.0672C273.75 47.7853 273.695 47.5282 273.584 47.2952C273.474 47.0629 273.314 46.8794 273.106 46.7441C272.898 46.6088 272.657 46.5411 272.384 46.5411C272.107 46.5411 271.865 46.6088 271.659 46.7441C271.453 46.8794 271.295 47.0629 271.183 47.2952C271.073 47.5282 271.017 47.7853 271.017 48.0672C271.014 48.3374 271.071 48.6044 271.183 48.8446C271.292 49.0741 271.457 49.2654 271.66 49.3964ZM272.966 49.1761C272.8 49.2904 272.606 49.3483 272.384 49.3483C272.163 49.3483 271.968 49.2904 271.802 49.1761C271.636 49.0618 271.508 48.9077 271.418 48.7138C271.328 48.5183 271.282 48.3033 271.282 48.0672C271.28 47.8449 271.327 47.6253 271.418 47.4267C271.508 47.2328 271.636 47.0787 271.802 46.9636C271.968 46.8494 272.163 46.7922 272.385 46.7922C272.589 46.7874 272.791 46.8469 272.965 46.9636C273.13 47.0754 273.263 47.2359 273.348 47.4267C273.436 47.6214 273.481 47.8342 273.481 48.0672C273.481 48.3033 273.437 48.5191 273.348 48.713C273.26 48.9077 273.132 49.0618 272.966 49.1761ZM272.462 47.238H271.891V48.8566H272.119V48.3364H272.405L272.695 48.8559H272.95L272.633 48.3071C272.732 48.2735 272.817 48.204 272.875 48.1101C272.932 48.0164 272.962 47.9057 272.961 47.7929C272.962 47.7206 272.95 47.6489 272.926 47.5817C272.902 47.5144 272.866 47.4531 272.821 47.4012C272.727 47.2929 272.607 47.238 272.462 47.238ZM272.56 48.0971C272.524 48.1135 272.485 48.121 272.446 48.1191H272.124V47.4613H272.446C272.485 47.4593 272.524 47.4667 272.56 47.483C272.596 47.4992 272.628 47.5239 272.654 47.5553C272.707 47.6205 272.735 47.7056 272.732 47.7929C272.734 47.8782 272.707 47.9611 272.654 48.0244C272.628 48.0559 272.596 48.0808 272.56 48.0971Z" fill="white"/>
</svg>
