<svg width="286" height="112" viewBox="0 0 286 112" fill="none" xmlns="http://www.w3.org/2000/svg">
<path d="M0 0H286V112H0V0Z" fill="black" fill-opacity="0.01"/>
<path fill-rule="evenodd" clip-rule="evenodd" d="M136.353 7.13537C136.353 7.20982 136.287 7.27074 136.207 7.27074C136.128 7.27074 136.042 7.34817 136.017 7.44293C135.992 7.5376 135.893 7.63533 135.798 7.66006C135.668 7.69381 135.624 7.78622 135.624 8.02935C135.624 8.2935 135.59 8.35369 135.442 8.35369C135.321 8.35369 135.26 8.41389 135.26 8.53418C135.26 8.63345 135.203 8.71468 135.134 8.71468C135.065 8.71468 134.987 8.7959 134.96 8.89517C134.934 8.99444 134.847 9.07566 134.768 9.07566C134.663 9.07566 134.623 9.16266 134.623 9.39152C134.623 9.64719 134.588 9.70738 134.44 9.70738C134.319 9.70738 134.258 9.76758 134.258 9.88788C134.258 10.0082 134.198 10.0684 134.076 10.0684C133.924 10.0684 133.894 10.1286 133.894 10.4294C133.894 10.7301 133.864 10.7903 133.712 10.7903C133.591 10.7903 133.53 10.8505 133.53 10.9708C133.53 11.0701 133.47 11.1513 133.397 11.1513C133.319 11.1513 133.241 11.2764 133.207 11.4589C133.17 11.6548 133.086 11.7828 132.975 11.8114C132.88 11.8361 132.802 11.9211 132.802 12.0002C132.802 12.0793 132.74 12.144 132.665 12.144C132.589 12.144 132.528 12.2243 132.528 12.3245C132.528 12.4448 132.468 12.505 132.346 12.505C132.198 12.505 132.164 12.5652 132.164 12.8294C132.164 13.0777 132.122 13.1647 131.982 13.2008C131.881 13.227 131.8 13.3239 131.8 13.418C131.8 13.5278 131.736 13.588 131.618 13.588C131.47 13.588 131.436 13.6482 131.436 13.9038C131.436 14.1595 131.401 14.2197 131.254 14.2197C131.132 14.2197 131.072 14.2799 131.072 14.4002C131.072 14.5004 131.011 14.5807 130.935 14.5807C130.859 14.5807 130.798 14.6609 130.798 14.7612C130.798 14.8788 130.738 14.9417 130.624 14.9417C130.492 14.9417 130.435 15.0287 130.389 15.3026C130.351 15.5246 130.278 15.6636 130.199 15.6636C130.128 15.6636 130.07 15.7448 130.07 15.8441C130.07 15.9644 130.009 16.0246 129.888 16.0246C129.741 16.0246 129.706 16.0848 129.706 16.3405C129.706 16.5961 129.671 16.6563 129.524 16.6563C129.402 16.6563 129.342 16.7165 129.342 16.8368C129.342 16.9361 129.282 17.0173 129.209 17.0173C129.131 17.0173 129.053 17.1424 129.018 17.3249C128.981 17.5208 128.897 17.6488 128.787 17.6774C128.686 17.7036 128.613 17.8014 128.613 17.9113C128.613 18.0191 128.555 18.1003 128.477 18.1003C128.402 18.1003 128.34 18.165 128.34 18.2441C128.34 18.3232 128.258 18.4092 128.158 18.4351C128.021 18.4706 127.976 18.5582 127.976 18.7877C127.976 19.0328 127.94 19.093 127.794 19.093C127.672 19.093 127.612 19.1532 127.612 19.2735C127.612 19.3938 127.551 19.454 127.43 19.454C127.282 19.454 127.247 19.5142 127.247 19.7698C127.247 20.0255 127.213 20.0857 127.065 20.0857C126.944 20.0857 126.883 20.1459 126.883 20.2662C126.883 20.3655 126.825 20.4467 126.755 20.4467C126.676 20.4467 126.602 20.5857 126.565 20.8077C126.53 21.0116 126.452 21.1686 126.385 21.1686C126.32 21.1686 126.246 21.2499 126.22 21.3491C126.193 21.4484 126.107 21.5296 126.027 21.5296C125.942 21.5296 125.882 21.6052 125.882 21.7101C125.882 21.8304 125.821 21.8906 125.7 21.8906C125.552 21.8906 125.518 21.9508 125.518 22.2065C125.518 22.4621 125.483 22.5223 125.335 22.5223C125.218 22.5223 125.153 22.5825 125.153 22.6923C125.153 22.7864 125.072 22.8833 124.971 22.9095C124.832 22.9456 124.789 23.0326 124.789 23.2809C124.789 23.5451 124.755 23.6053 124.607 23.6053C124.486 23.6053 124.425 23.6655 124.425 23.7858C124.425 23.886 124.364 23.9663 124.288 23.9663C124.212 23.9663 124.152 24.0465 124.152 24.1468C124.152 24.2671 124.091 24.3273 123.97 24.3273C123.822 24.3273 123.788 24.3875 123.788 24.6431C123.788 24.8988 123.753 24.959 123.605 24.959C123.488 24.959 123.423 25.0192 123.423 25.1289C123.423 25.223 123.342 25.32 123.241 25.3461C123.102 25.3822 123.059 25.4692 123.059 25.7176C123.059 25.9817 123.025 26.0419 122.877 26.0419C122.756 26.0419 122.695 26.1021 122.695 26.2224C122.695 26.3217 122.635 26.4029 122.562 26.4029C122.483 26.4029 122.406 26.5297 122.37 26.7188C122.336 26.8997 122.256 27.0346 122.184 27.0346C122.114 27.0346 122.058 27.1159 122.058 27.2151C122.058 27.3354 121.997 27.3956 121.875 27.3956C121.754 27.3956 121.693 27.4558 121.693 27.5761C121.693 27.6964 121.633 27.7566 121.511 27.7566C121.363 27.7566 121.329 27.8168 121.329 28.081C121.329 28.3293 121.287 28.4163 121.147 28.4524C121.046 28.4786 120.965 28.5755 120.965 28.6696C120.965 28.763 120.908 28.8396 120.839 28.8396C120.632 28.8396 120.603 29.1468 120.602 31.3744C120.6 35.0854 120.703 37.8642 120.843 37.8642C120.943 37.8642 120.965 38.6782 120.965 42.4562C120.965 46.9724 120.962 47.049 120.783 47.0954C120.683 47.1213 120.601 47.2026 120.601 47.2759C120.601 47.3492 120.519 47.4304 120.419 47.4564C120.319 47.4823 120.237 47.5636 120.237 47.6369C120.237 47.7102 120.155 47.7914 120.054 47.8174C119.954 47.8433 119.872 47.9293 119.872 48.0084C119.872 48.0875 119.811 48.1522 119.736 48.1522C119.66 48.1522 119.599 48.2325 119.599 48.3327C119.599 48.453 119.538 48.5132 119.417 48.5132C119.296 48.5132 119.235 48.5734 119.235 48.6937C119.235 48.814 119.174 48.8742 119.053 48.8742C118.932 48.8742 118.871 48.9344 118.871 49.0547C118.871 49.175 118.81 49.2352 118.689 49.2352C118.567 49.2352 118.507 49.2954 118.507 49.4157C118.507 49.5159 118.446 49.5962 118.37 49.5962C118.295 49.5962 118.233 49.6609 118.233 49.74C118.233 49.8191 118.152 49.9051 118.051 49.931C117.951 49.957 117.869 50.0382 117.869 50.1115C117.869 50.1849 117.787 50.2661 117.687 50.292C117.587 50.318 117.505 50.3954 117.505 50.4641C117.505 50.5327 117.423 50.5889 117.323 50.5889C117.202 50.5889 117.141 50.6491 117.141 50.7694C117.141 50.9198 117.08 50.9499 116.777 50.9499C116.473 50.9499 116.412 50.9799 116.412 51.1304C116.412 51.2753 116.352 51.3108 116.104 51.3108C115.873 51.3108 115.784 51.3557 115.749 51.4913C115.712 51.6296 115.624 51.6718 115.374 51.6718C115.153 51.6718 115.047 51.7132 115.047 51.7993C115.047 51.8776 114.906 51.9502 114.682 51.9877C114.476 52.0223 114.318 52.0994 114.318 52.1661C114.318 52.2306 114.175 52.3101 114 52.3427C113.809 52.3782 113.681 52.4547 113.681 52.5332C113.681 52.6263 113.575 52.6645 113.317 52.6645C113.013 52.6645 112.953 52.6946 112.953 52.845C112.953 52.9955 112.892 53.0255 112.588 53.0255C112.285 53.0255 112.224 53.0556 112.224 53.206C112.224 53.351 112.163 53.3865 111.916 53.3865C111.685 53.3865 111.596 53.4314 111.56 53.567C111.524 53.7053 111.436 53.7475 111.186 53.7475C110.964 53.7475 110.858 53.7888 110.858 53.8749C110.858 53.9533 110.718 54.0259 110.494 54.0634C110.284 54.0986 110.13 54.1747 110.13 54.2438C110.13 54.313 109.976 54.3891 109.766 54.4243C109.542 54.4618 109.402 54.5344 109.402 54.6128C109.402 54.6982 109.297 54.7402 109.083 54.7402C108.825 54.7402 108.764 54.7746 108.764 54.9207C108.764 55.041 108.703 55.1012 108.582 55.1012C108.461 55.1012 108.4 55.1614 108.4 55.2817C108.4 55.402 108.339 55.4622 108.218 55.4622C108.058 55.4622 108.036 55.5224 108.036 55.948C108.036 56.358 108.007 56.4412 107.854 56.481C107.699 56.5211 107.672 56.6041 107.672 57.033C107.672 57.4012 107.638 57.5378 107.546 57.5378C107.416 57.5378 107.307 57.9132 107.307 58.3613C107.307 58.5249 107.26 58.6208 107.179 58.6208C107.085 58.6208 107.032 58.8042 106.986 59.2976C106.94 59.783 106.886 59.9745 106.796 59.9745C106.704 59.9745 106.67 60.1098 106.67 60.4793C106.67 60.9082 106.643 60.9912 106.488 61.0313C106.329 61.0724 106.306 61.1549 106.305 61.6772C106.303 62.3978 106.236 62.6819 106.068 62.6819C105.969 62.6819 105.942 62.8761 105.942 63.5843C105.942 64.2926 105.914 64.4868 105.816 64.4868C105.638 64.4868 105.58 64.7764 105.579 65.6825C105.578 66.2868 105.548 66.4722 105.454 66.4722C105.302 66.4722 105.213 67.2097 105.213 68.4709C105.213 69.154 105.185 69.3601 105.091 69.3601C104.994 69.3601 104.957 69.794 104.909 71.4583C104.876 72.6124 104.849 74.0134 104.849 74.5718L104.849 75.5871H103.301C101.986 75.5871 101.753 75.6074 101.753 75.7224C101.753 75.8385 101.477 75.8578 99.8102 75.8578C96.8945 75.8578 95.1066 75.9489 95.1066 76.0975C95.1066 76.1961 94.6271 76.2189 92.5344 76.2193C89.502 76.22 88.4599 76.281 88.4599 76.4577C88.4599 76.5559 88.1227 76.5798 86.73 76.5798H85V83.1677C85 88.9635 85.0164 89.7557 85.1366 89.7557C85.2547 89.7557 85.2732 90.0892 85.2732 92.2149C85.2733 93.5674 85.3005 96.5321 85.3336 98.8029L85.3939 102.932H86.0934C87.4042 102.932 88.4599 102.825 88.4599 102.692C88.4599 102.593 88.9496 102.571 91.1345 102.571C93.9335 102.571 94.3782 102.538 94.3782 102.334C94.3782 102.231 94.8942 102.21 97.3829 102.21C99.8466 102.21 100.388 102.188 100.388 102.088C100.388 101.916 101.417 101.85 104.098 101.849C105.884 101.849 106.306 101.826 106.306 101.727C106.306 101.589 108.288 101.488 111.018 101.488C112.353 101.488 112.588 101.467 112.588 101.352C112.588 101.242 112.743 101.217 113.431 101.217C113.894 101.217 115.225 101.19 116.39 101.157C118.069 101.11 118.507 101.073 118.507 100.977C118.507 100.879 118.96 100.856 120.897 100.855C123.652 100.855 124.516 100.798 124.516 100.617C124.516 100.517 124.992 100.495 127.134 100.494C130.013 100.493 130.707 100.447 130.707 100.257C130.707 100.156 131.239 100.134 133.712 100.134C136.201 100.134 136.717 100.113 136.717 100.01C136.717 99.8055 137.161 99.773 139.96 99.773C142.14 99.773 142.635 99.7505 142.635 99.6517C142.635 99.5056 144.302 99.4129 146.937 99.4124C148.394 99.4121 148.644 99.3922 148.644 99.2767C148.644 99.1616 148.877 99.1413 150.192 99.1413C151.679 99.1413 151.74 99.1483 151.74 99.3218C151.74 99.4211 151.797 99.5023 151.866 99.5023C152.009 99.5023 152.101 99.773 152.103 100.202C152.104 100.391 152.149 100.495 152.231 100.495C152.303 100.495 152.383 100.63 152.417 100.811C152.45 100.985 152.531 101.127 152.598 101.127C152.668 101.127 152.743 101.277 152.777 101.488C152.814 101.721 152.883 101.849 152.97 101.849C153.045 101.849 153.106 101.93 153.106 102.029C153.106 102.149 153.167 102.21 153.288 102.21C153.435 102.21 153.47 102.27 153.47 102.526C153.47 102.754 153.51 102.841 153.615 102.841C153.695 102.841 153.782 102.923 153.808 103.022C153.834 103.121 153.916 103.202 153.99 103.202C154.064 103.202 154.146 103.284 154.172 103.383C154.198 103.482 154.276 103.563 154.346 103.563C154.415 103.563 154.472 103.645 154.472 103.744C154.472 103.864 154.532 103.924 154.654 103.924C154.775 103.924 154.836 103.985 154.836 104.105C154.836 104.221 154.897 104.285 155.007 104.285C155.102 104.285 155.2 104.366 155.226 104.466C155.263 104.604 155.351 104.646 155.601 104.646C155.868 104.646 155.928 104.68 155.928 104.827C155.928 104.977 155.989 105.007 156.293 105.007C156.542 105.007 156.657 105.047 156.657 105.132C156.657 105.274 156.93 105.365 157.362 105.367C157.564 105.368 157.658 105.411 157.658 105.504C157.658 105.597 157.753 105.639 157.964 105.639C158.685 105.639 159.388 105.757 159.388 105.877C159.388 105.97 159.557 106 160.071 106C160.588 106 160.754 105.97 160.754 105.876C160.754 105.741 161.203 105.642 161.824 105.64C162.093 105.639 162.211 105.601 162.211 105.514C162.211 105.442 162.347 105.363 162.53 105.329C162.705 105.297 162.848 105.216 162.848 105.15C162.848 105.08 163 105.006 163.212 104.973C163.448 104.935 163.577 104.868 163.577 104.781C163.577 104.707 163.658 104.646 163.759 104.646C163.88 104.646 163.941 104.586 163.941 104.466C163.941 104.346 164.002 104.285 164.123 104.285C164.244 104.285 164.305 104.225 164.305 104.105C164.305 103.985 164.366 103.924 164.487 103.924C164.588 103.924 164.669 103.864 164.669 103.789C164.669 103.715 164.735 103.654 164.814 103.654C164.894 103.654 164.981 103.572 165.007 103.473C165.033 103.374 165.115 103.293 165.189 103.293C165.263 103.293 165.345 103.211 165.371 103.112C165.397 103.013 165.476 102.932 165.545 102.932C165.614 102.932 165.671 102.85 165.671 102.751C165.671 102.631 165.732 102.571 165.853 102.571C165.974 102.571 166.035 102.51 166.035 102.39C166.035 102.27 166.096 102.21 166.217 102.21C166.338 102.21 166.399 102.149 166.399 102.029C166.399 101.93 166.459 101.849 166.532 101.849C166.611 101.849 166.688 101.722 166.724 101.533C166.76 101.34 166.837 101.217 166.919 101.217C166.993 101.217 167.074 101.14 167.099 101.046C167.125 100.945 167.255 100.853 167.418 100.821C167.729 100.759 167.856 100.809 167.856 100.993C167.856 101.065 167.991 101.144 168.175 101.178C168.357 101.212 168.493 101.291 168.493 101.362C168.493 101.44 168.593 101.488 168.755 101.488C169.207 101.488 169.586 101.596 169.586 101.725C169.586 101.818 169.745 101.849 170.232 101.849C170.801 101.849 170.883 101.87 170.925 102.029C170.97 102.198 171.05 102.21 172.192 102.21C173.165 102.21 173.41 102.235 173.41 102.334C173.41 102.516 173.831 102.571 175.251 102.571C176.446 102.571 176.526 102.56 176.57 102.39C176.606 102.255 176.695 102.21 176.926 102.21C177.135 102.21 177.234 102.167 177.234 102.078C177.234 102 177.36 101.924 177.545 101.889C177.742 101.853 177.871 101.769 177.9 101.66C177.925 101.565 178.011 101.488 178.091 101.488C178.171 101.488 178.236 101.427 178.236 101.352C178.236 101.277 178.317 101.217 178.418 101.217C178.539 101.217 178.6 101.157 178.6 101.036C178.6 100.916 178.661 100.856 178.782 100.856C178.903 100.856 178.964 100.796 178.964 100.675C178.964 100.555 179.025 100.495 179.146 100.495C179.293 100.495 179.328 100.435 179.328 100.19C179.328 99.9602 179.374 99.8726 179.511 99.8371C179.619 99.8088 179.693 99.714 179.693 99.601C179.693 99.497 179.749 99.412 179.819 99.412C179.962 99.412 180.054 99.1413 180.056 98.7126C180.056 98.5126 180.1 98.4193 180.193 98.4193C180.289 98.4193 180.33 98.3231 180.33 98.095C180.33 97.8466 180.373 97.7596 180.512 97.7235C180.612 97.6975 180.694 97.6201 180.694 97.5514C180.694 97.4829 180.776 97.4266 180.876 97.4266C181.046 97.4266 181.058 97.4868 181.058 98.284C181.058 99.0811 181.071 99.1413 181.24 99.1413C181.362 99.1413 181.423 99.2015 181.423 99.3218C181.423 99.422 181.483 99.5023 181.559 99.5023C181.634 99.5023 181.696 99.5632 181.696 99.6376C181.696 99.7379 181.802 99.773 182.105 99.773C182.454 99.773 182.515 99.7997 182.515 99.9535C182.515 100.128 182.576 100.134 184.427 100.134C186.279 100.134 186.339 100.128 186.339 99.9535C186.339 99.8031 186.4 99.773 186.703 99.773C186.953 99.773 187.068 99.7337 187.068 99.6482C187.068 99.5795 187.15 99.5021 187.25 99.4761C187.35 99.4502 187.432 99.3642 187.432 99.2851C187.432 99.206 187.493 99.1413 187.568 99.1413C187.653 99.1413 187.705 99.0561 187.705 98.9157C187.705 98.7503 187.754 98.6901 187.887 98.6901C188.06 98.6901 188.069 98.6299 188.069 97.5169C188.069 96.4039 188.06 96.3437 187.887 96.3437C187.725 96.3437 187.705 96.2835 187.705 95.8022C187.705 95.3209 187.685 95.2607 187.523 95.2607C187.422 95.2607 187.341 95.2005 187.341 95.1253C187.341 95.0502 187.422 94.99 187.523 94.99C187.644 94.99 187.705 94.9298 187.705 94.8095C187.705 94.6709 187.766 94.629 187.967 94.629C188.419 94.629 188.798 94.5211 188.798 94.3921C188.798 94.3216 188.891 94.268 189.014 94.268C189.424 94.268 189.799 94.1548 189.799 94.0311C189.799 93.9302 190.122 93.907 191.529 93.907H193.259V94.4485C193.259 94.8697 193.229 94.99 193.123 94.99C193.011 94.99 192.986 95.1454 192.986 95.8473C192.986 96.5492 193.011 96.7047 193.123 96.7047C193.223 96.7047 193.259 96.8087 193.259 97.0995C193.259 97.7477 193.351 98.0583 193.544 98.0583C193.654 98.0583 193.714 98.1225 193.714 98.2388C193.714 98.4085 193.775 98.4193 194.725 98.4193C195.658 98.4193 195.738 98.4056 195.782 98.2388C195.818 98.1032 195.906 98.0583 196.138 98.0583C196.35 98.0583 196.446 98.0165 196.446 97.924C196.446 97.8371 196.574 97.7694 196.81 97.732C197.011 97.7003 197.174 97.6234 197.174 97.561C197.174 97.4986 197.256 97.4264 197.356 97.4004C197.457 97.3745 197.539 97.2904 197.539 97.2136C197.539 97.1253 197.656 97.052 197.857 97.0145C198.04 96.9806 198.176 96.9017 198.176 96.83C198.176 96.7611 198.258 96.7047 198.358 96.7047C198.479 96.7047 198.54 96.6445 198.54 96.5242C198.54 96.4039 198.601 96.3437 198.722 96.3437C198.844 96.3437 198.904 96.2835 198.904 96.1632C198.904 96.0429 198.965 95.9827 199.086 95.9827C199.208 95.9827 199.268 95.9225 199.268 95.8022C199.268 95.7019 199.329 95.6217 199.405 95.6217C199.48 95.6217 199.542 95.557 199.542 95.4778C199.542 95.3988 199.62 95.3138 199.715 95.289C199.826 95.2604 199.91 95.1325 199.947 94.9365C199.981 94.7541 200.059 94.629 200.138 94.629C200.21 94.629 200.27 94.5478 200.27 94.4485C200.27 94.3282 200.331 94.268 200.452 94.268C200.574 94.268 200.634 94.2078 200.634 94.0875C200.634 93.9879 200.695 93.907 200.77 93.907C200.857 93.907 200.926 93.7796 200.963 93.546C200.996 93.3423 201.073 93.1851 201.139 93.1851C201.204 93.1851 201.283 93.0261 201.317 92.8241C201.355 92.6022 201.428 92.4631 201.507 92.4631C201.582 92.4631 201.636 92.3732 201.636 92.2487C201.636 91.8422 201.75 91.4704 201.875 91.4704C201.974 91.4704 202 91.253 202 90.4325C202 89.609 201.974 89.3947 201.874 89.3947C201.805 89.3947 201.727 89.3135 201.7 89.2142C201.672 89.1062 201.576 89.0337 201.462 89.0337C201.356 89.0337 201.272 88.9755 201.272 88.9024C201.272 88.8239 201.144 88.7474 200.953 88.7119C200.722 88.669 200.634 88.6055 200.634 88.4822C200.634 88.372 200.57 88.3118 200.452 88.3118C200.352 88.3118 200.27 88.2555 200.27 88.1869C200.27 88.1183 200.183 88.0394 200.076 88.0118C199.925 87.9725 199.894 87.9154 199.938 87.753C199.969 87.6384 199.995 87.433 199.996 87.2965C199.996 87.1366 200.046 87.0483 200.133 87.0483C200.246 87.0483 200.27 86.8879 200.27 86.1459C200.27 85.4403 200.243 85.2434 200.145 85.2434C200.02 85.2434 199.906 84.8719 199.906 84.4691C199.906 84.3003 199.843 84.2472 199.587 84.1996C199.405 84.1657 199.268 84.0868 199.268 84.0151C199.268 83.911 198.82 83.8897 196.628 83.8897H193.988L192.717 71.9688C192.663 71.4604 192.238 71.0775 191.726 71.0893C187.636 71.1837 173.426 71.7065 173.426 71.7065L173.362 71.0296C173.316 70.5443 173.262 70.3528 173.172 70.3528C173.07 70.3528 173.046 70.0995 173.046 69.0555C173.046 67.6124 172.992 67.1942 172.807 67.1942C172.706 67.1942 172.682 66.9016 172.682 65.66C172.682 64.186 172.675 64.1258 172.5 64.1258C172.325 64.1258 172.318 64.0656 172.318 62.727C172.318 61.6119 172.293 61.3282 172.194 61.3282C172.055 61.3282 171.955 60.3788 171.954 59.0495C171.953 58.4481 171.924 58.2598 171.831 58.2598C171.738 58.2598 171.694 57.9929 171.649 57.1627C171.616 56.5593 171.589 55.8486 171.589 55.5834C171.589 55.2149 171.557 55.1012 171.453 55.1012C171.343 55.1012 171.316 54.9658 171.316 54.4243C171.316 53.8077 171.3 53.7475 171.134 53.7475C171.012 53.7475 170.952 53.6873 170.952 53.567C170.952 53.4166 170.891 53.3865 170.588 53.3865C170.338 53.3865 170.223 53.3472 170.223 53.2617C170.223 53.1195 169.95 53.0286 169.518 53.0268C169.283 53.0258 169.222 52.9883 169.222 52.845C169.222 52.6946 169.161 52.6645 168.858 52.6645C168.605 52.6645 168.493 52.6256 168.493 52.5371C168.493 52.4588 168.353 52.3861 168.129 52.3487C167.905 52.3112 167.765 52.2386 167.765 52.1602C167.765 52.0741 167.659 52.0328 167.438 52.0328C167.187 52.0328 167.099 51.9906 167.063 51.8523C167.033 51.7391 166.939 51.6718 166.81 51.6718C166.409 51.6718 166.035 51.5574 166.035 51.4349C166.035 51.3526 165.925 51.3108 165.708 51.3108C165.457 51.3108 165.369 51.2686 165.333 51.1304C165.307 51.0311 165.234 50.9499 165.172 50.9499C165.062 50.9499 164.942 50.2158 164.942 49.5378C164.942 49.329 164.9 49.2352 164.806 49.2352C164.691 49.2352 164.669 49.0367 164.668 47.9943C164.667 46.5599 164.607 46.0766 164.43 46.0766C164.329 46.0766 164.305 45.7964 164.305 44.6439C164.305 43.0686 164.255 42.6472 164.066 42.6472C163.965 42.6472 163.941 42.3478 163.941 41.0679C163.941 39.7961 163.917 39.4886 163.817 39.4886C163.678 39.4886 163.579 38.876 163.577 38.0136C163.577 37.5619 163.603 37.4795 163.759 37.4391C163.894 37.404 163.941 37.316 163.941 37.0971C163.941 36.8781 163.988 36.7902 164.123 36.7551C164.278 36.715 164.305 36.632 164.305 36.2031C164.305 35.8335 164.339 35.6983 164.431 35.6983C164.626 35.6983 164.667 35.3984 164.667 33.9836C164.667 32.5688 164.626 32.2689 164.431 32.2689C164.345 32.2689 164.305 32.1551 164.305 31.9079C164.305 31.6485 164.267 31.5469 164.17 31.5469C164.082 31.5469 164.014 31.4195 163.976 31.186C163.932 30.9139 163.876 30.825 163.747 30.825C163.637 30.825 163.577 30.7607 163.577 30.6445C163.577 30.5452 163.517 30.464 163.444 30.464C163.365 30.464 163.288 30.3372 163.252 30.1481C163.209 29.9195 163.145 29.8323 163.02 29.8323C162.926 29.8323 162.848 29.7714 162.848 29.6969C162.848 29.6224 162.787 29.5615 162.712 29.5615C162.617 29.5615 162.575 29.4675 162.575 29.257C162.575 28.7668 162.471 28.3883 162.336 28.3883C162.238 28.3883 162.211 28.1806 162.21 27.4182C162.208 26.3355 162.158 26.0419 161.973 26.0419C161.874 26.0419 161.847 25.8559 161.847 25.1952C161.847 24.4242 161.83 24.344 161.665 24.3011C161.51 24.261 161.482 24.178 161.482 23.7491C161.482 23.3809 161.449 23.2443 161.357 23.2443C161.227 23.2443 161.118 22.869 161.118 22.4208C161.118 22.2573 161.071 22.1613 160.989 22.1613C160.896 22.1613 160.843 21.978 160.797 21.4845C160.751 20.9992 160.697 20.8077 160.607 20.8077C160.519 20.8077 160.481 20.6887 160.481 20.4128C160.481 19.8383 160.385 19.454 160.242 19.454C160.152 19.454 160.116 19.3214 160.115 18.9802C160.114 18.3799 160.039 18.1003 159.878 18.1003C159.785 18.1003 159.753 17.9597 159.753 17.5588C159.753 17.1579 159.72 17.0173 159.627 17.0173C159.466 17.0173 159.391 16.7377 159.39 16.1374C159.389 15.7902 159.354 15.6636 159.26 15.6636C159.181 15.6636 159.107 15.5246 159.07 15.3026C159.023 15.0287 158.966 14.9417 158.834 14.9417C158.738 14.9417 158.66 14.8854 158.66 14.8168C158.66 14.6746 158.387 14.5837 157.954 14.5819C157.765 14.5811 157.658 14.5362 157.658 14.4566C157.658 14.3276 157.28 14.2197 156.828 14.2197C156.666 14.2197 156.566 14.1721 156.566 14.0956C156.566 13.9719 156.191 13.8587 155.78 13.8587C155.649 13.8587 155.564 13.8056 155.564 13.7233C155.564 13.631 155.47 13.5876 155.268 13.5867C154.836 13.5849 154.563 13.494 154.563 13.3518C154.563 13.2745 154.463 13.227 154.301 13.227C153.849 13.227 153.47 13.119 153.47 12.9901C153.47 12.9055 153.354 12.866 153.106 12.866C152.856 12.866 152.742 12.8267 152.742 12.7412C152.742 12.599 152.468 12.5081 152.036 12.5063C151.846 12.5055 151.74 12.4605 151.74 12.3809C151.74 12.252 151.361 12.144 150.909 12.144C150.748 12.144 150.647 12.0965 150.647 12.0199C150.647 11.8962 150.272 11.783 149.862 11.783C149.731 11.783 149.646 11.73 149.646 11.6477C149.646 11.5554 149.552 11.5119 149.35 11.511C148.918 11.5092 148.644 11.4184 148.644 11.2761C148.644 11.1923 148.532 11.151 148.303 11.1501C147.827 11.1483 147.552 11.0622 147.552 10.9151C147.552 10.8297 147.437 10.7903 147.188 10.7903C146.938 10.7903 146.823 10.751 146.823 10.6655C146.823 10.5185 146.548 10.4323 146.072 10.4306C145.843 10.4297 145.731 10.3884 145.731 10.3045C145.731 10.1623 145.458 10.0714 145.025 10.0696C144.835 10.0688 144.729 10.0239 144.729 9.94428C144.729 9.82055 144.354 9.70738 143.944 9.70738C143.812 9.70738 143.728 9.65432 143.728 9.57201C143.728 9.48303 143.638 9.43665 143.466 9.43665C143.014 9.43665 142.635 9.32871 142.635 9.19975C142.635 9.11519 142.519 9.07566 142.271 9.07566C141.967 9.07566 141.907 9.04561 141.907 8.89517C141.907 8.73615 141.846 8.71468 141.397 8.71468C140.965 8.71468 140.881 8.68751 140.84 8.53418C140.8 8.38185 140.716 8.35369 140.303 8.35369C139.946 8.35369 139.812 8.31967 139.812 8.22888C139.812 8.08665 139.539 7.99578 139.107 7.99397C138.917 7.99316 138.811 7.94822 138.811 7.86862C138.811 7.73966 138.432 7.63172 137.98 7.63172C137.808 7.63172 137.718 7.58534 137.718 7.49635C137.718 7.41405 137.634 7.36098 137.502 7.36098C137.092 7.36098 136.717 7.24782 136.717 7.12409C136.717 7.05586 136.635 7 136.535 7C136.433 7 136.353 7.06019 136.353 7.13537ZM135.562 10.8355C135.553 10.9347 135.475 11.0566 135.388 11.1062C135.301 11.1558 135.107 11.3014 134.958 11.4296C134.706 11.6451 134.693 11.6849 134.787 11.952C134.875 12.201 134.864 12.2659 134.71 12.4183C134.612 12.5156 134.491 12.5953 134.442 12.5953C134.393 12.5953 134.326 12.7008 134.294 12.8296C134.261 12.9586 134.096 13.2432 133.928 13.4622C133.759 13.6811 133.621 13.8981 133.621 13.9442C133.621 13.9903 133.494 14.1626 133.339 14.3269C133.184 14.4913 132.984 14.7882 132.895 14.9868C132.806 15.1853 132.623 15.4647 132.488 15.6077C132.352 15.7506 132.079 16.1768 131.879 16.5547C131.679 16.9326 131.392 17.3617 131.241 17.5084C131.09 17.6549 130.891 17.9191 130.8 18.0955C130.709 18.2718 130.507 18.574 130.352 18.767C130.197 18.96 130.07 19.2036 130.069 19.3085C130.069 19.5462 129.824 19.9204 129.422 20.2972C128.919 20.7689 128.41 21.6256 128.306 22.1756C128.262 22.4103 128.077 22.6775 127.659 23.1108C127.298 23.4843 127.025 23.8606 126.948 24.09C126.876 24.306 126.735 24.5066 126.613 24.5673C126.333 24.7072 126.249 24.8552 126.247 25.2146C126.246 25.453 126.154 25.6073 125.8 25.9591C125.255 26.5028 124.992 26.5507 125.23 26.0632C125.596 25.3121 125.866 24.8626 126.124 24.5752C126.291 24.3889 126.428 24.1837 126.428 24.1191C126.428 24.0546 126.547 23.8415 126.692 23.6454C126.838 23.4495 127.101 23.0107 127.277 22.6703C127.453 22.33 127.703 21.924 127.834 21.7681C128.162 21.3757 128.633 20.6106 129.011 19.8568C129.186 19.5077 129.419 19.1422 129.527 19.0446C129.636 18.9471 129.801 18.7205 129.893 18.541C129.986 18.3614 130.168 18.0892 130.298 17.9358C130.428 17.7825 130.66 17.4218 130.813 17.1342C130.967 16.8466 131.186 16.4868 131.301 16.3347C131.416 16.1827 131.571 15.9188 131.646 15.7481C131.72 15.5775 131.887 15.3162 132.018 15.1673C132.306 14.838 132.984 13.7941 132.984 13.6802C132.984 13.635 133.13 13.4435 133.308 13.2546C133.486 13.0657 133.692 12.7665 133.766 12.5898C133.84 12.413 134.042 12.1355 134.216 11.9733C134.389 11.8109 134.532 11.6173 134.532 11.5429C134.532 11.3081 135.196 10.609 135.396 10.6331C135.517 10.6477 135.573 10.7158 135.562 10.8355ZM150.693 13.588C150.863 13.6999 151.12 13.7675 151.376 13.7678C151.601 13.7682 152.031 13.847 152.332 13.9429C152.632 14.0389 153.063 14.1627 153.288 14.2179C153.513 14.2731 153.841 14.3551 154.016 14.4001C154.455 14.5125 156.416 15.5154 156.932 15.891C157.538 16.3314 158.189 17.0777 158.442 17.6207C158.681 18.1347 158.708 18.3877 158.566 18.7925C158.493 18.9988 158.503 19.121 158.611 19.3248C158.814 19.7114 158.783 20.1176 158.508 20.6514C158.174 21.3001 158.049 21.4263 157.669 21.4969C157.488 21.5304 157.208 21.6125 157.047 21.6792C156.688 21.8274 155.759 21.8375 155.411 21.6969C155.27 21.6401 154.918 21.5632 154.63 21.5261C154.265 21.4794 154.001 21.3799 153.765 21.2012C153.578 21.0596 153.313 20.8827 153.176 20.808C152.305 20.333 151.881 20.0306 151.28 19.4548C150.907 19.0973 150.489 18.7468 150.351 18.6758C150.214 18.6048 149.911 18.3752 149.678 18.1655C149.446 17.9559 149.153 17.6931 149.028 17.5814C148.902 17.4696 148.714 17.3781 148.608 17.3779C148.503 17.3777 148.093 17.2152 147.698 17.017C147.112 16.7231 146.884 16.6563 146.466 16.6563C146.182 16.6563 145.715 16.5738 145.422 16.4717C144.848 16.2718 144.343 16.2883 143.703 16.5278C143.473 16.6141 142.984 16.6563 142.218 16.6563C141.262 16.6563 141.011 16.6863 140.667 16.8413C140.253 17.0283 139.903 17.0106 139.903 16.8025C139.903 16.5878 140.419 16.1988 140.777 16.1427C140.973 16.1121 141.275 16.0121 141.45 15.9205C141.625 15.8289 141.829 15.7531 141.905 15.752C141.981 15.751 142.453 15.6092 142.954 15.4369C143.454 15.2647 143.946 15.1231 144.046 15.1223C144.146 15.1216 144.351 15.0403 144.502 14.9417C144.668 14.8322 144.929 14.7622 145.17 14.7618C145.388 14.7614 145.675 14.7023 145.808 14.6305C146.403 14.3086 147.007 14.1112 147.592 14.048C147.977 14.0065 148.24 13.9339 148.264 13.8628C148.285 13.7985 148.38 13.6697 148.474 13.5767C148.73 13.3224 150.301 13.3303 150.693 13.588ZM140.541 14.6877C140.541 14.8765 140.152 15.2124 139.933 15.2124C139.609 15.2124 139.663 14.9114 140.017 14.744C140.39 14.5678 140.541 14.5515 140.541 14.6877ZM138.993 15.5703C138.993 15.6182 138.923 15.8028 138.838 15.9803C138.726 16.2119 138.632 16.2956 138.503 16.2767C138.233 16.2368 138.231 16.0779 138.497 15.7652C138.727 15.4937 138.993 15.3893 138.993 15.5703ZM145.776 17.7393C145.926 17.8379 146.157 17.9189 146.289 17.9192C146.643 17.9201 147.72 18.3453 148.136 18.6483C148.335 18.7936 148.553 18.9125 148.621 18.9125C148.738 18.9125 149.115 19.2373 150.325 20.3801C150.627 20.6661 151.065 21.0225 151.298 21.1722C151.531 21.3218 151.939 21.6664 152.206 21.9382C152.472 22.2098 152.746 22.4321 152.815 22.4321C152.883 22.4321 153.23 22.5742 153.586 22.7479C153.995 22.9477 154.369 23.0649 154.603 23.0668C154.806 23.0684 155.198 23.1483 155.473 23.2443C156.121 23.4701 156.662 23.4706 157.086 23.2457C157.376 23.0913 157.449 23.0833 157.609 23.1877C157.87 23.3578 158.02 23.6826 158.021 24.0827C158.022 24.2708 158.105 24.5839 158.205 24.7785C158.305 24.9731 158.387 25.2101 158.387 25.3053C158.387 25.4006 158.443 25.6153 158.512 25.7827C158.581 25.9502 158.665 26.3406 158.698 26.6507C158.732 26.9607 158.819 27.3554 158.892 27.5277C158.965 27.7 159.024 28.0261 159.024 28.2523C159.024 28.4785 159.106 28.8947 159.206 29.1771C159.421 29.7819 159.437 30.1319 159.26 30.3078C159.125 30.4417 157.519 30.5542 155.744 30.5542C154.777 30.5542 154.691 30.5906 154.047 31.2657C153.606 31.7283 153.281 31.9068 152.878 31.9068C152.46 31.9068 152.183 31.7477 151.633 31.1912L151.242 30.7961L145.016 30.8517L138.79 30.9073L138.322 31.2271L137.853 31.5469L136.807 31.545C135.953 31.5433 135.686 31.5093 135.354 31.3599C135.13 31.2592 134.915 31.1281 134.877 31.0686C134.839 31.0091 134.807 30.6152 134.805 30.1933C134.804 29.5918 134.766 29.3697 134.629 29.1644C134.495 28.9618 134.475 28.8514 134.543 28.6751C134.655 28.3836 134.585 28.2078 134.358 28.2078C133.876 28.2078 134.143 27.4281 134.677 27.275C134.823 27.2334 135.126 27.1449 135.351 27.0784C135.576 27.0119 136.007 26.9317 136.307 26.9003C136.607 26.8689 137.017 26.7873 137.218 26.719C137.418 26.6507 138.114 26.5757 138.765 26.5524C139.567 26.5237 140.059 26.4631 140.29 26.3649C140.604 26.2318 140.66 26.2318 140.973 26.3656C141.449 26.5684 143.358 26.5683 143.839 26.3655C144.025 26.2868 144.365 26.2224 144.596 26.2224C145.014 26.2224 145.84 25.9405 146.092 25.7118C146.208 25.6059 146.205 25.5709 146.066 25.4328C145.914 25.2823 145.889 25.2845 145.55 25.4779C145.211 25.6711 145.1 25.6809 143.248 25.6809H141.301L140.853 25.3651C140.607 25.1914 140.353 25.0492 140.289 25.0492C140.225 25.0492 139.995 24.8868 139.777 24.6882C139.56 24.4897 139.339 24.3273 139.286 24.3273C139.186 24.3273 138.677 23.9054 138.048 23.3025C137.848 23.1112 137.436 22.8275 137.132 22.6722C136.829 22.5168 136.549 22.3485 136.511 22.2981C136.42 22.1781 136.514 21.7931 136.678 21.6127C136.75 21.5344 136.808 21.3865 136.808 21.284C136.808 21.0474 136.969 20.9881 137.613 20.9881C137.957 20.9881 138.245 21.0488 138.47 21.1686C138.657 21.2679 138.903 21.3491 139.017 21.3491C139.13 21.3491 139.376 21.4304 139.563 21.5296C139.75 21.6289 140.041 21.7101 140.209 21.7101C140.498 21.7101 142.276 22.5279 142.626 22.822C142.706 22.889 142.935 23.0241 143.136 23.1222C143.974 23.5328 144.969 24.078 145.139 24.22C145.404 24.4421 146.042 24.735 146.847 25.0046C147.543 25.2376 147.58 25.2403 149.214 25.1772C150.571 25.1249 150.933 25.0825 151.192 24.9458C151.367 24.8538 151.613 24.777 151.739 24.7753C152.055 24.7709 153.516 24.04 153.516 23.8859C153.516 23.8168 153.443 23.7153 153.354 23.6602C153.227 23.5816 153.117 23.6035 152.835 23.7632C152.639 23.8749 152.394 23.9663 152.291 23.9663C152.188 23.9663 151.951 24.0475 151.764 24.1468C151.539 24.2662 151.25 24.3273 150.91 24.3273C150.628 24.3273 150.249 24.3882 150.07 24.4626C149.89 24.5371 149.494 24.598 149.191 24.598C148.887 24.598 148.491 24.5371 148.312 24.4626C148.132 24.3882 147.88 24.3273 147.753 24.3273C147.625 24.3273 147.271 24.2092 146.967 24.0649C146.663 23.9207 146.059 23.6371 145.626 23.4349C145.193 23.2327 144.722 22.9731 144.579 22.8581C144.436 22.7431 144.053 22.5213 143.727 22.3653C143.401 22.2093 142.995 21.9574 142.823 21.8056C142.651 21.6538 142.474 21.5296 142.43 21.5296C142.385 21.5296 142.067 21.3672 141.725 21.1686C141.382 20.9701 141.006 20.8074 140.889 20.807C140.773 20.8068 140.555 20.7258 140.404 20.6272C140.254 20.5285 140.07 20.4462 139.995 20.4442C139.919 20.4422 139.694 20.3621 139.494 20.2662C139.293 20.1702 138.985 20.0905 138.807 20.0888C138.397 20.0849 137.682 19.7312 137.641 19.5121C137.624 19.418 137.729 19.2202 137.88 19.0609C138.029 18.9048 138.175 18.6714 138.206 18.542C138.249 18.3579 138.372 18.2651 138.772 18.1134C139.204 17.9496 139.481 17.919 140.572 17.9147C141.622 17.9107 141.937 17.8781 142.271 17.7393C142.611 17.5979 142.921 17.5681 144.092 17.5644C145.352 17.5604 145.532 17.5792 145.776 17.7393ZM159.115 22.7028C159.115 22.8352 159.054 22.8833 158.888 22.8833C158.673 22.8833 158.582 22.7195 158.721 22.5825C158.856 22.4479 159.115 22.5268 159.115 22.7028ZM137.065 23.7838C137.399 23.9812 137.814 24.2857 137.987 24.4606C138.16 24.6354 138.352 24.7785 138.414 24.7785C138.476 24.7785 138.662 24.9039 138.828 25.0573C138.994 25.2107 139.222 25.3981 139.334 25.4738C139.526 25.6025 139.623 25.9447 139.471 25.9574C138.849 26.0089 135.233 25.9818 135.198 25.9254C135.171 25.8826 135.219 25.6658 135.305 25.4436C135.391 25.2215 135.439 24.9591 135.413 24.8605C135.384 24.7475 135.448 24.5942 135.586 24.4459C135.707 24.3165 135.806 24.1525 135.806 24.0815C135.806 23.9539 136.283 23.4248 136.398 23.4248C136.431 23.4248 136.731 23.5863 137.065 23.7838ZM160.026 23.6926C160.026 23.9225 159.435 24.5077 159.203 24.5077C158.923 24.5077 158.978 24.1163 159.304 23.7927C159.631 23.4692 160.026 23.4143 160.026 23.6926ZM159.753 25.4931C159.753 25.7621 159.654 25.9517 159.515 25.9517C159.321 25.9517 159.318 25.5111 159.511 25.389C159.683 25.2802 159.753 25.31 159.753 25.4931ZM125.062 26.8709C125.062 26.9948 124.702 27.3956 124.591 27.3956C124.471 27.3956 124.504 27.182 124.658 26.9645C124.808 26.7511 125.062 26.6923 125.062 26.8709ZM160.026 27.3054C160.026 27.4957 159.893 27.5482 159.798 27.3956C159.732 27.2891 159.818 27.1249 159.94 27.1249C159.987 27.1249 160.026 27.2061 160.026 27.3054ZM124.313 28.0443C124.257 28.2116 124.061 28.2393 124.061 28.08C124.061 28.0014 124.126 27.9371 124.205 27.9371C124.284 27.9371 124.333 27.9853 124.313 28.0443ZM123.814 28.8621C123.837 28.9242 123.776 29.0619 123.678 29.1683C123.581 29.2747 123.432 29.4834 123.348 29.6321C122.842 30.5283 122.633 30.8225 122.5 30.8237C122.221 30.8261 122.258 30.591 122.619 30.0527C123.007 29.4739 123.613 28.7512 123.712 28.75C123.745 28.7497 123.791 28.8001 123.814 28.8621ZM134.206 30.4329C134.24 30.5227 134.167 30.7207 134.021 30.9292C133.698 31.3916 133.372 31.3974 133.611 30.9365C133.656 30.8503 133.737 30.6681 133.791 30.5317C133.902 30.2552 134.117 30.2038 134.206 30.4329ZM137.939 33.2229C138.03 33.3132 138.082 33.5252 138.082 33.8059C138.082 34.1709 138.126 34.287 138.333 34.4786C138.471 34.6059 138.737 34.7563 138.926 34.8127C139.346 34.9386 139.363 34.9607 139.653 35.7434C140.021 36.7378 140.635 37.8048 141.155 38.3561C141.418 38.6345 141.633 38.9099 141.633 38.9682C141.633 39.111 142.187 39.6691 142.329 39.6691C142.391 39.6691 142.577 39.7926 142.743 39.9436C143.128 40.2941 143.71 40.6197 144.444 40.8953C144.956 41.0875 145.17 41.1127 146.265 41.11C147.301 41.1074 147.566 41.0781 147.87 40.9325C148.071 40.8366 148.289 40.7568 148.355 40.7551C148.681 40.7468 149.601 40.0741 150.333 39.3081C151.027 38.5825 151.194 38.3811 151.194 38.2706C151.194 38.2109 151.325 37.9833 151.486 37.7649C151.86 37.2553 152.123 36.7227 152.412 35.8855C152.776 34.8306 153.015 34.7317 153.433 35.4625C153.538 35.6459 153.815 35.9933 154.048 36.2344C154.497 36.6986 154.573 36.9722 154.327 37.241C154.168 37.4154 154.122 37.3147 154.82 38.3301C154.979 38.5616 155.109 38.7876 155.109 38.8322C155.109 38.8768 154.986 39.0301 154.836 39.1727C154.686 39.3154 154.563 39.4832 154.563 39.5455C154.563 39.608 154.418 39.8136 154.242 40.0025C153.872 40.3983 153.766 40.697 153.926 40.8886C154.089 41.0827 154.127 41.066 154.571 40.6074C154.792 40.3789 155.091 40.0844 155.236 39.9531C155.382 39.8217 155.566 39.6474 155.646 39.5657C155.726 39.484 155.935 39.3529 156.111 39.2743C156.286 39.1956 156.496 39.0827 156.578 39.0234C156.699 38.9361 156.821 38.9609 157.216 39.1531C158.022 39.5454 158.391 39.6691 158.756 39.6691C158.946 39.6691 159.165 39.7316 159.242 39.8082C159.369 39.9333 159.365 39.992 159.203 40.3981C159.09 40.6829 159.024 41.0648 159.024 41.4351C159.024 41.7575 158.963 42.1671 158.888 42.3453C158.812 42.5235 158.751 42.7488 158.751 42.8461C158.751 43.0579 158.316 44.332 158.157 44.5875C158.095 44.6868 158.016 44.8898 157.982 45.0387C157.948 45.1876 157.806 45.4516 157.667 45.6253C157.527 45.7991 157.34 46.0833 157.25 46.2571C157.025 46.6911 156.078 47.5908 155.448 47.9682C155.161 48.14 154.927 48.3132 154.927 48.353C154.927 48.3928 154.691 48.5269 154.403 48.6511C154.115 48.7752 153.728 48.9574 153.543 49.056C153.358 49.1545 153.129 49.2352 153.034 49.2352C152.939 49.2352 152.61 49.3601 152.301 49.5127C151.691 49.8151 150.962 49.9526 149.953 49.9553C149.586 49.9563 149.162 50.016 148.977 50.0925C148.567 50.2623 148.11 50.265 147.667 50.1002C147.479 50.03 146.845 49.9504 146.26 49.9233C145.616 49.8935 145.064 49.8193 144.86 49.7351C144.676 49.6587 144.437 49.5962 144.33 49.5962C144.222 49.5962 143.982 49.515 143.795 49.4157C143.608 49.3164 143.309 49.2352 143.131 49.2352C142.952 49.2352 142.573 49.1297 142.288 49.0007C141.338 48.5707 141.197 48.5132 141.091 48.5132C141.034 48.5132 140.835 48.4336 140.65 48.3362C140.465 48.239 139.924 47.9778 139.448 47.7559C138.973 47.534 138.443 47.2278 138.271 47.0755C138.099 46.9232 137.903 46.7985 137.835 46.7985C137.724 46.7985 137.066 46.2357 136.478 45.6392C136.364 45.5226 136.225 45.2993 136.17 45.1428C136.114 44.9863 135.945 44.7612 135.794 44.6426L135.519 44.4269L135.048 44.885C134.781 45.1444 134.459 45.3671 134.304 45.3985C134.154 45.4289 133.814 45.5217 133.549 45.6046C133.103 45.7444 133.036 45.7447 132.639 45.6085C132.403 45.5277 132.082 45.4356 131.927 45.4037C131.614 45.3397 131.13 44.916 130.928 44.5286C130.856 44.3909 130.675 43.9154 130.525 43.472C130.254 42.6699 130.252 42.6552 130.253 40.6033C130.254 38.6222 130.262 38.5229 130.47 38.0802C130.643 37.7123 130.768 37.5803 131.09 37.4259C131.312 37.3195 131.584 37.2325 131.695 37.2325C132.026 37.2325 132.507 37.4735 132.57 37.6709C132.647 37.9129 132.966 38.0106 133.134 37.844C133.235 37.7445 133.243 37.6584 133.169 37.4678C133.117 37.3319 133.074 37.0914 133.074 36.9333C133.074 36.7752 132.992 36.524 132.893 36.3751C132.789 36.2195 132.711 35.9508 132.711 35.7434C132.71 35.536 132.632 35.2673 132.528 35.1117C132.108 34.482 132.438 33.916 133.575 33.3197C134.024 33.084 134.052 33.0811 135.913 33.0811C137.504 33.0811 137.819 33.1032 137.939 33.2229ZM152.743 42.8329C152.569 42.9293 152.346 43.0082 152.248 43.0082C152.024 43.0082 151.579 43.3122 151.295 43.6588C151.094 43.904 151.089 43.9356 151.226 44.0711C151.362 44.2066 151.407 44.206 151.807 44.064C152.089 43.964 152.681 43.8895 153.501 43.8509C154.768 43.7914 155.018 43.7194 155.018 43.4143C155.018 43.2143 154.749 43.0082 154.488 43.0076C154.354 43.0073 154.121 42.9264 153.971 42.8277C153.629 42.6032 153.155 42.6052 152.743 42.8329ZM136.79 47.5162C136.975 47.613 137.68 47.9582 138.356 48.2833C139.032 48.6082 139.81 48.9908 140.086 49.1334C141.322 49.7733 142.694 50.4105 142.833 50.4095C142.917 50.4088 143.049 50.4709 143.127 50.5475C143.253 50.6726 143.249 50.7322 143.084 51.1464C142.983 51.3994 142.841 51.6911 142.768 51.7946C142.685 51.9116 142.635 52.1994 142.635 52.5559C142.635 53.1047 142.606 53.1777 141.964 54.2731C141.594 54.9023 141.267 55.4983 141.235 55.5975C141.204 55.6968 141.082 55.8978 140.963 56.0442C140.753 56.3041 140.739 56.3076 140.363 56.196C140.057 56.1052 139.721 55.827 138.734 54.846C137.258 53.3795 136.767 52.843 136.59 52.5035C136.518 52.3651 136.27 52.0566 136.039 51.8178C135.809 51.579 135.559 51.2682 135.486 51.127C135.412 50.9859 135.145 50.6 134.893 50.2695L134.434 49.6685L134.626 49.3842C134.732 49.2278 134.887 48.984 134.971 48.8426C135.315 48.2624 135.645 47.8674 136.002 47.6111C136.21 47.462 136.396 47.34 136.416 47.34C136.437 47.34 136.605 47.4193 136.79 47.5162ZM152.514 52.0568C153.388 52.9469 153.527 53.2116 153.209 53.3798C153.116 53.4294 152.796 53.7049 152.499 53.9922C151.568 54.8903 151.113 55.273 150.76 55.4521C150.573 55.5472 150.321 55.7306 150.199 55.8595C149.86 56.2196 149.64 56.1632 149.35 55.6413C149.037 55.0784 149.008 54.2639 149.282 53.7024C149.475 53.3048 149.531 52.2188 149.377 51.8195C149.299 51.6161 149.328 51.5719 149.673 51.3612C150.019 51.1505 150.132 51.1304 150.852 51.1517L151.649 51.1755L152.514 52.0568ZM153.625 51.2019C153.784 51.302 154.099 52.0398 154.044 52.1822C153.967 52.3805 153.78 52.3208 153.66 52.0593C153.598 51.9249 153.469 51.7602 153.372 51.6931C153.175 51.5559 153.138 51.2591 153.311 51.1901C153.475 51.1244 153.503 51.1255 153.625 51.2019ZM117.982 52.4285C118.087 52.5869 118.067 52.6339 117.824 52.7916C117.699 52.8729 117.596 53.0244 117.596 53.1284C117.596 53.2824 117.558 53.3059 117.391 53.2559C116.993 53.1365 116.914 53.157 116.885 53.3865C116.862 53.5755 116.699 53.6886 115.884 54.0821C115.348 54.3406 114.729 54.6153 114.508 54.6925C114.287 54.7697 114.058 54.8724 114 54.9207C113.941 54.969 113.714 55.071 113.495 55.1475C113.277 55.2239 113.033 55.3449 112.953 55.4162C112.874 55.4875 112.524 55.6944 112.175 55.8759C111.826 56.0573 111.39 56.2849 111.206 56.3815C110.809 56.5894 110.282 56.5734 110.24 56.3521C110.219 56.2442 110.47 56.0771 111.166 55.7343C111.691 55.4757 112.249 55.1505 112.406 55.0114C112.563 54.8724 112.879 54.7119 113.108 54.6546C113.337 54.5974 113.693 54.4151 113.899 54.2496C114.105 54.0841 114.547 53.8227 114.881 53.6686C115.216 53.5146 115.515 53.3483 115.546 53.2991C115.625 53.1717 116.656 52.5839 117.141 52.3892C117.55 52.2248 117.856 52.239 117.982 52.4285ZM166.222 53.286C166.996 53.6774 167.874 54.1271 168.175 54.2852C168.475 54.4434 168.936 54.6541 169.199 54.7534C169.694 54.9402 169.899 55.1637 169.803 55.4123C169.758 55.5279 169.656 55.5457 169.28 55.5036C168.526 55.4192 168.456 55.3908 168.293 55.1037C168.207 54.9535 168.084 54.8304 168.018 54.8304C167.953 54.8304 167.746 54.7492 167.559 54.65C167.372 54.5507 167.139 54.4695 167.041 54.4695C166.773 54.4695 165.288 53.6709 165.075 53.4124C164.908 53.2089 164.878 53.2011 164.768 53.3318C164.531 53.6154 164.032 53.4567 164.032 53.0977C164.032 52.8698 164.356 52.5743 164.606 52.5743C164.721 52.5743 165.449 52.8946 166.222 53.286ZM136.514 53.2794C136.534 53.3383 136.485 53.3865 136.406 53.3865C136.326 53.3865 136.261 53.3223 136.261 53.2436C136.261 53.0843 136.458 53.112 136.514 53.2794ZM137.065 53.8242C137.168 54.1082 139.326 56.2744 139.506 56.2744C139.574 56.2744 139.702 56.3455 139.791 56.4323C140.135 56.7713 140.483 56.9964 140.663 56.9964C140.864 56.9964 141.451 56.489 141.451 56.3154C141.451 56.258 141.573 56.0452 141.721 55.8425C141.869 55.6397 142.051 55.3291 142.126 55.1521C142.268 54.8156 142.486 54.7297 142.58 54.9732C142.691 55.2596 142.631 55.9177 142.453 56.3646C142.353 56.6165 142.271 56.9338 142.271 57.0699C142.271 57.2059 142.207 57.4081 142.128 57.5191C142.05 57.6302 141.847 58.11 141.678 58.5854C141.337 59.5432 141.147 59.8842 140.955 59.8842C140.884 59.8842 140.802 59.8075 140.772 59.7138C140.742 59.6201 140.626 59.4437 140.515 59.322C139.836 58.5769 139.63 58.3236 139.63 58.2298C139.63 58.1719 139.448 57.9343 139.226 57.7019C139.004 57.4695 138.752 57.1446 138.667 56.9799C138.582 56.8152 138.375 56.5281 138.207 56.3418C138.038 56.1555 137.9 55.9497 137.9 55.8844C137.9 55.8191 137.755 55.606 137.577 55.4109C137.096 54.8847 136.514 53.8654 136.578 53.6642C136.654 53.4262 136.957 53.5257 137.065 53.8242ZM154.106 53.8248C154.104 54.0058 153.798 54.3013 153.406 54.5013C152.88 54.7696 152.765 54.6247 153.141 54.1685C153.574 53.645 154.11 53.4539 154.106 53.8248ZM152.742 54.8632C152.742 55.0063 151.887 55.8232 151.738 55.8232C151.628 55.8232 151.018 56.3856 149.707 57.695C148.552 58.8491 148.446 58.8371 148.326 57.5378C148.238 56.5812 148.627 55.8269 148.925 56.378C149.066 56.6389 149.378 56.8993 149.555 56.9027C149.63 56.9041 149.847 56.7633 150.038 56.5898C150.229 56.4163 150.435 56.2744 150.498 56.2744C150.56 56.2744 150.834 56.0774 151.107 55.8367C151.38 55.5959 151.727 55.3361 151.877 55.2593C152.027 55.1825 152.228 55.0343 152.323 54.9299C152.52 54.7148 152.742 54.6794 152.742 54.8632ZM146.313 75.8157C146.418 75.9204 146.431 76.0098 146.365 76.1826C146.247 76.4883 146.254 77.1182 146.378 77.4703C146.433 77.6275 146.452 77.8595 146.42 77.9859C146.373 78.1713 146.315 78.2101 146.117 78.1873C145.788 78.1495 145.624 77.824 145.751 77.4625C145.818 77.2736 145.815 77.0943 145.743 76.8542C145.599 76.3792 145.614 75.9861 145.783 75.8191C145.963 75.6401 146.134 75.639 146.313 75.8157ZM144.638 75.9463C144.638 76.068 144.558 76.1424 144.388 76.1794C143.966 76.271 143.908 76.3 143.852 76.4435C143.787 76.6111 143.97 76.8505 144.163 76.8505C144.374 76.8505 144.911 77.2902 145.008 77.5421C145.064 77.687 145.06 77.8268 144.998 77.9422C144.85 78.2156 144.183 78.6556 143.919 78.6541C143.532 78.6519 143.227 78.4521 143.227 78.2015C143.227 77.9749 143.303 77.9524 143.682 78.0674C143.974 78.1558 144.201 77.9242 144.201 77.5391C144.201 77.1204 143.966 76.833 143.682 76.9037C143.406 76.9724 143.181 76.7264 143.181 76.3541C143.181 75.8953 143.371 75.7675 144.053 75.7675C144.576 75.7675 144.638 75.7867 144.638 75.9463ZM138.66 76.4095C138.879 76.6485 138.909 76.7404 138.86 77.0189C138.827 77.1993 138.718 77.4613 138.617 77.6013C138.391 77.9117 138.448 78.0923 138.81 78.2173C139.011 78.2869 139.084 78.3692 139.084 78.5266C139.084 78.8294 138.671 79.0164 138.002 79.0164C137.068 79.0164 136.93 78.5895 137.641 77.8988C138.156 77.3987 138.295 77.1619 138.228 76.8977C138.153 76.6041 137.794 76.5099 137.493 76.7052C137.175 76.912 136.971 76.8931 137.006 76.6602C137.024 76.5429 137.193 76.3856 137.445 76.25C137.955 75.9763 138.304 76.0221 138.66 76.4095ZM135.967 76.5392C136.078 76.6162 136.213 76.7612 136.267 76.8612C136.382 77.0732 136.245 77.3242 135.744 77.8207C135.334 78.2273 135.395 78.388 136.011 78.5163C136.176 78.5509 136.261 78.6261 136.261 78.7377C136.261 78.964 136.09 79.0164 135.351 79.0164C135.009 79.0164 134.664 78.9918 134.585 78.9616C134.267 78.841 134.493 78.4528 135.244 77.8288C135.72 77.4331 135.553 76.9408 134.942 76.9408C134.38 76.9408 134.149 76.7045 134.509 76.4967C134.762 76.3504 135.736 76.3787 135.967 76.5392ZM129.797 76.9719C129.797 77.0387 129.715 77.1668 129.615 77.2566C129.377 77.4699 129.385 77.5869 129.655 77.8382C129.851 78.0207 129.912 78.0332 130.169 77.9442C130.475 77.8386 132.317 77.8031 132.566 77.898C132.779 77.9789 132.741 78.1945 132.506 78.2421C132.393 78.2648 131.905 78.3027 131.421 78.3264C130.415 78.3754 129.473 78.658 129.384 78.9374C129.307 79.1752 129.098 79.1479 128.834 78.8655C128.369 78.368 128.429 78.0509 129.129 77.3138C129.564 76.8556 129.797 76.7364 129.797 76.9719ZM181.964 78.5626C182.163 78.6681 182.441 79.3181 182.368 79.5066C182.34 79.5807 182.248 79.6593 182.165 79.6813C181.161 79.9479 180.572 80.1694 180.496 80.3095C180.433 80.4259 180.449 80.5795 180.551 80.8303C180.661 81.1051 180.694 81.5328 180.694 82.7119C180.694 84.4989 180.685 84.5214 179.92 84.5214C179.137 84.5214 179.146 84.5466 179.146 82.3104C179.146 80.6786 179.124 80.3613 179.003 80.2411C178.896 80.1349 178.67 80.0994 178.099 80.0994C177.211 80.0994 177.052 80.0033 177.052 79.4676C177.052 78.8871 177.171 78.8364 178.538 78.8329C179.486 78.8307 179.843 78.7933 180.239 78.6554C180.775 78.4684 181.693 78.419 181.964 78.5626ZM175.277 79.0688C175.951 79.4139 176.172 79.6914 176.114 80.1192C176.088 80.3107 176.017 80.5268 175.957 80.5992C175.816 80.7667 175.354 80.7708 175.258 80.6055C175.178 80.4673 174.564 80.1896 174.338 80.1896C174.169 80.1896 173.774 80.5374 173.774 80.686C173.774 80.9267 174.381 81.2884 175.759 81.8685C176.323 82.1055 176.506 82.4468 176.506 83.258C176.506 84.2721 176.257 84.5808 175.088 85.0168C174.391 85.2769 173.561 85.3197 173.26 85.1112C173.155 85.0384 172.839 84.8936 172.558 84.7893C172.277 84.6849 172.011 84.5361 171.967 84.4586C171.864 84.2766 172.207 83.258 172.371 83.258C172.437 83.258 172.601 83.3595 172.736 83.4836C172.961 83.6905 173.051 83.7092 173.827 83.7092C174.474 83.7092 174.705 83.6759 174.815 83.5674C174.967 83.4167 174.999 83.1839 174.888 83.0283C174.774 82.8676 174.113 82.52 173.676 82.3906C173.149 82.235 172.539 81.832 172.311 81.4904C172.1 81.1717 172.06 79.9648 172.254 79.7029C172.319 79.6148 172.698 79.3848 173.096 79.1918C174.01 78.7488 174.589 78.7162 175.277 79.0688ZM129.83 79.3956C129.883 79.4801 129.899 79.577 129.865 79.6109C129.787 79.6886 129.342 79.4061 129.342 79.2788C129.342 79.1326 129.721 79.2233 129.83 79.3956ZM165.892 80.3314C166.005 80.443 166.035 80.6829 166.035 81.4561C166.035 82.2263 166.074 82.5382 166.217 82.897C166.381 83.3094 166.399 83.5719 166.402 85.54C166.405 87.4646 166.426 87.7844 166.581 88.2215C166.829 88.9198 166.834 90.191 166.59 90.4902C166.426 90.6911 166.348 90.705 165.237 90.7328C163.742 90.7702 163.759 90.7829 163.759 89.6249C163.759 89.0491 163.712 88.6752 163.61 88.4356C163.488 88.1502 163.453 87.6395 163.42 85.6495C163.391 83.9319 163.343 83.1063 163.256 82.8519C163.068 82.3024 163.017 80.4867 163.184 80.3207C163.384 80.1226 165.69 80.1316 165.892 80.3314ZM160.809 80.6282C160.838 80.7592 160.917 81.0289 160.984 81.2274C161.059 81.4498 161.125 82.2514 161.157 83.3143C161.193 84.4978 161.25 85.1365 161.338 85.347C161.438 85.5829 161.471 86.2165 161.483 88.0883C161.491 89.4273 161.495 90.5892 161.49 90.6704C161.478 90.91 160.923 91.1094 160.269 91.1094C159.528 91.1094 159.388 91.2243 159.388 91.8344C159.388 92.0773 159.306 92.4819 159.206 92.7338C158.987 93.2859 158.981 93.4006 159.167 93.5847C159.387 93.8022 160.476 93.778 160.912 93.546C161.099 93.4468 161.355 93.3653 161.481 93.3649C161.607 93.3646 161.833 93.2837 161.983 93.1851C162.222 93.0285 162.412 93.0056 163.487 93.0052C164.544 93.0046 164.765 93.03 165.057 93.1851C165.298 93.3131 165.571 93.3655 165.996 93.3655C166.721 93.3655 167.169 93.1422 167.993 92.3708C168.294 92.0893 168.683 91.786 168.858 91.6971C169.033 91.6081 169.297 91.4355 169.444 91.3134C169.7 91.1015 170.608 90.6582 170.786 90.6582C170.896 90.6582 171.63 90.3458 172.062 90.1156C172.248 90.017 172.514 89.9359 172.654 89.9356C172.795 89.9353 173.032 89.8543 173.182 89.7557C173.333 89.6571 173.547 89.5761 173.658 89.5758C173.769 89.5755 174.021 89.4917 174.219 89.3897C174.554 89.2165 174.707 89.206 176.525 89.2317L178.471 89.2593L178.856 89.5619C179.454 90.0316 179.51 89.9259 179.511 88.3233C179.512 87.1375 179.533 86.9621 179.716 86.5997C179.828 86.3778 180.004 86.1544 180.106 86.1033C180.208 86.0523 180.498 85.8785 180.751 85.7172C181.004 85.5559 181.31 85.4236 181.431 85.4233C181.551 85.423 181.773 85.342 181.923 85.2434C182.137 85.1034 182.351 85.064 182.902 85.0635C183.502 85.063 183.675 85.1001 184.06 85.3111C184.761 85.695 184.847 85.9792 184.915 88.1242C184.957 89.4374 185.009 89.9807 185.124 90.2901C185.341 90.8737 185.403 90.9289 185.837 90.9289C186.345 90.9289 186.498 90.8109 187.682 89.5041C187.861 89.3073 187.887 89.1794 187.887 88.5123C187.887 87.631 187.995 87.3895 188.632 86.8509C188.848 86.6677 189.185 86.3726 189.38 86.1949C189.575 86.0173 189.841 85.8508 189.972 85.825C190.102 85.7991 190.36 85.6983 190.546 85.601C190.84 85.4463 191.067 85.4239 192.344 85.4239C193.632 85.4239 193.847 85.4024 194.146 85.2434C194.455 85.0791 194.66 85.0629 196.415 85.0629H198.344L198.738 85.3601C199.258 85.7524 199.375 86.1601 199.111 86.6559C199.009 86.8469 198.779 87.281 198.599 87.6205C198.419 87.96 198.097 88.3913 197.884 88.5788C197.554 88.8693 197.514 88.9406 197.614 89.0602C197.707 89.1714 197.986 89.2065 198.963 89.2299C200.184 89.2591 200.197 89.2615 200.415 89.5126C200.613 89.7417 200.634 89.8472 200.634 90.6228C200.634 91.2933 200.596 91.5523 200.459 91.8135C200.279 92.1544 199.85 93.0691 199.602 93.6363C199.527 93.81 199.278 94.1452 199.05 94.3812C198.822 94.6172 198.567 94.9421 198.483 95.1031C198.399 95.2642 198.098 95.6194 197.814 95.8924C196.45 97.2039 196.13 97.3747 195.146 97.3196C194.537 97.2855 194.492 97.2676 194.207 96.9401C193.732 96.3959 193.734 96.2158 194.222 95.2956C194.455 94.8545 194.765 94.3333 194.909 94.1374C195.188 93.7585 195.24 93.47 195.062 93.2933C194.984 93.2164 194.43 93.1851 193.147 93.1851C191.748 93.1851 191.268 93.1545 191.014 93.0497C190.459 92.8198 190.113 92.8798 189.144 93.3743C188.959 93.4688 188.754 93.5474 188.689 93.5491C188.623 93.5508 188.406 93.6306 188.206 93.7265C188.006 93.8225 187.729 93.9022 187.591 93.9039C187.453 93.9057 187.187 93.9882 187 94.0875C186.814 94.1868 186.573 94.268 186.466 94.268C186.128 94.268 186.023 94.4909 186.192 94.8451C186.273 95.0143 186.339 95.2111 186.339 95.2825C186.339 95.3539 186.471 95.6727 186.632 95.9908C187.167 97.0458 187.048 98.3135 186.374 98.7502C186.233 98.8412 186.019 99.0066 185.898 99.1178C185.612 99.3797 185.153 99.5021 184.473 99.4979C183.615 99.4924 183.199 99.3761 182.706 99.0035C182.325 98.7154 182.168 98.4966 181.744 97.6594C181.466 97.1095 181.239 96.5732 181.239 96.4675C181.241 96.1347 181.015 96.0298 180.658 96.1977C180.488 96.278 180.272 96.3443 180.18 96.345C179.808 96.3481 179.759 96.4712 179.728 97.4712C179.702 98.3098 179.664 98.5033 179.445 98.9438C179.065 99.7063 178.422 100.289 177.41 100.788C176.687 101.146 176.458 101.217 176.034 101.217C175.755 101.217 175.379 101.278 175.2 101.352C175.02 101.427 174.645 101.488 174.366 101.488C174.088 101.488 173.712 101.427 173.533 101.352C173.353 101.278 172.934 101.215 172.602 101.213C172.27 101.211 171.835 101.146 171.635 101.07C171.434 100.993 171.104 100.901 170.9 100.865C170.697 100.829 170.432 100.731 170.311 100.647C170.19 100.563 170.014 100.495 169.918 100.495C169.538 100.495 168.441 99.8551 167.902 99.318C167.492 98.9104 167.301 98.7807 167.137 98.7999C166.892 98.8286 166.912 98.7984 166.392 99.9084C166.182 100.355 165.879 100.883 165.717 101.082C165.556 101.28 165.395 101.534 165.359 101.645C165.324 101.757 165.103 101.959 164.868 102.095C164.634 102.231 164.348 102.452 164.233 102.587C163.791 103.105 163.126 103.485 161.963 103.885C161.001 104.215 160.685 104.285 160.137 104.285C159.752 104.285 159.336 104.228 159.147 104.15C158.967 104.076 158.733 104.013 158.626 104.012C158.261 104.006 156.67 103.41 156.383 103.171C156.226 103.039 156.069 102.932 156.035 102.931C156.002 102.931 155.626 102.607 155.2 102.21C154.774 101.813 154.369 101.488 154.3 101.488C153.967 101.487 153.39 101.091 153.239 100.759C153.092 100.434 153.091 100.391 153.236 100.034C153.32 99.8246 153.448 99.5699 153.521 99.4676C153.625 99.3201 153.652 98.8954 153.652 97.413C153.652 95.7686 153.633 95.5258 153.496 95.3897C153.356 95.2511 153.169 95.2402 151.698 95.2854C150.496 95.3224 149.965 95.3741 149.717 95.4787C149.443 95.5947 149 95.6217 147.376 95.6217C145.588 95.6217 145.324 95.641 144.911 95.8022C144.492 95.9659 144.235 95.9827 142.142 95.9827C140.174 95.9827 139.783 96.0052 139.482 96.1355C139.193 96.2606 138.751 96.2941 137.035 96.3209C135.402 96.3465 134.861 96.3851 134.577 96.4962C134.289 96.6088 133.717 96.647 131.846 96.678C130.138 96.7065 129.386 96.7521 129.146 96.8419C128.919 96.9273 128.146 96.9846 126.688 97.0243C125.291 97.0624 124.436 97.124 124.197 97.204C123.948 97.2871 123.155 97.3375 121.689 97.3631C120.08 97.3912 119.49 97.432 119.322 97.5264C119.153 97.6216 118.49 97.6648 116.595 97.704C114.527 97.7468 114.032 97.7822 113.752 97.9071C113.472 98.0324 113.101 98.0583 111.589 98.0583C109.939 98.0583 109.733 98.0756 109.425 98.2388C109.108 98.4073 108.912 98.4193 106.478 98.4193C104.223 98.4193 103.822 98.4401 103.517 98.5727C103.225 98.6998 102.783 98.7317 100.934 98.7588C99.3582 98.7819 98.5961 98.828 98.3389 98.9154C98.1015 98.9961 97.3009 99.0587 96.0386 99.0954C94.7717 99.1322 94.0006 99.1927 93.8079 99.2704C93.6043 99.3524 92.7957 99.4045 91.1914 99.4388C89.3687 99.478 88.7969 99.5192 88.5311 99.6309C88.0689 99.825 86.8867 99.8252 86.6909 99.6312C86.4978 99.4397 86.5106 99.1167 86.7218 98.858C86.8947 98.6461 86.9086 98.6447 89.3395 98.5957C91.3751 98.5547 91.8398 98.5208 92.1218 98.3926C92.403 98.2648 92.7537 98.2388 94.1936 98.2388C95.7528 98.2388 95.9609 98.2207 96.2665 98.0583C96.5824 97.8906 96.7802 97.8778 99.0776 97.8778C101.2 97.8778 101.599 97.8563 101.902 97.7251C102.19 97.5999 102.632 97.5664 104.348 97.5396C105.787 97.517 106.542 97.4696 106.761 97.3877C106.97 97.3097 107.828 97.246 109.254 97.2029C110.647 97.1608 111.53 97.0961 111.712 97.023C111.903 96.9463 112.804 96.891 114.461 96.8543C116.261 96.8144 117.009 96.7656 117.238 96.6729C117.462 96.5818 118.155 96.5328 119.69 96.4993C121.372 96.4625 121.902 96.4215 122.168 96.3078C122.451 96.187 122.912 96.1632 124.969 96.1632C127.256 96.1632 127.454 96.1504 127.77 95.9827C128.076 95.8202 128.284 95.8022 129.853 95.8022C131.29 95.8022 131.657 95.7755 131.948 95.6495C132.243 95.5219 132.698 95.4914 134.714 95.4639C136.584 95.4385 137.207 95.4005 137.485 95.2948C137.759 95.1905 138.42 95.1474 140.307 95.111C142.007 95.0782 142.885 95.026 143.136 94.9427C143.36 94.8683 144.177 94.8012 145.264 94.7678C146.389 94.7333 147.098 94.6738 147.222 94.6036C147.355 94.5281 148.213 94.4775 149.965 94.442C152.077 94.3992 152.572 94.3644 152.853 94.2389C153.039 94.1556 153.367 94.0869 153.581 94.0862C154.058 94.0844 154.138 94.0367 154.328 93.6363C154.855 92.5295 155.286 92.0486 156.156 91.5945C157.392 90.9497 158.008 90.6582 158.137 90.6582C158.209 90.6582 158.338 90.5808 158.424 90.4863C158.562 90.3352 158.578 90.1328 158.552 88.8093C158.526 87.4422 158.507 87.2924 158.347 87.1762C158.118 87.0111 157.764 87.0138 157.354 87.1837C157.116 87.2821 156.68 87.3191 155.756 87.3191C154.722 87.3191 154.458 87.3455 154.341 87.4608C154.143 87.6575 154.138 89.4108 154.335 89.8772C154.519 90.3129 154.515 91.1438 154.329 91.3286C154.142 91.513 151.949 91.5374 151.727 91.3576C151.65 91.2956 151.499 91.0076 151.391 90.7178C151.207 90.2264 151.194 90.0254 151.191 87.7397C151.188 85.552 151.169 85.2352 151.012 84.7922C150.865 84.379 150.835 84.0424 150.833 82.7842C150.829 80.822 150.755 80.9116 152.371 80.9116C153.32 80.9116 153.576 80.9391 153.691 81.0534C153.81 81.1717 153.834 81.4611 153.834 82.7959C153.834 84.724 153.843 84.7445 154.623 84.7448C157.018 84.7456 157.924 84.6969 158.062 84.5601C158.182 84.4407 158.205 84.1351 158.205 82.6263C158.205 80.4722 158.167 80.5506 159.202 80.5506C159.605 80.5506 160.045 80.4961 160.215 80.4249C160.589 80.2692 160.74 80.3211 160.809 80.6282ZM147.412 81.5835C148.158 81.969 148.725 82.4074 148.83 82.6795C148.884 82.822 148.855 83.05 148.735 83.4107C148.64 83.6989 148.529 84.0933 148.489 84.287C148.39 84.7711 148.209 84.8644 147.767 84.659C147.574 84.5689 147.318 84.4003 147.2 84.2844C146.82 83.9129 145.928 83.5287 145.446 83.5287C145.087 83.5287 144.951 83.5786 144.687 83.8088C144.298 84.1474 144.277 84.4061 144.615 84.7208C144.965 85.0459 146.417 85.7849 146.707 85.7849C147.085 85.7849 148.471 86.494 148.826 86.8692C149.371 87.4445 149.646 88.0987 149.646 88.8185C149.646 89.2528 149.595 89.5381 149.477 89.757C149.384 89.9301 149.281 90.2185 149.248 90.3981C149.213 90.5868 149.06 90.8533 148.887 91.0298C148.457 91.4658 146.959 92.1923 146.488 92.1923C146.284 92.1923 145.97 92.2533 145.79 92.3277C145.604 92.4047 145.186 92.4631 144.82 92.4631C144.454 92.4631 144.036 92.4047 143.85 92.3277C143.67 92.2533 143.38 92.1923 143.204 92.1923C142.798 92.1923 141.635 91.6347 141.207 91.2353C140.936 90.9817 140.893 90.8915 140.944 90.6824C140.978 90.545 141.041 90.2498 141.084 90.0264C141.199 89.4317 141.513 88.763 141.677 88.763C141.754 88.763 142.167 88.9457 142.594 89.1691C143.022 89.3925 143.462 89.5755 143.572 89.5758C143.683 89.5761 143.896 89.6571 144.046 89.7557C144.617 90.1305 145.613 89.9218 146.345 89.2738C146.621 89.0298 146.603 88.8512 146.269 88.5127C145.977 88.2162 144.99 87.68 144.736 87.68C144.656 87.68 144.437 87.5988 144.25 87.4995C144.063 87.4003 143.795 87.3191 143.653 87.3191C143.505 87.3191 143.205 87.1849 142.947 87.0032C142.701 86.8295 142.449 86.6873 142.388 86.6873C142.15 86.6873 141.456 85.9134 141.273 85.4431C140.911 84.5152 141.085 83.113 141.624 82.6158C141.714 82.5329 141.865 82.3676 141.961 82.2484C142.056 82.1292 142.483 81.8612 142.908 81.653L143.682 81.2744L145.246 81.2735L146.81 81.2726L147.412 81.5835ZM135.929 82.2146C136.786 82.5059 137.129 82.7206 137.564 83.2398C137.66 83.354 137.917 83.6134 138.136 83.8162C138.513 84.1666 139.175 85.3205 139.175 85.627C139.175 85.7017 139.239 85.9155 139.318 86.1023C139.431 86.3698 139.455 86.7114 139.432 87.7151L139.403 88.9886L138.856 90.0703C138.288 91.1959 137.749 91.8551 137.152 92.1543C136.988 92.2365 136.767 92.3815 136.662 92.4765C136.557 92.5716 136.127 92.7698 135.707 92.9172C134.978 93.1728 134.874 93.1851 133.439 93.1851C132.016 93.1851 131.896 93.1712 131.207 92.9275C129.959 92.4858 129.809 92.3977 129.131 91.7099C128.48 91.0506 127.794 89.9493 127.794 89.5656C127.794 89.4712 127.712 89.2426 127.612 89.0573C127.456 88.7698 127.43 88.5488 127.43 87.546C127.431 86.5257 127.455 86.3359 127.612 86.1007C127.711 85.9518 127.793 85.7165 127.793 85.5776C127.794 85.1985 128.541 84.0019 129.135 83.4268C129.735 82.8469 130.331 82.4765 131.117 82.1959C131.817 81.9461 131.931 81.9334 133.621 81.9206C135 81.9102 135.053 81.917 135.929 82.2146ZM125.739 82.768C125.852 82.8804 125.882 83.1234 125.882 83.9348C125.882 85.2817 125.923 85.2434 124.467 85.2434H123.339L123.017 85.5235C122.629 85.8609 122.595 86.2289 122.877 87.0248C123.042 87.49 123.059 87.7697 123.059 89.9894C123.059 91.909 123.088 92.5215 123.192 92.8143C123.427 93.4748 123.358 93.5168 121.921 93.5818C121.42 93.6044 120.911 93.6361 120.79 93.6522C120.6 93.6774 120.543 93.6154 120.371 93.1949C120.194 92.7618 120.165 92.4712 120.107 90.5516C120.061 89.0087 120.005 88.3068 119.912 88.0855C119.827 87.8838 119.781 87.4473 119.781 86.8321C119.781 86.0941 119.75 85.8571 119.638 85.7462C119.434 85.5437 118.089 85.5518 117.5 85.7591C116.976 85.9434 116.606 85.857 116.444 85.5121C116.387 85.3891 116.311 84.9196 116.276 84.4686C116.189 83.332 116.167 83.3482 117.785 83.3482C118.88 83.3482 119.1 83.3235 119.393 83.1677C119.708 83.0003 119.911 82.987 122.193 82.9835C124.441 82.98 124.68 82.9648 124.971 82.8067C125.364 82.5939 125.553 82.5843 125.739 82.768ZM111.272 83.9308C111.395 84.0526 111.496 84.2219 111.496 84.3072C111.496 84.3924 111.624 84.7293 111.781 85.0558C112.277 86.0874 113.128 87.7871 113.547 88.5825C113.769 89.0044 113.951 89.3984 113.952 89.4581C113.953 89.5178 114.125 89.8833 114.333 90.2703C115.278 92.0247 116.033 93.5713 115.993 93.6729C115.887 93.9476 115.1 94.2075 114.251 94.2487C113.205 94.2994 113.093 94.237 112.638 93.3491C112.452 92.9867 112.252 92.66 112.194 92.6231C112.135 92.5863 111.341 92.5555 110.429 92.5547C108.776 92.5533 108.653 92.5709 107.951 92.9087C107.789 92.9868 107.741 93.0756 107.438 93.8619C107.304 94.2093 107.148 94.5235 107.091 94.56C107.035 94.5964 106.758 94.6268 106.476 94.6276C106.194 94.6284 105.817 94.6899 105.637 94.7644C105.308 94.9008 104.531 94.9464 104.265 94.8449C104.086 94.7769 104.084 94.5494 104.26 94.3185C104.334 94.2221 104.394 94.0393 104.394 93.9123C104.395 93.7853 104.476 93.5596 104.576 93.4107C104.675 93.2618 104.757 93.0384 104.758 92.9143C104.759 92.7902 104.902 92.2826 105.076 91.7862C105.249 91.2899 105.392 90.8222 105.393 90.747C105.395 90.6719 105.477 90.4588 105.577 90.2736C105.678 90.0883 105.76 89.8447 105.76 89.7321C105.76 89.6195 105.841 89.3759 105.942 89.1907C106.042 89.0054 106.124 88.7624 106.124 88.6505C106.125 88.5386 106.206 88.3253 106.306 88.1764C106.405 88.0275 106.487 87.7918 106.487 87.6528C106.488 87.5137 106.566 87.2497 106.661 87.0662C106.827 86.7475 106.956 86.3296 107.119 85.576C107.16 85.3865 107.258 85.1023 107.337 84.9442C107.416 84.7861 107.502 84.5491 107.53 84.4176C107.592 84.1188 107.956 83.9799 108.676 83.9799C108.964 83.9799 109.336 83.9206 109.505 83.8481C109.673 83.7756 110.09 83.7147 110.43 83.7127C110.968 83.7097 111.078 83.7381 111.272 83.9308ZM100.57 84.6304C100.845 84.7578 101.186 84.9688 101.327 85.0992C101.468 85.2296 101.726 85.3953 101.9 85.4674L102.217 85.5985L102.157 86.3009C102.091 87.0754 101.733 87.9508 101.482 87.9508C101.404 87.9508 101.197 87.8369 101.023 87.6977C100.375 87.1796 99.3035 86.6874 98.824 86.6874C98.5799 86.6873 97.8914 87.144 97.7173 87.4214C97.5074 87.7558 98.3769 88.3537 99.477 88.6315C99.6022 88.6631 100.175 88.9188 100.75 89.1998C101.823 89.7237 102.575 90.3245 102.759 90.805C102.877 91.1119 102.868 92.8761 102.747 93.3096C102.601 93.8309 101.57 94.8061 100.894 95.0625C100.607 95.1715 100.274 95.2607 100.155 95.2607C100.036 95.2607 99.7312 95.3419 99.477 95.4412C98.8496 95.6863 97.5946 95.6906 96.913 95.4501C96.6456 95.3557 96.1065 95.1835 95.7151 95.0672C94.4949 94.7049 94.0965 94.1794 94.4047 93.3391C94.4813 93.1303 94.563 92.7666 94.5864 92.5309C94.6569 91.8208 94.9526 91.6491 95.441 92.0344C96.0781 92.537 97.4031 93.0046 98.1904 93.0046C98.7439 93.0046 99.5998 92.7009 99.7623 92.4467C99.8564 92.2998 99.8622 91.8197 99.7716 91.6919C99.5985 91.4481 98.9574 91.1574 97.5757 90.6961C97.2061 90.5727 96.6324 90.3207 96.301 90.1363C95.9696 89.9518 95.5783 89.7399 95.4317 89.6655C94.9649 89.4286 94.4433 88.3207 94.4543 87.5898C94.4625 87.0441 94.6464 86.2092 94.7984 86.0278C95.2691 85.4656 96.0619 84.797 96.322 84.7428C96.4798 84.7099 96.8343 84.6055 97.1097 84.5108C97.5287 84.3666 97.8114 84.3433 98.8397 84.3685C99.9319 84.3953 100.125 84.4245 100.57 84.6304ZM132.073 84.7511C131.627 84.9865 131.163 85.4065 131.163 85.5749C131.163 85.6332 131.069 85.7956 130.956 85.9358C130.648 86.3145 130.405 87.1289 130.46 87.5991C130.562 88.4767 130.86 89.0659 131.555 89.7596C131.915 90.1196 132.342 90.469 132.503 90.5361C132.847 90.6795 133.889 90.6962 134.362 90.5659C134.762 90.4559 136.063 89.1963 136.131 88.8532C136.155 88.7291 136.241 88.4185 136.321 88.1629C136.401 87.9073 136.444 87.5824 136.416 87.441C136.235 86.518 135.828 85.544 135.481 85.1997C135.371 85.0912 135.095 84.8942 134.868 84.7619C134.485 84.5399 134.378 84.522 133.468 84.5281C132.611 84.534 132.43 84.5629 132.073 84.7511ZM196.674 85.793C196.282 85.9344 195.914 85.9581 194.051 85.9614C192.276 85.9646 191.835 85.9907 191.611 86.1055C191.46 86.1827 191.126 86.2705 190.869 86.3007C190.488 86.3454 190.324 86.4251 189.993 86.7246C188.888 87.7258 188.798 87.8601 188.798 88.4986C188.798 89.1168 188.719 89.3512 188.397 89.6941C188.265 89.8339 188.101 90.0817 188.033 90.2447C187.895 90.5717 187.18 91.3797 187.028 91.3809C186.975 91.3814 186.726 91.4817 186.476 91.6038C186.149 91.7633 185.866 91.8265 185.472 91.8286C184.497 91.8335 184.338 91.5512 184.337 89.8174C184.336 89.1514 184.295 88.6772 184.226 88.554C184.165 88.4456 184.093 87.8806 184.065 87.2985C184 85.9312 183.986 85.9144 182.879 85.9364C182.116 85.9516 182.032 85.9734 181.449 86.3059C181.109 86.5002 180.758 86.6847 180.67 86.716C180.367 86.8234 180.311 87.209 180.354 88.8984C180.386 90.1366 180.431 90.6026 180.545 90.8583C180.627 91.0429 180.694 91.3068 180.695 91.4449C180.695 91.583 180.777 91.8178 180.876 91.9667C181.101 92.3024 181.111 92.8425 180.899 93.2037C180.755 93.4494 179.974 93.907 179.698 93.907C179.645 93.907 179.448 93.9882 179.261 94.0875C179.074 94.1868 178.871 94.268 178.809 94.268C178.747 94.268 178.521 94.3594 178.307 94.4711C178.029 94.6159 177.748 94.6771 177.325 94.6844C176.695 94.6953 176.255 94.8702 175.764 95.3038C175.394 95.6302 175.403 96.1099 175.787 96.5305C175.942 96.7007 176.169 97.054 176.291 97.3155L176.513 97.7911L176.336 98.1878C176.238 98.4059 176.076 98.6284 175.974 98.6823C175.872 98.7363 175.448 98.7803 175.031 98.7803C174.446 98.7803 174.195 98.7389 173.933 98.5998C173.746 98.5005 173.488 98.4193 173.361 98.4193C173.075 98.4193 171.809 97.7068 171.484 97.3631C171.099 96.9564 171.079 96.7452 171.394 96.4333C171.614 96.2145 171.743 96.1632 172.07 96.1632C172.36 96.1632 172.675 96.0617 173.192 95.8026C173.587 95.6043 173.978 95.4418 174.06 95.4416C174.214 95.4412 175.445 94.8208 176.37 94.2783C177.15 93.8203 178.207 92.6877 178.67 91.8141L179.058 91.0812L178.858 90.6666C178.635 90.204 178.546 90.1201 178.28 90.118C178.179 90.1173 177.944 90.0355 177.757 89.9362C177.489 89.794 177.243 89.7557 176.597 89.7557C175.951 89.7557 175.705 89.794 175.437 89.9362C175.22 90.0513 174.923 90.1167 174.618 90.1167C174.312 90.1167 174.015 90.1821 173.798 90.2972C173.611 90.3964 173.354 90.4777 173.227 90.4777C173.1 90.4777 172.915 90.5333 172.816 90.6015C172.717 90.6696 172.411 90.8158 172.135 90.9265C170.99 91.3866 170.573 91.5913 169.685 92.1289C169.364 92.3234 168.996 92.5226 168.866 92.5718C168.736 92.621 168.323 93.0017 167.947 93.4176C166.972 94.4973 166.358 94.8233 165.896 94.5053C165.797 94.4371 165.356 94.1935 164.916 93.9638C164.23 93.6059 164.041 93.5465 163.595 93.5491C163.274 93.551 162.937 93.6186 162.712 93.7265C162.511 93.8225 162.238 93.9022 162.104 93.9039C161.97 93.9057 161.58 94.0543 161.239 94.2343C159.223 95.2961 157.816 95.9677 157.699 95.9233C157.466 95.8347 157.443 95.4707 157.649 95.14C157.754 94.9713 157.842 94.7772 157.844 94.7086C157.845 94.64 157.926 94.4214 158.023 94.2229C158.119 94.0243 158.2 93.7286 158.202 93.5657C158.203 93.4028 158.261 93.1349 158.331 92.9704C158.4 92.8057 158.485 92.4678 158.52 92.2192C158.585 91.749 158.45 91.4704 158.157 91.4704C157.989 91.4704 156.519 92.2417 156.305 92.4416C156.212 92.5279 155.997 92.7244 155.827 92.8784C155.653 93.0359 155.309 93.5689 155.041 94.0967L154.565 95.0351L154.541 97.0205L154.517 99.0059L154.167 99.5765C153.694 100.349 153.737 100.482 154.569 100.813C155.059 101.009 155.375 101.22 155.868 101.682C156.73 102.49 157.379 102.906 158.185 103.167C159.112 103.469 160.903 103.479 161.822 103.187C162.161 103.08 162.5 102.943 162.575 102.884C162.65 102.825 162.911 102.662 163.156 102.523C164.09 101.989 165.281 100.555 165.813 99.3218C165.888 99.1481 166.01 98.8982 166.083 98.7664C166.16 98.6293 166.217 98.2916 166.217 97.9768C166.217 97.3949 166.404 97.0656 166.735 97.0656C166.923 97.0656 167.713 97.8954 167.86 98.2479C167.919 98.3886 168.041 98.527 168.132 98.5557C168.223 98.5843 168.571 98.8293 168.904 99.1001C169.237 99.371 169.599 99.5927 169.707 99.5929C169.816 99.5932 170.228 99.7556 170.624 99.9539C171.228 100.257 171.431 100.315 171.898 100.315C172.3 100.315 172.53 100.365 172.727 100.495C172.969 100.654 173.156 100.674 174.366 100.674C175.577 100.674 175.763 100.654 176.005 100.495C176.155 100.396 176.367 100.315 176.475 100.315C177.086 100.313 178.448 99.1954 178.906 98.3198C179.179 97.7984 179.228 97.1169 179.013 96.8347C178.83 96.5955 178.84 96.2189 179.032 96.0588C179.12 95.9861 179.411 95.8173 179.678 95.6839C180.074 95.4863 180.289 95.4412 180.833 95.4412C181.548 95.4412 181.787 95.5577 181.787 95.9075C181.787 96.0079 181.844 96.198 181.914 96.3298C181.984 96.4615 182.176 96.841 182.34 97.173C182.71 97.9231 183.191 98.4381 183.749 98.6827C184.284 98.9174 184.505 98.9179 185.148 98.6857C185.829 98.4394 186.091 98.0711 186.141 97.2852C186.171 96.8193 186.142 96.657 185.985 96.4053C185.88 96.2356 185.793 96 185.792 95.8818C185.792 95.7636 185.71 95.545 185.611 95.3961C185.426 95.1196 185.352 94.1613 185.498 93.9423C185.642 93.7283 186.484 93.3655 186.839 93.3649C187.05 93.3646 187.32 93.2887 187.477 93.1851C187.628 93.0864 187.861 93.0055 187.996 93.0052C188.273 93.0045 188.831 92.7294 189.426 92.3007C189.893 91.9636 190.083 91.9476 190.71 92.1923C191.042 92.3221 191.386 92.3728 191.936 92.3728C192.357 92.3728 192.816 92.4222 192.957 92.4825C193.102 92.5444 193.836 92.6132 194.645 92.6404C196.405 92.6998 196.494 92.7459 196.171 93.4257C196.057 93.6656 195.871 93.9863 195.758 94.1384C195.645 94.2904 195.487 94.5544 195.408 94.725C195.329 94.8956 195.143 95.2382 194.996 95.4863C194.687 96.0068 194.66 96.1848 194.859 96.3824C195.016 96.5383 195.582 96.5712 195.916 96.4437C196.209 96.3318 198.263 94.2673 198.402 93.9448C198.465 93.8 198.625 93.5669 198.757 93.427C198.89 93.287 199.105 92.9216 199.235 92.6149C199.365 92.3082 199.529 91.9771 199.598 91.8791C199.667 91.7811 199.724 91.618 199.724 91.5167C199.724 91.4152 199.806 91.1808 199.906 90.9956C200.125 90.5896 200.133 90.445 199.945 90.2585C199.821 90.1356 199.423 90.1167 196.973 90.1167C194.364 90.1167 194.115 90.1031 193.77 89.9419C193.564 89.8457 193.246 89.7431 193.063 89.7138C192.742 89.6624 192.538 89.4368 192.687 89.2986C192.902 89.1002 193.527 88.8532 193.816 88.8532C193.998 88.8532 194.292 88.7934 194.468 88.7203C194.645 88.6472 195.193 88.5604 195.686 88.5274C196.726 88.4578 196.933 88.3729 197.482 87.792C198.329 86.895 198.358 86.852 198.357 86.5162C198.355 86.1431 198.319 86.0784 197.959 85.8044C197.647 85.5672 197.307 85.5642 196.674 85.793ZM109.617 87.1581C109.308 87.6539 109.128 88.1022 109.125 88.3842C109.122 88.5689 108.985 89.0001 108.818 89.3496C108.651 89.697 108.532 90.0281 108.554 90.0852C108.617 90.2462 108.918 90.2946 109.865 90.2959C110.597 90.297 110.764 90.2704 110.89 90.1321C111.086 89.9174 111.079 89.7702 110.858 89.4398C110.759 89.2909 110.677 89.1143 110.677 89.0474C110.676 88.9216 110.57 88.6688 110.11 87.7036C109.819 87.0902 109.724 86.986 109.617 87.1581ZM175.556 91.8851C175.778 92.0138 175.96 92.1806 175.96 92.2557C175.96 92.4613 175.065 93.2529 174.548 93.5045C174.298 93.6265 173.868 93.8482 173.592 93.9972C173.317 94.1461 172.999 94.268 172.886 94.268C172.773 94.268 172.528 94.3492 172.341 94.4485C172.119 94.5668 171.828 94.629 171.497 94.629C170.968 94.629 170.665 94.4906 170.492 94.1695C170.291 93.7969 171.042 92.9783 171.94 92.5916C172.223 92.4698 172.606 92.2896 172.791 92.1911C172.976 92.0925 173.294 92.0118 173.497 92.0118C173.7 92.0118 174.019 91.9306 174.206 91.8314C174.664 91.588 175.073 91.6043 175.556 91.8851ZM179.511 91.9667C179.42 92.0748 179.42 92.1294 179.511 92.2375C179.573 92.3119 179.675 92.3728 179.738 92.3728C179.801 92.3728 179.903 92.3119 179.966 92.2375C180.056 92.1294 180.056 92.0748 179.966 91.9667C179.903 91.8923 179.801 91.8314 179.738 91.8314C179.675 91.8314 179.573 91.8923 179.511 91.9667ZM163.294 96.4794C163.581 97.0735 163.636 97.6032 163.46 98.082C163.382 98.2923 163.294 98.6475 163.264 98.8712C163.191 99.4012 162.844 100.136 162.494 100.499C162.341 100.657 162.193 100.859 162.165 100.947C162.109 101.121 161.339 101.488 161.03 101.488C160.925 101.488 160.707 101.433 160.546 101.366C160.385 101.3 160.107 101.218 159.928 101.185C159.696 101.142 159.46 100.978 159.099 100.607C158.463 99.9546 158.171 99.3537 158.166 98.6838C158.161 98.0833 158.335 97.776 158.821 97.5217C159.008 97.4239 159.376 97.1392 159.64 96.8889C159.904 96.6387 160.163 96.4339 160.216 96.4339C160.268 96.4339 160.483 96.3179 160.692 96.176C160.901 96.0341 161.271 95.8143 161.513 95.6874L161.952 95.4568L162.514 95.7426C162.994 95.9866 163.108 96.0945 163.294 96.4794ZM161.372 96.6021C161.137 96.7393 160.715 97.0622 160.436 97.3196C160.157 97.577 159.879 97.7884 159.818 97.7895C159.757 97.7905 159.504 97.9675 159.256 98.1827L158.804 98.574L158.932 98.9582C159.069 99.3698 160.076 100.445 160.464 100.594C160.89 100.758 161.349 100.69 161.632 100.422C161.924 100.146 162.391 99.4074 162.396 99.2155C162.398 99.1499 162.478 98.9337 162.575 98.7352C162.701 98.4776 162.752 98.1764 162.754 97.6838C162.757 97.0099 162.749 96.9858 162.429 96.6685C162.249 96.4899 162.034 96.3457 161.951 96.3482C161.869 96.3507 161.608 96.465 161.372 96.6021ZM173.412 96.5293C173.237 96.6258 172.986 96.7047 172.854 96.7047C172.217 96.7047 172.457 97.1968 173.305 97.6297C173.727 97.845 173.897 97.8778 174.591 97.8778C175.634 97.8778 175.73 97.7837 175.282 97.2014C175.104 96.9702 174.958 96.7464 174.958 96.7042C174.958 96.3285 173.976 96.2175 173.412 96.5293Z" fill="white"/>
</svg>
