<svg width="286" height="112" viewBox="0 0 286 112" fill="none" xmlns="http://www.w3.org/2000/svg">
<rect width="286" height="111.482" fill="black" fill-opacity="0.01"/>
<path fill-rule="evenodd" clip-rule="evenodd" d="M41.17 31.1088C40.8384 33.1153 40.8697 33.2497 41.7806 33.7198C44.7733 35.2648 49.0489 39.27 51.2566 42.5969C52.6247 44.6582 54.5842 49.4197 55.0527 51.8209C55.6607 54.9378 55.6479 60.3676 55.0257 63.1099L54.8404 63.9269L54.4235 61.9216C53.3969 56.9838 51.6173 53.5757 48.5422 50.6584C46.5068 48.7274 44.15 47.2782 41.2264 46.1605C38.4814 45.1111 41.3275 45.6091 44.8886 46.8014L45.2355 46.9178C46.4512 47.3257 46.8043 47.4442 46.8894 47.3412C46.9242 47.2991 46.9142 47.2198 46.9 47.1081L46.895 47.0677L46.8906 47.0305C46.8654 46.8032 46.9171 46.622 47.0072 46.622C47.379 46.622 49.731 48.086 52.233 49.8747C52.9856 50.4127 53.0101 50.1195 52.2771 49.3489C48.6824 45.5708 43.1306 42.4976 37.9746 41.4322C35.9323 41.0102 35.6496 41.0302 34.6259 41.6697C32.0743 43.2635 30.4203 44.1063 30.2274 43.9108C30.1839 43.8666 30.5412 43.1396 31.0215 42.2953C31.8525 40.8346 31.94 40.7358 32.8253 40.2574C33.9789 39.6338 35.5883 38.4691 36.8178 37.3677C37.7279 36.5523 39.1789 34.7669 39.0432 34.6294C39.006 34.5916 38.7398 34.6396 38.4517 34.736C38.1637 34.8324 37.8571 34.8874 37.7707 34.8581C37.6841 34.8288 37.9145 34.3899 38.2828 33.8828C39.1646 32.668 40.3118 30.5949 40.7681 29.3914C40.9694 28.8604 41.1863 28.2922 41.2502 28.1288C41.5037 27.4807 41.4519 29.4028 41.17 31.1088ZM32.7957 30.8934C34.504 31.0602 36.6568 31.5341 37.6816 31.9687C38.4102 32.2777 38.3601 32.3655 36.3423 34.3119C34.535 36.0555 32.4677 37.6333 32.1518 37.5103C32.0362 37.4653 31.8064 36.9677 31.641 36.4044C31.4754 35.8413 31.2143 35.265 31.0605 35.1237C30.7914 34.8768 30.7629 34.893 30.3176 35.5494C29.4667 36.8035 27.1105 38.3685 23.8053 39.875C21.1215 41.0983 20.2788 41.8273 19.9001 43.253C19.7059 43.9844 19.8257 44.2922 20.6633 45.2137C20.9992 45.5831 21.2277 45.9323 21.1712 45.9897C21.1146 46.047 20.7588 45.9799 20.3807 45.8404C19.7148 45.595 19.6814 45.5965 19.3268 45.8851C17.9259 47.0253 17.1651 47.5339 16.4611 47.8011C15.4402 48.1883 14.9263 48.1881 14.4393 47.7995C14.107 47.5345 14.0533 47.3795 14.0533 46.6854C14.0533 46.2099 13.9887 45.8793 13.8959 45.8793C13.6304 45.8793 12.005 47.5352 11.3266 48.497C10.9737 48.9973 10.5035 49.7994 10.2817 50.2795C9.90258 51.1 9.87885 51.2729 9.88486 53.1577C9.89291 55.6082 9.99458 56.215 10.4162 56.3267C10.587 56.372 11.4086 56.2457 12.2418 56.0461C16.021 55.1407 20.4922 54.6721 22.9161 54.9274C24.9055 55.137 25.8948 55.415 27.5085 56.2177C29.9451 57.43 31.5118 59.3667 31.9354 61.6903C32.2845 63.6053 31.515 65.6389 29.7831 67.3777C28.8693 68.2951 28.4507 68.5803 26.9131 69.3325C23.4829 71.0106 20.4603 71.7802 17.276 71.7859C14.1442 71.7916 11.7417 71.0927 9.37494 69.4874C6.57442 67.5879 4.51365 64.6413 3.40812 60.9561C3.02843 59.6901 3.00675 59.4576 3.0003 56.5742C2.99269 53.1347 3.12218 52.2714 4.10671 49.1971C6.50015 41.7242 11.582 36.0565 18.8188 32.7892C20.2285 32.1527 22.8109 31.2842 24.0143 31.042C24.4574 30.9527 24.9518 30.8533 25.113 30.8212C25.7761 30.6887 31.2241 30.74 32.7957 30.8934ZM27.4449 43.0422C28.2136 42.3298 28.58 41.7529 28.7797 40.9404C28.9089 40.4151 28.7246 40.423 27.6765 40.9882C27.2334 41.227 26.1124 41.7778 25.1856 42.2122C23.0329 43.2207 22.2243 44.109 22.9231 44.6972C23.1093 44.8539 23.3515 44.8443 24.2639 44.6434C25.7055 44.3262 26.4801 43.9363 27.4449 43.0422ZM158.797 42.6122C158.93 43.0951 158.93 48.6641 158.797 49.1472C158.725 49.4085 158.593 49.5185 158.351 49.5185C157.98 49.5185 157.824 49.3143 157.683 48.6402C157.553 48.0192 156.049 46.5907 154.948 46.0409C153.801 45.4686 152.747 45.2868 150.578 45.2871C148.341 45.2875 147.202 45.4913 145.953 46.1146C143.919 47.1297 141.757 49.6143 141.06 51.7371C139.975 55.0415 140.088 59.508 141.333 62.5184C142.452 65.2264 144.676 67.2429 147.312 67.9391C148.391 68.224 151.349 68.2256 152.669 67.942C154.719 67.5013 156.659 66.0406 157.507 64.2982C158.048 63.1877 158.522 62.9385 158.781 63.6292C158.944 64.0634 158.958 69.3552 158.798 69.9427C158.654 70.4684 158.145 70.5055 157.806 70.0148C157.658 69.8 157.4 69.4525 157.234 69.243L156.931 68.8618L154.693 69.4148C150.534 70.4423 146.804 70.4813 144.07 69.5256C140.174 68.1641 136.817 64.4361 135.851 60.3999C135.532 59.0659 135.417 56.0214 135.625 54.4203C135.721 53.6851 135.985 52.5334 136.212 51.8611C137.53 47.9612 141.024 44.7263 145.093 43.6404C146.171 43.3528 146.583 43.3329 150.652 43.3722C153.069 43.3957 155.53 43.4178 156.121 43.4216C157.102 43.4278 157.22 43.3957 157.469 43.057C158.207 42.0498 158.606 41.9163 158.797 42.6122ZM202.621 47.9776C202.839 47.7571 202.952 43.7286 202.765 42.835C202.696 42.503 202.547 42.2266 202.428 42.2075C202.311 42.1887 201.928 42.3886 201.579 42.6517L200.943 43.13L197.184 43.2203C193.052 43.3197 192.687 43.3868 191.145 44.3296C190.191 44.913 188.968 46.174 188.551 47.0042C187.834 48.4315 187.502 50.5644 187.77 52.028C188.015 53.3658 188.558 54.4114 189.502 55.3593C190.533 56.395 191.315 56.9222 194.158 58.4991C197.035 60.0947 198.303 60.9758 198.843 61.7557C199.257 62.3519 199.285 62.4801 199.285 63.754C199.285 64.9834 199.243 65.1917 198.853 65.906C198.15 67.1928 197.091 67.8975 195.424 68.1874C193.462 68.5285 191.452 67.8265 189.942 66.2728C189.483 65.7995 188.997 65.2452 188.863 65.0409C188.179 63.9964 187.529 63.5937 187.245 64.0383C187.18 64.1405 187.094 65.1597 187.053 66.3035L186.98 68.3831L186.61 68.4269C185.942 68.5059 184.588 67.4273 182.346 65.0304C178.062 60.4506 172.698 54.2422 172.698 53.8645C172.698 53.6338 179.003 47.2967 180.496 46.0265C181.277 45.3628 181.938 44.9457 182.618 44.6882C183.403 44.3909 183.635 44.2304 183.747 43.9076C184.003 43.1699 183.844 43.1355 179.961 43.0848C176.018 43.0333 175.408 43.1083 175.408 43.6445C175.408 44.016 175.611 44.1773 176.254 44.3146C176.813 44.434 177.239 44.9058 177.239 45.4047C177.239 45.9314 176.417 46.9455 173.364 50.1869C170.573 53.1496 168.596 55.3694 168.596 55.5397C168.596 55.7616 170.251 57.761 173.516 61.4834C177.228 65.7145 177.971 66.6832 177.971 67.2853C177.971 67.7813 177.596 68.2143 176.913 68.5077C176.649 68.6209 176.306 68.8584 176.15 69.0356C175.893 69.3278 175.888 69.3795 176.096 69.5901C176.406 69.9043 179.157 70.0766 183.994 70.0849L187.746 70.0913L188.299 69.6456C188.603 69.4006 188.871 69.2 188.895 69.2C188.918 69.2 189.717 69.4102 190.669 69.6672C192.247 70.0929 192.601 70.1348 194.671 70.1407C196.401 70.1456 197.165 70.0849 197.883 69.8855C200.541 69.1468 202.586 67.2068 203.332 64.7152C203.58 63.8866 203.628 63.4187 203.576 62.3207C203.492 60.5638 202.971 59.3437 201.752 58.0472C200.642 56.8671 199.468 56.0927 196.478 54.5683C193.023 52.8067 191.849 51.6805 191.645 49.9298C191.381 47.6655 193.048 45.7716 195.751 45.2666C197.624 44.9168 199.704 45.6243 201 47.0516C201.809 47.9418 202.351 48.2513 202.621 47.9776ZM80.9443 43.2154C82.9403 43.441 84.3912 43.8477 85.9047 44.6054C89.1229 46.2168 91.4455 49.1335 92.3015 52.6379C92.5688 53.7324 92.629 54.4055 92.6334 56.3513C92.6369 57.8302 92.5641 59.0646 92.4408 59.6192C91.7441 62.7544 90.1223 65.449 87.8823 67.1934C86.7168 68.101 85.5375 68.7391 83.8785 69.3597L82.4192 69.9057L83.2831 70.4696C84.6004 71.3295 86.4231 72.2861 87.3844 72.6222C88.5894 73.0436 89.5351 73.0249 90.6882 72.5572C91.2121 72.3448 91.7485 72.1708 91.8803 72.1708C92.1784 72.1708 92.4669 72.6892 92.3595 73.0322C92.265 73.334 91.123 74.0482 89.7866 74.6412C88.873 75.0465 88.7426 75.0635 86.5639 75.0596C84.5047 75.0559 84.1968 75.0203 83.2567 74.6767C82.0536 74.2373 80.769 73.4239 78.7579 71.8287C76.8993 70.3543 76.2439 69.9751 74.8396 69.5611C71.9469 68.7084 69.3111 66.7953 67.6446 64.3392C67.0279 63.4304 66.1052 61.422 65.7488 60.2134C65.3061 58.7122 65.2027 55.7102 65.5358 54.0369C66.0166 51.6226 67.0754 49.5349 68.7389 47.721C70.077 46.2621 71.2552 45.3826 73.0139 44.5303C75.6518 43.2516 77.928 42.8743 80.9443 43.2154ZM104.014 44.246C104.817 44.2448 104.985 43.3544 104.214 43.1872C103.644 43.0636 95.5599 43.0634 94.9868 43.187C94.6974 43.2494 94.5346 43.3828 94.5099 43.5778C94.4503 44.0494 94.6668 44.2454 95.4906 44.4658C96.4366 44.7189 96.7738 45.0133 96.972 45.7594C97.1843 46.5586 97.3929 50.4568 97.4039 53.8262C97.4088 55.3784 97.4715 58.0187 97.543 59.6935C97.6525 62.2573 97.7242 62.8794 97.998 63.6298C99.4216 67.533 102.386 69.7333 106.899 70.2368C110.739 70.6652 113.953 69.5293 116.475 66.8526C117.636 65.6207 118.112 64.8022 118.354 63.6221C118.436 63.2179 118.57 60.8484 118.65 58.3566L118.651 58.3049C119.007 47.2311 119.027 46.6014 119.262 46.066C119.276 46.0328 119.292 45.9999 119.308 45.965C119.601 45.3394 120.485 44.6129 121.128 44.4697C122.043 44.2659 122.304 43.362 121.499 43.1872C120.929 43.0636 112.845 43.0634 112.272 43.187C111.977 43.2506 111.818 43.3835 111.789 43.5909C111.731 44.0032 111.972 44.1797 112.917 44.4177C113.944 44.676 114.21 45.0464 114.392 46.4735C114.574 47.9027 114.577 61.2081 114.396 62.6221C114.217 64.0234 113.573 65.3049 112.506 66.3876C110.684 68.2351 108.504 68.7137 105.9 67.8381C104.627 67.41 103.401 66.1909 102.612 64.5681C102.077 63.4691 102.052 63.3479 101.935 61.3002C101.869 60.1305 101.811 56.1281 101.807 52.4057L101.798 45.6378L102.201 45.2538C102.805 44.6784 103.582 44.2465 104.014 44.246ZM133.018 43.313C133.346 43.6453 132.932 44.196 132.018 44.6449C131.449 44.9248 131.097 45.2092 130.949 45.5079C130.76 45.8915 130.729 47.4225 130.729 56.4999C130.729 66.388 130.746 67.0799 130.995 67.5876C131.249 68.1056 131.442 68.2379 133 68.9661C133.245 69.0806 133.366 69.2575 133.366 69.5014C133.366 69.8202 133.277 69.8821 132.65 69.9983C132.227 70.0767 130.232 70.0745 127.778 69.9931C124.226 69.8753 123.587 69.8196 123.38 69.6094C123.18 69.4063 123.17 69.3233 123.326 69.1332C123.429 69.0066 123.674 68.9029 123.868 68.9029C124.297 68.9029 125.139 68.4652 125.787 67.9048L126.265 67.4918L126.3 57.5397C126.319 52.066 126.281 47.2065 126.215 46.7408C126.04 45.4959 125.635 44.9797 124.532 44.5947C124.029 44.4193 123.517 44.1911 123.394 44.0879C123.033 43.784 123.197 43.2956 123.698 43.183C123.94 43.1286 126.096 43.0948 128.489 43.1077C131.696 43.1251 132.886 43.179 133.018 43.313ZM171.205 43.6056C171.174 43.3825 171.023 43.2522 170.72 43.187C170.227 43.0807 162.135 43.0605 161.565 43.1641C161.053 43.2573 160.927 43.4219 161.035 43.8578C161.104 44.1377 161.273 44.2742 161.691 44.3883C162.471 44.6013 163.178 45.1168 163.534 45.7312C163.819 46.223 163.838 46.5191 163.881 51.301C163.946 58.614 163.72 66.5946 163.428 67.2946C163.237 67.7521 163.021 67.9275 162.089 68.382C160.964 68.9309 160.686 69.2129 160.686 69.8047V70.1318L165.454 70.0225C168.076 69.9625 170.4 69.8649 170.617 69.8059C171.054 69.6875 171.204 69.3004 170.94 68.9771C170.846 68.8622 170.41 68.6626 169.972 68.5334C169.534 68.4041 168.975 68.1167 168.73 67.8945C168.351 67.5512 168.264 67.3348 168.152 66.4514C167.856 64.1231 168.105 47.0098 168.452 45.8232C168.683 45.032 169.158 44.5968 169.928 44.471C170.798 44.3287 171.263 44.0138 171.205 43.6056ZM210.087 43.1852C211.696 43.2512 212.749 43.3561 212.852 43.4606C212.946 43.5555 212.978 43.7944 212.925 44.0064C212.855 44.2884 212.687 44.4229 212.255 44.5407C211.397 44.7749 211.027 45.3304 211.13 46.227C211.221 47.0141 214.967 58.4765 215.865 60.7145C216.172 61.4803 216.49 62.1064 216.57 62.1056C216.748 62.1041 217.789 59.4081 219.797 53.7519L221.299 49.5185L220.818 48.1716C219.886 45.5593 219.282 44.7143 218.119 44.3967C217.476 44.2213 217.183 43.9325 217.256 43.5481C217.333 43.1417 217.855 43.0922 222.064 43.0922C226.272 43.0922 226.794 43.1417 226.871 43.5481C226.949 43.9576 226.66 44.1987 225.98 44.2911C225.251 44.3903 224.7 44.938 224.7 45.5645C224.7 46.1667 225.327 48.1947 227.639 55.081C229.764 61.4097 230.224 62.6219 230.421 62.4134C230.706 62.112 234.689 50.1984 235.253 47.9589C235.667 46.317 235.7 45.2663 235.35 44.8731C235.205 44.7104 234.796 44.4648 234.441 44.3274C233.77 44.0676 233.472 43.6092 233.775 43.302C234.015 43.059 240.585 43.0627 240.825 43.3061C241.178 43.6644 240.84 44.161 239.832 44.7653C239.115 45.1945 238.749 45.5279 238.511 45.9666C238.109 46.7071 236.729 50.5117 234.393 57.3169C231.045 67.0719 230.487 68.6206 229.901 69.7931C229.458 70.6789 229.302 70.7872 228.943 70.4573C228.586 70.1303 228.009 68.627 225.353 61.1045C223.195 54.9935 222.479 53.1577 222.254 53.1577C222.115 53.1577 221.361 55.2389 218.594 63.2584C216.316 69.8631 215.984 70.6854 215.601 70.6854C215.069 70.6854 214.684 69.7171 210.642 58.2054C207.333 48.7807 206.406 46.3277 205.861 45.5522C205.595 45.1751 205.158 44.852 204.467 44.5233C203.436 44.0328 203.324 43.8887 203.643 43.4651C203.941 43.0692 205.55 42.9993 210.087 43.1852ZM283 50.3056C283.005 47.2173 281.116 44.7525 278.949 43.8305C276.783 42.9085 271.332 43.0722 271.332 43.0722C265.776 43.086 264.404 43.1494 264.153 43.4043C264.107 43.4508 264.11 43.6509 264.159 43.8491C264.223 44.1077 264.52 44.3462 265.214 44.6959C265.745 44.9637 266.289 45.3532 266.424 45.5616C266.644 45.9022 266.674 46.8149 266.719 54.6365C266.773 63.8533 266.663 66.5786 266.199 67.5419C266.001 67.9513 265.728 68.1883 265.095 68.4992C264.486 68.7985 264.229 69.0164 264.161 69.2899C263.987 69.9952 264.132 70.0194 268.325 69.9839C273.028 69.9442 273.439 69.9005 273.656 69.4169C273.861 68.9607 273.636 68.6601 272.994 68.5319C271.647 68.2627 271.355 67.8944 271.137 66.1915C270.943 64.677 270.947 57.7625 271.142 57.7625C272.239 57.7625 276.57 57.3997 277.306 57.2461C280.639 56.551 282.994 53.6806 283 50.3056ZM250.546 43.7626C250.745 44.069 252.187 47.2607 253.751 50.8554C258.984 62.8862 260.271 65.6836 261.295 67.2525C261.701 67.8756 261.985 68.1282 262.575 68.393C263.371 68.7501 263.519 68.948 263.519 69.6578V70.0913H258.832H254.144V69.5268C254.144 68.8872 254.349 68.6059 254.816 68.6059C254.993 68.6059 255.292 68.4786 255.482 68.3229C256.201 67.7323 255.844 65.9085 254.28 62.1818L253.485 60.2884L250.995 60.3067C249.625 60.3168 247.56 60.3667 246.405 60.4178L244.306 60.5105L243.447 62.5469C242.332 65.1908 241.796 66.9128 241.905 67.503C242.013 68.0861 242.488 68.6059 242.914 68.6059C243.391 68.6059 243.597 68.883 243.597 69.5268V70.0913H240.311C238.503 70.0913 236.855 70.0261 236.648 69.9464C236.364 69.8368 236.273 69.6964 236.273 69.3704C236.273 68.8585 236.494 68.6427 237.157 68.5083C238.024 68.3323 238.802 67.3476 239.921 65.0099C240.479 63.8423 242.697 58.7763 244.848 53.7519C247 48.7275 248.918 44.2993 249.111 43.9111C249.566 42.9942 250.017 42.9476 250.546 43.7626ZM42.5205 54.3357C39.6892 51.5684 35.996 49.691 32.179 49.0785C31.4349 48.9591 29.969 48.818 28.9216 48.7648L27.0173 48.6684L28.1159 49.4607C29.3398 50.3434 31.0457 51.9592 31.0457 52.2358C31.0457 52.4813 30.7531 52.4644 28.5952 52.0938C26.2118 51.6844 21.8279 51.6495 19.4958 52.0213C17.4052 52.3546 14.2689 53.6524 12.3687 54.9705C10.7953 56.0618 10.4994 56.2771 10.572 56.2771C10.6135 56.2771 11.4301 55.9357 12.387 55.5185C17.6211 53.2359 21.2345 52.5296 24.8932 53.0738C32.6018 54.2204 36.6936 59.3021 35.3062 66.0064C35.1542 66.7417 34.9801 67.4681 34.9198 67.6205C34.8199 67.8727 34.8417 67.8805 35.1616 67.7081C35.3551 67.6038 35.9487 67.078 36.4804 66.5397C37.202 65.8092 37.5975 65.2423 38.0388 64.3061L38.6303 63.0515L38.8233 63.9347C39.1028 65.214 39.0623 68.0165 38.7469 69.1997C37.5461 73.7048 34.1342 77.2299 29.1195 79.1461C26.6811 80.0779 24.9432 80.3889 22.11 80.4004C18.7682 80.414 16.3893 79.8971 13.7603 78.5859C13.156 78.2847 12.5957 78.0127 12.5152 77.9818C12.2009 77.8609 14.3553 79.4583 15.312 80.0555C16.7269 80.9387 19.303 82.1592 20.8649 82.6864C24.7676 84.0035 29.0436 84.3279 33.8289 83.6697C40.1263 82.8034 45.1419 79.1653 47.2236 73.9533C47.9953 72.0211 48.2086 70.9053 48.2881 68.3831C48.3736 65.6709 48.1829 64.2719 47.4319 62.1035C46.3778 59.0604 44.7976 56.5612 42.5205 54.3357ZM14.3169 49.474C14.4136 49.572 14.4927 49.8728 14.4927 50.1424C14.4927 50.6259 14.4835 50.6326 13.8195 50.6326C13.3695 50.6326 13.0025 50.7364 12.7125 50.9458C11.824 51.5874 12.0118 50.7871 12.957 49.9035C13.6232 49.2809 14.007 49.1597 14.3169 49.474ZM76.7821 45.1174C74.13 45.8029 72.3964 47.1443 71.3365 49.3317C68.919 54.3197 69.6894 62.013 72.9611 65.5595C73.9521 66.6338 75.5024 67.5219 77.1156 67.9396C78.1636 68.211 80.315 68.243 81.437 68.0039C83.9687 67.4646 85.9753 65.6207 87.0313 62.8632C87.7804 60.9068 87.9383 59.8718 87.9344 56.9459C87.931 54.5334 87.8926 54.127 87.5425 52.7868C87.0714 50.9836 86.2382 49.2291 85.2854 48.0335C84.3961 46.9175 82.7555 45.7124 81.552 45.2911C80.2389 44.8316 78.1782 44.7564 76.7821 45.1174ZM271.059 55.3566C271.031 55.3274 270.96 52.9299 270.903 50.0291L270.8 44.7548L272.231 44.861C274.783 45.0502 276.327 45.6273 277.349 46.7749C278.063 47.5758 278.29 48.1462 278.427 49.4779C278.732 52.4554 277.993 54.0554 275.853 55.053C274.693 55.5937 273.425 55.7728 272.161 55.5747C271.584 55.4841 271.088 55.3859 271.059 55.3566ZM247.264 53.2415C245.655 57.0618 245.416 57.7369 245.603 57.9265C245.821 58.1472 248.026 58.3544 250.169 58.3556L252.129 58.3568L252.034 57.8757C251.804 56.7119 248.99 50.0386 248.728 50.0386C248.665 50.0386 248.006 51.4798 247.264 53.2415Z" fill="white"/>
</svg>
