<svg width="286" height="111" viewBox="0 0 286 111" fill="none" xmlns="http://www.w3.org/2000/svg">
<rect width="286" height="111" fill="black" fill-opacity="0.01"/>
<path fill-rule="evenodd" clip-rule="evenodd" d="M17 35.8736V44.7471H25.9189H34.8378V35.8736V27H25.9189H17V35.8736ZM17 55.4434V64.317H25.9189H34.8378V55.4434V46.5698H25.9189H17V55.4434ZM36.6698 64.317V55.4434V46.5698H45.5886H54.5075V55.4434V64.317H45.5886H36.6698ZM56.3395 55.4434V64.317H65.2584H74.1773V55.4434V46.5698H65.2584H56.3395V55.4434ZM76.0093 64.317V55.4434V46.5698H84.9282H93.8471V55.4434V64.317H84.9282H76.0093ZM56.3395 75.0132V83.8868H65.1895C72.7952 83.8868 74.0492 83.8771 74.1084 83.8182C74.1676 83.7594 74.1773 82.5118 74.1773 74.9447V66.1396H65.2584H56.3395V75.0132ZM149.125 49.6524C149.396 49.6524 149.618 49.6081 149.618 49.5539C149.618 49.4942 150.044 49.4554 150.701 49.4554C151.358 49.4554 151.784 49.4942 151.784 49.5539C151.784 49.6081 151.962 49.6524 152.178 49.6524C152.395 49.6524 152.572 49.6967 152.572 49.7509C152.572 49.805 152.705 49.8493 152.868 49.8493C153.03 49.8493 153.163 49.8936 153.163 49.9478C153.163 50.002 153.296 50.0463 153.459 50.0463C153.621 50.0463 153.754 50.0906 153.754 50.1447C153.754 50.1989 153.833 50.2432 153.929 50.2432C154.026 50.2432 154.168 50.3318 154.247 50.4401C154.325 50.5485 154.446 50.6371 154.516 50.6371C154.683 50.6371 155.921 51.8749 155.921 52.0414C155.921 52.1116 156.01 52.233 156.118 52.3111C156.226 52.3892 156.315 52.5319 156.315 52.6283C156.315 52.7246 156.359 52.8034 156.413 52.8034C156.467 52.8034 156.512 52.8921 156.512 53.0004C156.512 53.1087 156.556 53.1973 156.61 53.1973C156.664 53.1973 156.709 53.3303 156.709 53.4927C156.709 53.6552 156.753 53.7882 156.807 53.7882C156.861 53.7882 156.906 54.0097 156.906 54.2805C156.906 54.5513 156.95 54.7729 157.004 54.7729C157.06 54.7729 157.103 55.0683 157.103 55.4621C157.103 55.856 157.06 56.1515 157.004 56.1515C156.95 56.1515 156.906 56.373 156.906 56.6438C156.906 56.9146 156.861 57.1362 156.807 57.1362C156.753 57.1362 156.709 57.2691 156.709 57.4316C156.709 57.594 156.664 57.727 156.61 57.727C156.556 57.727 156.512 57.8502 156.512 58.0006C156.512 58.1613 156.43 58.3329 156.315 58.4163C156.206 58.4944 156.118 58.6273 156.118 58.7117C156.118 58.7961 156.029 58.929 155.921 59.0071C155.813 59.0852 155.724 59.2069 155.724 59.2776C155.724 59.4449 154.881 60.2872 154.714 60.2872C154.643 60.2872 154.522 60.3758 154.444 60.4842C154.365 60.5925 154.223 60.6811 154.126 60.6811C154.03 60.6811 153.951 60.7254 153.951 60.7796C153.951 60.8337 153.862 60.878 153.754 60.878C153.646 60.878 153.557 60.9224 153.557 60.9765C153.557 61.0307 153.424 61.075 153.262 61.075C153.099 61.075 152.966 61.1193 152.966 61.1735C152.966 61.2276 152.833 61.2719 152.671 61.2719C152.508 61.2719 152.375 61.3162 152.375 61.3704C152.375 61.4251 152.113 61.4689 151.784 61.4689C151.456 61.4689 151.193 61.5126 151.193 61.5673C151.193 61.6215 150.972 61.6658 150.701 61.6658C150.43 61.6658 150.209 61.6215 150.209 61.5673C150.209 61.5111 149.913 61.4689 149.519 61.4689C149.125 61.4689 148.83 61.4266 148.83 61.3704C148.83 61.3162 148.697 61.2719 148.534 61.2719C148.372 61.2719 148.239 61.2276 148.239 61.1735C148.239 61.1193 148.106 61.075 147.943 61.075C147.781 61.075 147.648 61.0307 147.648 60.9765C147.648 60.9224 147.569 60.878 147.473 60.878C147.376 60.878 147.234 60.7894 147.155 60.6811C147.077 60.5728 146.956 60.4842 146.886 60.4842C146.72 60.4842 145.284 59.0491 145.284 58.8827C145.284 58.8125 145.196 58.6913 145.087 58.6132C144.979 58.5351 144.89 58.3925 144.89 58.296C144.89 58.1997 144.846 58.1209 144.792 58.1209C144.738 58.1209 144.693 57.9879 144.693 57.8255C144.693 57.663 144.649 57.53 144.595 57.53C144.541 57.53 144.496 57.3971 144.496 57.2346C144.496 57.0721 144.452 56.9392 144.398 56.9392C144.337 56.9392 144.299 56.4141 144.299 55.5606C144.299 54.7072 144.337 54.182 144.398 54.182C144.452 54.182 144.496 54.0491 144.496 53.8866C144.496 53.7241 144.541 53.5912 144.595 53.5912C144.649 53.5912 144.693 53.4583 144.693 53.2958C144.693 53.1333 144.738 53.0004 144.792 53.0004C144.846 53.0004 144.89 52.9118 144.89 52.8034C144.89 52.6951 144.935 52.6065 144.989 52.6065C145.043 52.6065 145.087 52.5357 145.087 52.4491C145.087 52.3625 145.22 52.1674 145.383 52.0157C145.545 51.8639 145.678 51.6895 145.678 51.6282C145.678 51.4736 146.332 50.834 146.49 50.834C146.561 50.834 146.683 50.7454 146.761 50.6371C146.84 50.5288 146.982 50.4401 147.079 50.4401C147.175 50.4401 147.254 50.3958 147.254 50.3417C147.254 50.2875 147.343 50.2432 147.451 50.2432C147.559 50.2432 147.648 50.1989 147.648 50.1447C147.648 50.0906 147.736 50.0463 147.845 50.0463C147.953 50.0463 148.042 50.002 148.042 49.9478C148.042 49.8936 148.175 49.8493 148.337 49.8493C148.5 49.8493 148.633 49.805 148.633 49.7509C148.633 49.6967 148.854 49.6524 149.125 49.6524ZM170.694 49.6524C171.022 49.6524 171.285 49.6087 171.285 49.5539C171.285 49.4998 171.418 49.4554 171.58 49.4554C171.743 49.4554 171.876 49.4998 171.876 49.5539C171.876 49.6101 172.171 49.6524 172.565 49.6524C172.959 49.6524 173.255 49.6946 173.255 49.7509C173.255 49.805 173.388 49.8493 173.55 49.8493C173.713 49.8493 173.846 49.8936 173.846 49.9478C173.846 50.002 173.934 50.0463 174.043 50.0463C174.232 50.0463 174.24 50.1119 174.24 51.7203C174.24 52.641 174.205 53.3943 174.163 53.3943C174.121 53.3943 174.022 53.3056 173.944 53.1973C173.866 53.089 173.733 53.0004 173.649 53.0004C173.564 53.0004 173.431 52.9118 173.353 52.8034C173.27 52.6878 173.098 52.6065 172.938 52.6065C172.787 52.6065 172.664 52.5622 172.664 52.508C172.664 52.449 172.27 52.4096 171.679 52.4096C171.088 52.4096 170.694 52.449 170.694 52.508C170.694 52.5622 170.605 52.6065 170.497 52.6065C170.389 52.6065 170.3 52.6508 170.3 52.705C170.3 52.7591 170.233 52.8034 170.15 52.8034C169.955 52.8034 168.921 53.8372 168.921 54.0322C168.921 54.1146 168.877 54.182 168.823 54.182C168.769 54.182 168.724 54.315 168.724 54.4774C168.724 54.6399 168.68 54.7729 168.626 54.7729C168.568 54.7729 168.527 55.1011 168.527 55.5606C168.527 56.0202 168.568 56.3484 168.626 56.3484C168.68 56.3484 168.724 56.4813 168.724 56.6438C168.724 56.8063 168.769 56.9392 168.823 56.9392C168.877 56.9392 168.921 57.0067 168.921 57.0891C168.921 57.2841 169.955 58.3178 170.15 58.3178C170.233 58.3178 170.3 58.3621 170.3 58.4163C170.3 58.4704 170.389 58.5147 170.497 58.5147C170.605 58.5147 170.694 58.5591 170.694 58.6132C170.694 58.6723 171.088 58.7117 171.679 58.7117C172.27 58.7117 172.664 58.6723 172.664 58.6132C172.664 58.5591 172.797 58.5147 172.959 58.5147C173.122 58.5147 173.255 58.4704 173.255 58.4163C173.255 58.3621 173.326 58.3178 173.412 58.3178C173.499 58.3178 173.694 58.1849 173.846 58.0224C173.997 57.8599 174.148 57.727 174.181 57.727C174.213 57.727 174.24 58.4803 174.24 59.401C174.24 61.0093 174.232 61.075 174.043 61.075C173.934 61.075 173.846 61.1193 173.846 61.1735C173.846 61.2276 173.713 61.2719 173.55 61.2719C173.388 61.2719 173.255 61.3162 173.255 61.3704C173.255 61.4245 173.033 61.4689 172.762 61.4689C172.492 61.4689 172.27 61.5132 172.27 61.5673C172.27 61.6215 172.048 61.6658 171.777 61.6658C171.507 61.6658 171.285 61.6215 171.285 61.5673C171.285 61.5126 171.022 61.4689 170.694 61.4689C170.366 61.4689 170.103 61.4251 170.103 61.3704C170.103 61.3162 169.926 61.2719 169.709 61.2719C169.493 61.2719 169.315 61.2276 169.315 61.1735C169.315 61.1193 169.227 61.075 169.118 61.075C169.01 61.075 168.921 61.0307 168.921 60.9765C168.921 60.9224 168.833 60.878 168.724 60.878C168.616 60.878 168.527 60.8337 168.527 60.7796C168.527 60.7254 168.448 60.6811 168.352 60.6811C168.256 60.6811 168.113 60.5925 168.035 60.4842C167.957 60.3758 167.835 60.2872 167.764 60.2872C167.597 60.2872 166.755 59.4449 166.755 59.2776C166.755 59.2069 166.666 59.0852 166.558 59.0071C166.449 58.929 166.361 58.7863 166.361 58.6899C166.361 58.5936 166.316 58.5147 166.262 58.5147C166.208 58.5147 166.164 58.4261 166.164 58.3178C166.164 58.2095 166.119 58.1209 166.065 58.1209C166.011 58.1209 165.967 58.0322 165.967 57.9239C165.967 57.8156 165.922 57.727 165.868 57.727C165.814 57.727 165.77 57.5497 165.77 57.3331C165.77 57.1165 165.725 56.9392 165.671 56.9392C165.61 56.9392 165.573 56.4141 165.573 55.5606C165.573 54.7072 165.61 54.182 165.671 54.182C165.725 54.182 165.77 54.0491 165.77 53.8866C165.77 53.7241 165.814 53.5912 165.868 53.5912C165.922 53.5912 165.967 53.4583 165.967 53.2958C165.967 53.1333 166.011 53.0004 166.065 53.0004C166.119 53.0004 166.164 52.9215 166.164 52.8252C166.164 52.7288 166.252 52.5861 166.361 52.508C166.469 52.4299 166.558 52.3087 166.558 52.2385C166.558 52.1684 166.889 51.7794 167.295 51.374C167.7 50.9687 168.089 50.6371 168.159 50.6371C168.23 50.6371 168.351 50.5485 168.429 50.4401C168.507 50.3318 168.65 50.2432 168.746 50.2432C168.842 50.2432 168.921 50.1989 168.921 50.1447C168.921 50.0906 169.054 50.0463 169.217 50.0463C169.379 50.0463 169.512 50.002 169.512 49.9478C169.512 49.8936 169.645 49.8493 169.808 49.8493C169.97 49.8493 170.103 49.805 170.103 49.7509C170.103 49.6961 170.366 49.6524 170.694 49.6524ZM245.348 49.6524C245.565 49.6524 245.742 49.6081 245.742 49.5539C245.742 49.4948 246.136 49.4554 246.727 49.4554C247.318 49.4554 247.712 49.4948 247.712 49.5539C247.712 49.6081 247.933 49.6524 248.204 49.6524C248.475 49.6524 248.697 49.6967 248.697 49.7509C248.697 49.805 248.83 49.8493 248.992 49.8493C249.155 49.8493 249.288 49.8936 249.288 49.9478C249.288 50.002 249.376 50.0463 249.485 50.0463C249.593 50.0463 249.682 50.0906 249.682 50.1447C249.682 50.1989 249.751 50.2432 249.836 50.2432C250.052 50.2432 250.361 50.5585 250.198 50.6128C250.131 50.6352 250.076 50.7384 250.076 50.8422C250.076 50.9461 250.031 51.031 249.977 51.031C249.923 51.031 249.879 51.1196 249.879 51.2279C249.879 51.3362 249.834 51.4249 249.78 51.4249C249.726 51.4249 249.682 51.5037 249.682 51.6C249.682 51.6964 249.593 51.8391 249.485 51.9172C249.376 51.9953 249.288 52.119 249.288 52.1921C249.288 52.3922 248.969 52.6849 248.918 52.5318C248.896 52.4645 248.792 52.4096 248.689 52.4096C248.585 52.4096 248.5 52.3652 248.5 52.3111C248.5 52.2569 248.411 52.2126 248.303 52.2126C248.194 52.2126 248.106 52.1683 248.106 52.1142C248.106 52.06 247.973 52.0157 247.81 52.0157C247.648 52.0157 247.515 51.9714 247.515 51.9172C247.515 51.863 247.338 51.8187 247.121 51.8187C246.904 51.8187 246.727 51.863 246.727 51.9172C246.727 51.9714 246.659 52.0157 246.576 52.0157C246.328 52.0157 245.742 52.6705 245.742 52.9479C245.742 53.0851 245.786 53.1973 245.841 53.1973C245.895 53.1973 245.939 53.267 245.939 53.352C245.939 53.4372 246.002 53.5701 246.08 53.6474C246.157 53.7248 246.29 53.7882 246.375 53.7882C246.46 53.7882 246.53 53.8325 246.53 53.8866C246.53 53.9408 246.663 53.9851 246.825 53.9851C246.988 53.9851 247.121 54.0294 247.121 54.0836C247.121 54.1377 247.298 54.182 247.515 54.182C247.732 54.182 247.909 54.2264 247.909 54.2805C247.909 54.3347 248.042 54.379 248.204 54.379C248.367 54.379 248.5 54.4233 248.5 54.4774C248.5 54.5316 248.588 54.5759 248.697 54.5759C248.805 54.5759 248.894 54.6202 248.894 54.6744C248.894 54.7286 248.982 54.7729 249.091 54.7729C249.199 54.7729 249.288 54.8172 249.288 54.8713C249.288 54.9255 249.356 54.9698 249.439 54.9698C249.635 54.9698 250.273 55.6075 250.273 55.8036C250.273 55.8866 250.317 55.9545 250.371 55.9545C250.425 55.9545 250.47 56.0431 250.47 56.1515C250.47 56.2598 250.514 56.3484 250.568 56.3484C250.629 56.3484 250.667 56.8407 250.667 57.6285C250.667 58.4163 250.629 58.9086 250.568 58.9086C250.514 58.9086 250.47 59.0318 250.47 59.1823C250.47 59.343 250.388 59.5145 250.273 59.5979C250.164 59.676 250.076 59.7977 250.076 59.8684C250.076 60.0477 249.227 60.878 249.044 60.878C248.961 60.878 248.894 60.9224 248.894 60.9765C248.894 61.0307 248.805 61.075 248.697 61.075C248.588 61.075 248.5 61.1193 248.5 61.1735C248.5 61.2276 248.411 61.2719 248.303 61.2719C248.194 61.2719 248.106 61.3162 248.106 61.3704C248.106 61.4266 247.81 61.4689 247.416 61.4689C247.022 61.4689 246.727 61.5111 246.727 61.5673C246.727 61.6215 246.505 61.6658 246.235 61.6658C245.964 61.6658 245.742 61.6215 245.742 61.5673C245.742 61.5126 245.479 61.4689 245.151 61.4689C244.823 61.4689 244.56 61.4251 244.56 61.3704C244.56 61.3162 244.427 61.2719 244.265 61.2719C244.102 61.2719 243.969 61.2276 243.969 61.1735C243.969 61.1193 243.836 61.075 243.674 61.075C243.511 61.075 243.378 61.0307 243.378 60.9765C243.378 60.9224 243.29 60.878 243.181 60.878C243.073 60.878 242.984 60.8337 242.984 60.7796C242.984 60.7254 242.915 60.6811 242.83 60.6811C242.745 60.6811 242.612 60.6178 242.534 60.5404C242.374 60.3806 242.342 59.8933 242.492 59.8933C242.546 59.8933 242.59 59.8047 242.59 59.6964C242.59 59.5881 242.635 59.4994 242.689 59.4994C242.743 59.4994 242.787 59.4108 242.787 59.3025C242.787 59.1942 242.832 59.1056 242.886 59.1056C242.94 59.1056 242.984 59.0169 242.984 58.9086C242.984 58.8003 243.029 58.7117 243.083 58.7117C243.137 58.7117 243.181 58.6231 243.181 58.5147C243.181 58.4064 243.226 58.3178 243.28 58.3178C243.334 58.3178 243.378 58.2292 243.378 58.1209C243.378 58.0125 243.413 57.9239 243.455 57.9239C243.497 57.9239 243.596 58.0125 243.674 58.1209C243.752 58.2292 243.885 58.3178 243.969 58.3178C244.054 58.3178 244.187 58.4064 244.265 58.5147C244.343 58.6231 244.486 58.7117 244.582 58.7117C244.678 58.7117 244.757 58.756 244.757 58.8102C244.757 58.8643 244.89 58.9086 245.053 58.9086C245.215 58.9086 245.348 58.9529 245.348 59.0071C245.348 59.0645 245.676 59.1056 246.136 59.1056C246.596 59.1056 246.924 59.0645 246.924 59.0071C246.924 58.9529 246.994 58.9086 247.079 58.9086C247.278 58.9086 247.515 58.6715 247.515 58.4725C247.515 58.3874 247.559 58.3178 247.613 58.3178C247.668 58.3178 247.712 58.1612 247.712 57.9699C247.712 57.7041 247.631 57.5413 247.37 57.2806C247.183 57.0928 246.961 56.9392 246.878 56.9392C246.795 56.9392 246.727 56.8949 246.727 56.8407C246.727 56.7866 246.594 56.7423 246.432 56.7423C246.269 56.7423 246.136 56.698 246.136 56.6438C246.136 56.5896 246.003 56.5453 245.841 56.5453C245.678 56.5453 245.545 56.501 245.545 56.4469C245.545 56.3927 245.368 56.3484 245.151 56.3484C244.934 56.3484 244.757 56.3041 244.757 56.2499C244.757 56.1958 244.669 56.1515 244.56 56.1515C244.452 56.1515 244.363 56.1071 244.363 56.053C244.363 55.9988 244.275 55.9545 244.166 55.9545C244.058 55.9545 243.969 55.9102 243.969 55.856C243.969 55.8019 243.901 55.7576 243.817 55.7576C243.62 55.7576 243.181 55.319 243.181 55.1219C243.181 55.0382 243.137 54.9698 243.083 54.9698C243.029 54.9698 242.984 54.8812 242.984 54.7729C242.984 54.6645 242.94 54.5759 242.886 54.5759C242.825 54.5759 242.787 54.0836 242.787 53.2958C242.787 52.508 242.825 52.0157 242.886 52.0157C242.94 52.0157 242.984 51.9271 242.984 51.8187C242.984 51.7104 243.029 51.6218 243.083 51.6218C243.137 51.6218 243.181 51.5332 243.181 51.4249C243.181 51.3165 243.226 51.2279 243.28 51.2279C243.334 51.2279 243.378 51.16 243.378 51.077C243.378 50.8926 244.011 50.2432 244.191 50.2432C244.262 50.2432 244.384 50.1546 244.462 50.0463C244.54 49.9379 244.683 49.8493 244.779 49.8493C244.875 49.8493 244.954 49.805 244.954 49.7509C244.954 49.6967 245.131 49.6524 245.348 49.6524ZM262.682 49.6524C262.899 49.6524 263.076 49.6081 263.076 49.5539C263.076 49.4948 263.47 49.4554 264.061 49.4554C264.652 49.4554 265.046 49.4948 265.046 49.5539C265.046 49.6081 265.267 49.6524 265.538 49.6524C265.809 49.6524 266.031 49.6967 266.031 49.7509C266.031 49.805 266.164 49.8493 266.326 49.8493C266.489 49.8493 266.622 49.8936 266.622 49.9478C266.622 50.002 266.71 50.0463 266.819 50.0463C266.927 50.0463 267.016 50.0906 267.016 50.1447C267.016 50.1989 267.085 50.2432 267.17 50.2432C267.386 50.2432 267.694 50.5585 267.532 50.6128C267.464 50.6352 267.41 50.7287 267.41 50.8205C267.41 50.9123 267.321 51.0514 267.213 51.1294C267.104 51.2075 267.016 51.3502 267.016 51.4466C267.016 51.5429 266.971 51.6218 266.917 51.6218C266.863 51.6218 266.819 51.7104 266.819 51.8187C266.819 51.9271 266.774 52.0157 266.72 52.0157C266.666 52.0157 266.622 52.0853 266.622 52.1704C266.622 52.3861 266.306 52.6944 266.252 52.5318C266.23 52.4645 266.126 52.4096 266.022 52.4096C265.919 52.4096 265.834 52.3652 265.834 52.3111C265.834 52.2569 265.745 52.2126 265.637 52.2126C265.528 52.2126 265.44 52.1683 265.44 52.1142C265.44 52.06 265.307 52.0157 265.144 52.0157C264.982 52.0157 264.849 51.9714 264.849 51.9172C264.849 51.863 264.672 51.8187 264.455 51.8187C264.238 51.8187 264.061 51.863 264.061 51.9172C264.061 51.9714 263.972 52.0157 263.864 52.0157C263.756 52.0157 263.667 52.06 263.667 52.1142C263.667 52.1683 263.578 52.2126 263.47 52.2126C263.339 52.2126 263.273 52.2783 263.273 52.4096C263.273 52.5179 263.229 52.6065 263.174 52.6065C263.12 52.6065 263.076 52.7636 263.076 52.9556C263.076 53.3289 263.427 53.7882 263.712 53.7882C263.795 53.7882 263.864 53.8325 263.864 53.8866C263.864 53.9408 263.997 53.9851 264.159 53.9851C264.322 53.9851 264.455 54.0294 264.455 54.0836C264.455 54.1377 264.632 54.182 264.849 54.182C265.065 54.182 265.243 54.2264 265.243 54.2805C265.243 54.3347 265.376 54.379 265.538 54.379C265.701 54.379 265.834 54.4233 265.834 54.4774C265.834 54.5316 265.922 54.5759 266.031 54.5759C266.139 54.5759 266.228 54.6202 266.228 54.6744C266.228 54.7286 266.307 54.7729 266.403 54.7729C266.499 54.7729 266.642 54.8615 266.72 54.9698C266.798 55.0781 266.921 55.1667 266.992 55.1667C267.172 55.1667 267.606 55.6163 267.606 55.8024C267.606 55.8861 267.651 55.9545 267.705 55.9545C267.759 55.9545 267.803 56.0431 267.803 56.1515C267.803 56.2598 267.848 56.3484 267.902 56.3484C267.963 56.3484 268 56.8407 268 57.6285C268 58.4163 267.963 58.9086 267.902 58.9086C267.848 58.9086 267.803 58.9972 267.803 59.1056C267.803 59.2139 267.759 59.3025 267.705 59.3025C267.651 59.3025 267.606 59.3911 267.606 59.4994C267.606 59.6078 267.562 59.6964 267.508 59.6964C267.454 59.6964 267.41 59.764 267.41 59.8467C267.41 60.0421 266.573 60.878 266.378 60.878C266.295 60.878 266.228 60.9224 266.228 60.9765C266.228 61.0307 266.139 61.075 266.031 61.075C265.922 61.075 265.834 61.1193 265.834 61.1735C265.834 61.2276 265.745 61.2719 265.637 61.2719C265.528 61.2719 265.44 61.3162 265.44 61.3704C265.44 61.4266 265.144 61.4689 264.75 61.4689C264.356 61.4689 264.061 61.5111 264.061 61.5673C264.061 61.6215 263.839 61.6658 263.568 61.6658C263.298 61.6658 263.076 61.6215 263.076 61.5673C263.076 61.5126 262.813 61.4689 262.485 61.4689C262.157 61.4689 261.894 61.4251 261.894 61.3704C261.894 61.3162 261.761 61.2719 261.599 61.2719C261.436 61.2719 261.303 61.2276 261.303 61.1735C261.303 61.1193 261.17 61.075 261.008 61.075C260.845 61.075 260.712 61.0307 260.712 60.9765C260.712 60.9224 260.624 60.878 260.515 60.878C260.407 60.878 260.318 60.8337 260.318 60.7796C260.318 60.7254 260.25 60.6811 260.166 60.6811C260.082 60.6811 259.901 60.5682 259.763 60.43L259.512 60.1789L259.718 60C259.832 59.9015 259.924 59.7487 259.924 59.6603C259.924 59.5718 259.969 59.4994 260.023 59.4994C260.077 59.4994 260.121 59.4108 260.121 59.3025C260.121 59.1942 260.166 59.1056 260.22 59.1056C260.274 59.1056 260.318 59.0169 260.318 58.9086C260.318 58.8003 260.363 58.7117 260.417 58.7117C260.471 58.7117 260.515 58.6231 260.515 58.5147C260.515 58.4064 260.56 58.3178 260.614 58.3178C260.668 58.3178 260.712 58.2292 260.712 58.1209C260.712 58.0125 260.747 57.9239 260.789 57.9239C260.831 57.9239 260.93 58.0125 261.008 58.1209C261.086 58.2292 261.219 58.3178 261.303 58.3178C261.388 58.3178 261.521 58.4064 261.599 58.5147C261.677 58.6231 261.819 58.7117 261.916 58.7117C262.012 58.7117 262.091 58.756 262.091 58.8102C262.091 58.8643 262.224 58.9086 262.387 58.9086C262.549 58.9086 262.682 58.9529 262.682 59.0071C262.682 59.0645 263.01 59.1056 263.47 59.1056C263.93 59.1056 264.258 59.0645 264.258 59.0071C264.258 58.9529 264.328 58.9086 264.413 58.9086C264.612 58.9086 264.849 58.6715 264.849 58.4725C264.849 58.3874 264.893 58.3178 264.947 58.3178C265.001 58.3178 265.046 58.1612 265.046 57.9699C265.046 57.7041 264.965 57.5413 264.704 57.2806C264.517 57.0928 264.295 56.9392 264.212 56.9392C264.129 56.9392 264.061 56.8949 264.061 56.8407C264.061 56.7866 263.928 56.7423 263.765 56.7423C263.603 56.7423 263.47 56.698 263.47 56.6438C263.47 56.5896 263.337 56.5453 263.174 56.5453C263.012 56.5453 262.879 56.501 262.879 56.4469C262.879 56.3927 262.702 56.3484 262.485 56.3484C262.268 56.3484 262.091 56.3041 262.091 56.2499C262.091 56.1958 262.003 56.1515 261.894 56.1515C261.786 56.1515 261.697 56.1071 261.697 56.053C261.697 55.9988 261.609 55.9545 261.5 55.9545C261.392 55.9545 261.303 55.9102 261.303 55.856C261.303 55.8019 261.235 55.7576 261.151 55.7576C260.954 55.7576 260.515 55.319 260.515 55.1219C260.515 55.0382 260.471 54.9698 260.417 54.9698C260.363 54.9698 260.318 54.8812 260.318 54.7729C260.318 54.6645 260.274 54.5759 260.22 54.5759C260.159 54.5759 260.121 54.0836 260.121 53.2958C260.121 52.508 260.159 52.0157 260.22 52.0157C260.274 52.0157 260.318 51.8925 260.318 51.742C260.318 51.5813 260.4 51.4098 260.515 51.3264C260.624 51.2483 260.712 51.1263 260.712 51.0552C260.712 50.9841 260.866 50.7723 261.054 50.5846C261.241 50.3968 261.453 50.2432 261.524 50.2432C261.596 50.2432 261.718 50.1546 261.796 50.0463C261.874 49.9379 262.016 49.8493 262.113 49.8493C262.209 49.8493 262.288 49.805 262.288 49.7509C262.288 49.6967 262.465 49.6524 262.682 49.6524ZM110.813 61.2719V55.4621V49.6524H113.275C114.851 49.6524 115.738 49.6878 115.738 49.7509C115.738 49.805 115.959 49.8493 116.23 49.8493C116.501 49.8493 116.723 49.8936 116.723 49.9478C116.723 50.002 116.811 50.0463 116.92 50.0463C117.028 50.0463 117.117 50.0906 117.117 50.1447C117.117 50.1989 117.184 50.2432 117.268 50.2432C117.464 50.2432 118.101 50.8809 118.101 51.077C118.101 51.16 118.146 51.2279 118.2 51.2279C118.254 51.2279 118.298 51.3609 118.298 51.5233C118.298 51.6858 118.343 51.8187 118.397 51.8187C118.455 51.8187 118.495 52.1798 118.495 52.705C118.495 53.2301 118.455 53.5912 118.397 53.5912C118.343 53.5912 118.298 53.7241 118.298 53.8866C118.298 54.0491 118.254 54.182 118.2 54.182C118.146 54.182 118.101 54.2505 118.101 54.3342C118.101 54.5312 117.663 54.9698 117.466 54.9698C117.382 54.9698 117.313 55.0141 117.313 55.0683C117.313 55.1224 117.402 55.1667 117.51 55.1667C117.619 55.1667 117.707 55.2111 117.707 55.2652C117.707 55.3194 117.831 55.3637 117.981 55.3637C118.142 55.3637 118.313 55.445 118.397 55.5606C118.475 55.6689 118.599 55.7576 118.672 55.7576C118.852 55.7576 119.086 56.0038 119.086 56.1937C119.086 56.2788 119.131 56.3484 119.185 56.3484C119.239 56.3484 119.283 56.437 119.283 56.5453C119.283 56.6537 119.328 56.7423 119.382 56.7423C119.436 56.7423 119.48 56.9195 119.48 57.1362C119.48 57.3528 119.525 57.53 119.579 57.53C119.633 57.53 119.677 57.7516 119.677 58.0224C119.677 58.2932 119.633 58.5147 119.579 58.5147C119.525 58.5147 119.48 58.692 119.48 58.9086C119.48 59.1253 119.436 59.3025 119.382 59.3025C119.328 59.3025 119.283 59.3814 119.283 59.4777C119.283 59.5741 119.195 59.7168 119.086 59.7949C118.978 59.873 118.889 59.9966 118.889 60.0698C118.889 60.2412 118.646 60.4842 118.475 60.4842C118.402 60.4842 118.278 60.5728 118.2 60.6811C118.122 60.7894 117.979 60.878 117.883 60.878C117.786 60.878 117.707 60.9224 117.707 60.9765C117.707 61.0307 117.53 61.075 117.313 61.075C117.097 61.075 116.92 61.1193 116.92 61.1735C116.92 61.237 115.836 61.2719 113.866 61.2719H110.813ZM128.935 55.6057C128.935 51.2129 128.963 49.9081 129.058 49.7997C129.153 49.6921 129.493 49.659 130.536 49.6561L131.89 49.6524V54.1398C131.89 57.8976 131.913 58.6501 132.03 58.7679C132.142 58.8792 132.533 58.9086 133.902 58.9086H135.632V60.0903V61.2719H132.284H128.935V55.6057ZM184.679 61.2719V55.4621V49.6524H186.157H187.634V52.0157C187.634 53.3155 187.658 54.379 187.687 54.379C187.788 54.379 188.422 53.6948 188.422 53.5848C188.422 53.5235 188.555 53.3491 188.717 53.1973C188.88 53.0456 189.013 52.8683 189.013 52.8034C189.013 52.7385 189.146 52.5613 189.308 52.4096C189.471 52.2578 189.604 52.0815 189.604 52.0176C189.604 51.9539 189.781 51.7315 189.998 51.5233C190.214 51.3152 190.392 51.0927 190.392 51.029C190.392 50.9652 190.525 50.7888 190.687 50.6371C190.85 50.4854 190.983 50.3105 190.983 50.2484C190.983 50.1865 191.091 50.0271 191.224 49.8941C191.463 49.6558 191.491 49.6524 193.194 49.6524C195.201 49.6524 195.224 49.667 194.43 50.4401C194.159 50.7039 193.937 50.9693 193.937 51.03C193.937 51.0907 193.671 51.4013 193.346 51.7203C193.021 52.0392 192.755 52.3498 192.755 52.4105C192.755 52.4712 192.534 52.7366 192.263 53.0004C191.992 53.2642 191.771 53.5301 191.771 53.5912C191.771 53.6524 191.549 53.9182 191.278 54.182C191.007 54.4458 190.786 54.7147 190.786 54.7795C190.786 54.8443 190.692 54.9788 190.577 55.0781L190.369 55.2588L190.774 55.6482C190.997 55.8623 191.18 56.0888 191.18 56.1515C191.18 56.2141 191.357 56.4356 191.574 56.6438C191.79 56.852 191.968 57.0729 191.968 57.1349C191.968 57.1967 192.189 57.4632 192.46 57.727C192.731 57.9908 192.952 58.2567 192.952 58.3178C192.952 58.379 193.174 58.6448 193.445 58.9086C193.716 59.1724 193.937 59.4389 193.937 59.5007C193.937 59.5627 194.115 59.7836 194.331 59.9918C194.548 60.2 194.725 60.4224 194.725 60.4861C194.725 60.5499 194.858 60.7263 195.021 60.878C195.183 61.0298 195.316 61.1805 195.316 61.2129C195.316 61.2454 194.495 61.2719 193.491 61.2719H191.665L191.324 60.9305C191.136 60.7428 190.983 60.5399 190.983 60.4797C190.983 60.4195 190.805 60.2 190.589 59.9918C190.372 59.7836 190.195 59.5612 190.195 59.4975C190.195 59.4337 190.062 59.2573 189.899 59.1056C189.737 58.9538 189.604 58.7775 189.604 58.7137C189.604 58.6499 189.427 58.4275 189.21 58.2193C188.993 58.0112 188.816 57.7896 188.816 57.727C188.816 57.6643 188.639 57.4428 188.422 57.2346C188.205 57.0265 188.028 56.8052 188.028 56.743C188.028 56.6263 187.79 56.3484 187.69 56.3484C187.659 56.3484 187.634 57.4562 187.634 58.8102V61.2719H186.157H184.679ZM205.362 61.2719V55.4621V49.6524H207.923C209.564 49.6524 210.483 49.6877 210.483 49.7509C210.483 49.8056 210.746 49.8493 211.074 49.8493C211.403 49.8493 211.665 49.893 211.665 49.9478C211.665 50.002 211.754 50.0463 211.862 50.0463C211.97 50.0463 212.059 50.0906 212.059 50.1447C212.059 50.1989 212.148 50.2432 212.256 50.2432C212.364 50.2432 212.453 50.2875 212.453 50.3417C212.453 50.3958 212.521 50.4401 212.604 50.4401C212.8 50.4401 213.438 51.0779 213.438 51.2739C213.438 51.3569 213.482 51.4249 213.536 51.4249C213.591 51.4249 213.635 51.5135 213.635 51.6218C213.635 51.7301 213.679 51.8187 213.733 51.8187C213.788 51.8187 213.832 51.9074 213.832 52.0157C213.832 52.124 213.876 52.2126 213.93 52.2126C213.991 52.2126 214.029 52.7378 214.029 53.5912C214.029 54.4447 213.991 54.9698 213.93 54.9698C213.876 54.9698 213.832 55.1027 213.832 55.2652C213.832 55.4277 213.788 55.5606 213.733 55.5606C213.679 55.5606 213.635 55.6281 213.635 55.7105C213.635 55.7929 213.392 56.1031 213.095 56.3998C212.799 56.6965 212.488 56.9392 212.406 56.9392C212.324 56.9392 212.256 56.9835 212.256 57.0377C212.256 57.0918 212.123 57.1362 211.961 57.1362C211.798 57.1362 211.665 57.1805 211.665 57.2346C211.665 57.2888 211.444 57.3331 211.173 57.3331C210.902 57.3331 210.68 57.3774 210.68 57.4316C210.68 57.4917 210.221 57.53 209.498 57.53H208.317V59.401V61.2719H206.839H205.362ZM226.832 50.0914C226.832 50.0079 226.888 49.8766 226.955 49.7997C227.052 49.6904 227.417 49.6591 228.63 49.6561C230.117 49.6526 230.181 49.6606 230.181 49.8493C230.181 49.9576 230.225 50.0463 230.279 50.0463C230.334 50.0463 230.378 50.1349 230.378 50.2432C230.378 50.3515 230.422 50.4401 230.476 50.4401C230.531 50.4401 230.575 50.5731 230.575 50.7356C230.575 50.898 230.619 51.031 230.673 51.031C230.728 51.031 230.772 51.1196 230.772 51.2279C230.772 51.3362 230.816 51.4249 230.87 51.4249C230.925 51.4249 230.969 51.5578 230.969 51.7203C230.969 51.8827 231.013 52.0157 231.067 52.0157C231.122 52.0157 231.166 52.1486 231.166 52.3111C231.166 52.4736 231.21 52.6065 231.264 52.6065C231.318 52.6065 231.363 52.6951 231.363 52.8034C231.363 52.9118 231.407 53.0004 231.461 53.0004C231.515 53.0004 231.56 53.1333 231.56 53.2958C231.56 53.4583 231.604 53.5912 231.658 53.5912C231.712 53.5912 231.757 53.7241 231.757 53.8866C231.757 54.0491 231.801 54.182 231.855 54.182C231.909 54.182 231.954 54.2707 231.954 54.379C231.954 54.4873 231.998 54.5759 232.052 54.5759C232.106 54.5759 232.151 54.7089 232.151 54.8713C232.151 55.0338 232.195 55.1667 232.249 55.1667C232.303 55.1667 232.348 55.2997 232.348 55.4621C232.348 55.6246 232.392 55.7576 232.446 55.7576C232.5 55.7576 232.545 55.8462 232.545 55.9545C232.545 56.0628 232.589 56.1515 232.643 56.1515C232.697 56.1515 232.742 56.2844 232.742 56.4469C232.742 56.6093 232.786 56.7423 232.84 56.7423C232.894 56.7423 232.939 56.8752 232.939 57.0377C232.939 57.2002 232.983 57.3331 233.037 57.3331C233.091 57.3331 233.136 57.4217 233.136 57.53C233.136 57.6384 233.18 57.727 233.234 57.727C233.288 57.727 233.333 57.8599 233.333 58.0224C233.333 58.1849 233.377 58.3178 233.431 58.3178C233.485 58.3178 233.53 58.4507 233.53 58.6132C233.53 58.7757 233.574 58.9086 233.628 58.9086C233.682 58.9086 233.727 58.9972 233.727 59.1056C233.727 59.2139 233.771 59.3025 233.825 59.3025C233.879 59.3025 233.924 59.4355 233.924 59.5979C233.924 59.7604 233.968 59.8933 234.022 59.8933C234.076 59.8933 234.12 60.0263 234.12 60.1887C234.12 60.3512 234.165 60.4842 234.219 60.4842C234.273 60.4842 234.317 60.5728 234.317 60.6811C234.317 60.7894 234.362 60.878 234.416 60.878C234.47 60.878 234.514 60.9667 234.514 61.075C234.514 61.2638 234.449 61.2719 232.939 61.2719C231.429 61.2719 231.363 61.2638 231.363 61.075C231.363 60.9667 231.318 60.878 231.264 60.878C231.21 60.878 231.166 60.7451 231.166 60.5826C231.166 60.4202 231.122 60.2872 231.067 60.2872C231.013 60.2872 230.969 60.1543 230.969 59.9918C230.969 59.8293 230.925 59.6964 230.87 59.6964C230.816 59.6964 230.772 59.6078 230.772 59.4994C230.772 59.3086 230.706 59.3025 228.647 59.3025C226.432 59.3025 226.241 59.3371 226.241 59.7386C226.241 59.8237 226.197 59.8933 226.143 59.8933C226.089 59.8933 226.044 60.0263 226.044 60.1887C226.044 60.3512 226 60.4842 225.946 60.4842C225.892 60.4842 225.847 60.5981 225.847 60.7373C225.847 61.2274 225.696 61.2719 224.032 61.2719C223.076 61.2719 222.499 61.2349 222.499 61.1735C222.499 61.1193 222.543 61.075 222.597 61.075C222.652 61.075 222.696 60.942 222.696 60.7796C222.696 60.6171 222.74 60.4842 222.794 60.4842C222.849 60.4842 222.893 60.3955 222.893 60.2872C222.893 60.1789 222.937 60.0903 222.991 60.0903C223.046 60.0903 223.09 59.9573 223.09 59.7949C223.09 59.6324 223.134 59.4994 223.188 59.4994C223.242 59.4994 223.287 59.4108 223.287 59.3025C223.287 59.1942 223.331 59.1056 223.385 59.1056C223.439 59.1056 223.484 58.9726 223.484 58.8102C223.484 58.6477 223.528 58.5147 223.582 58.5147C223.636 58.5147 223.681 58.3818 223.681 58.2193C223.681 58.0568 223.725 57.9239 223.779 57.9239C223.833 57.9239 223.878 57.8353 223.878 57.727C223.878 57.6187 223.922 57.53 223.976 57.53C224.03 57.53 224.075 57.3971 224.075 57.2346C224.075 57.0721 224.119 56.9392 224.173 56.9392C224.227 56.9392 224.272 56.8506 224.272 56.7423C224.272 56.634 224.316 56.5453 224.37 56.5453C224.424 56.5453 224.469 56.4124 224.469 56.2499C224.469 56.0874 224.513 55.9545 224.567 55.9545C224.621 55.9545 224.666 55.8216 224.666 55.6591C224.666 55.4966 224.71 55.3637 224.764 55.3637C224.818 55.3637 224.863 55.2751 224.863 55.1667C224.863 55.0584 224.907 54.9698 224.961 54.9698C225.015 54.9698 225.06 54.8369 225.06 54.6744C225.06 54.5119 225.104 54.379 225.158 54.379C225.212 54.379 225.257 54.2904 225.257 54.182C225.257 54.0737 225.301 53.9851 225.355 53.9851C225.409 53.9851 225.454 53.8522 225.454 53.6897C225.454 53.5272 225.498 53.3943 225.552 53.3943C225.606 53.3943 225.651 53.2613 225.651 53.0989C225.651 52.9364 225.695 52.8034 225.749 52.8034C225.803 52.8034 225.847 52.7148 225.847 52.6065C225.847 52.4982 225.892 52.4096 225.946 52.4096C226 52.4096 226.044 52.2766 226.044 52.1142C226.044 51.9517 226.089 51.8187 226.143 51.8187C226.197 51.8187 226.241 51.7301 226.241 51.6218C226.241 51.5135 226.286 51.4249 226.34 51.4249C226.394 51.4249 226.438 51.2919 226.438 51.1294C226.438 50.967 226.483 50.834 226.537 50.834C226.591 50.834 226.635 50.7011 226.635 50.5386C226.635 50.3761 226.68 50.2432 226.734 50.2432C226.788 50.2432 226.832 50.1749 226.832 50.0914ZM115.301 52.2126C115.216 52.2126 115.147 52.1683 115.147 52.1142C115.147 52.0579 114.851 52.0157 114.457 52.0157H113.768V53.1973V54.379H114.359C114.687 54.379 114.95 54.3353 114.95 54.2805C114.95 54.2264 115.018 54.182 115.102 54.182C115.338 54.182 115.738 53.7258 115.738 53.4562C115.738 53.3229 115.793 53.1879 115.861 53.1563C115.959 53.1104 115.959 53.0873 115.861 53.0414C115.793 53.0098 115.738 52.8738 115.738 52.7389C115.738 52.4613 115.532 52.2126 115.301 52.2126ZM209.991 52.2126C209.828 52.2126 209.695 52.1683 209.695 52.1142C209.695 52.0579 209.4 52.0157 209.006 52.0157H208.317V53.5912V55.1667H209.006C209.4 55.1667 209.695 55.1245 209.695 55.0683C209.695 55.0141 209.853 54.9698 210.045 54.9698C210.418 54.9698 210.877 54.6192 210.877 54.3342C210.877 54.2505 210.922 54.182 210.976 54.182C211.03 54.182 211.074 53.9605 211.074 53.6897C211.074 53.4189 211.03 53.1973 210.976 53.1973C210.922 53.1973 210.877 53.0834 210.877 52.9441C210.877 52.6592 210.674 52.4096 210.441 52.4096C210.356 52.4096 210.286 52.3652 210.286 52.3111C210.286 52.2569 210.153 52.2126 209.991 52.2126ZM151.981 52.6065C151.873 52.6065 151.784 52.5622 151.784 52.508C151.784 52.4479 151.325 52.4096 150.603 52.4096C149.88 52.4096 149.421 52.4479 149.421 52.508C149.421 52.5622 149.332 52.6065 149.224 52.6065C149.115 52.6065 149.027 52.6508 149.027 52.705C149.027 52.7591 148.959 52.8034 148.876 52.8034C148.681 52.8034 147.845 53.6394 147.845 53.8348C147.845 53.9174 147.801 53.9851 147.746 53.9851C147.692 53.9851 147.648 54.0737 147.648 54.182C147.648 54.2904 147.604 54.379 147.549 54.379C147.495 54.379 147.451 54.5119 147.451 54.6744C147.451 54.8369 147.407 54.9698 147.352 54.9698C147.298 54.9698 147.254 55.2324 147.254 55.5606C147.254 55.8888 147.298 56.1515 147.352 56.1515C147.407 56.1515 147.451 56.2844 147.451 56.4469C147.451 56.6093 147.495 56.7423 147.549 56.7423C147.604 56.7423 147.648 56.8309 147.648 56.9392C147.648 57.0475 147.692 57.1362 147.746 57.1362C147.801 57.1362 147.845 57.2041 147.845 57.2871C147.845 57.4832 148.483 58.1209 148.679 58.1209C148.762 58.1209 148.83 58.1652 148.83 58.2193C148.83 58.2735 148.918 58.3178 149.027 58.3178C149.135 58.3178 149.224 58.3621 149.224 58.4163C149.224 58.4704 149.312 58.5147 149.421 58.5147C149.529 58.5147 149.618 58.5591 149.618 58.6132C149.618 58.6723 150.012 58.7117 150.603 58.7117C151.193 58.7117 151.587 58.6723 151.587 58.6132C151.587 58.5591 151.72 58.5147 151.883 58.5147C152.045 58.5147 152.178 58.4704 152.178 58.4163C152.178 58.3621 152.246 58.3178 152.328 58.3178C152.523 58.3178 153.557 57.2841 153.557 57.0891C153.557 57.0067 153.601 56.9392 153.656 56.9392C153.71 56.9392 153.754 56.8063 153.754 56.6438C153.754 56.4813 153.798 56.3484 153.853 56.3484C153.911 56.3484 153.951 55.9873 153.951 55.4621C153.951 54.937 153.911 54.5759 153.853 54.5759C153.798 54.5759 153.754 54.4873 153.754 54.379C153.754 54.2707 153.71 54.182 153.656 54.182C153.601 54.182 153.557 54.1146 153.557 54.0322C153.557 53.8372 152.523 52.8034 152.328 52.8034C152.246 52.8034 152.178 52.7591 152.178 52.705C152.178 52.6508 152.09 52.6065 151.981 52.6065ZM228.802 53.9289C228.802 53.7895 228.739 53.6123 228.661 53.535C228.471 53.3441 228.408 53.3579 228.408 53.5912C228.408 53.6995 228.364 53.7882 228.31 53.7882C228.256 53.7882 228.211 53.9211 228.211 54.0836C228.211 54.246 228.167 54.379 228.113 54.379C228.059 54.379 228.014 54.5119 228.014 54.6744C228.014 54.8369 227.97 54.9698 227.916 54.9698C227.862 54.9698 227.817 55.1027 227.817 55.2652C227.817 55.4277 227.773 55.5606 227.719 55.5606C227.665 55.5606 227.62 55.6936 227.62 55.856C227.62 56.0185 227.576 56.1515 227.522 56.1515C227.468 56.1515 227.423 56.2844 227.423 56.4469C227.423 56.6093 227.379 56.7423 227.325 56.7423C227.271 56.7423 227.226 56.8309 227.226 56.9392C227.226 57.126 227.292 57.1362 228.507 57.1362H229.787V56.7423C229.787 56.5256 229.743 56.3484 229.689 56.3484C229.634 56.3484 229.59 56.2155 229.59 56.053C229.59 55.8905 229.546 55.7576 229.492 55.7576C229.437 55.7576 229.393 55.6689 229.393 55.5606C229.393 55.4523 229.349 55.3637 229.295 55.3637C229.24 55.3637 229.196 55.2307 229.196 55.0683C229.196 54.9058 229.152 54.7729 229.098 54.7729C229.043 54.7729 228.999 54.6399 228.999 54.4774C228.999 54.315 228.955 54.182 228.901 54.182C228.846 54.182 228.802 54.0681 228.802 53.9289ZM116.089 56.7423C116.004 56.7423 115.935 56.698 115.935 56.6438C115.935 56.5841 115.508 56.5453 114.851 56.5453H113.768V57.8255V59.1056H114.556C115.015 59.1056 115.344 59.0645 115.344 59.0071C115.344 58.9529 115.501 58.9086 115.693 58.9086C116.066 58.9086 116.526 58.558 116.526 58.273C116.526 58.1893 116.57 58.1209 116.624 58.1209C116.678 58.1209 116.723 57.9879 116.723 57.8255C116.723 57.663 116.678 57.53 116.624 57.53C116.57 57.53 116.526 57.4161 116.526 57.2769C116.526 56.9919 116.322 56.7423 116.089 56.7423Z" fill="white"/>
</svg>
