<svg width="131" height="24" viewBox="0 0 131 24" fill="none" xmlns="http://www.w3.org/2000/svg">
<path d="M21.7507 11.9996C21.7519 10.1165 21.2046 8.27392 20.1758 6.69678L24 2.87256L21.1266 0L17.3066 3.82422C15.7291 2.79551 13.8866 2.24778 12.0034 2.24778C10.1201 2.24778 8.27756 2.79551 6.70013 3.82422L2.87172 0L0 2.87256L3.82422 6.69678C2.79568 8.27412 2.24806 10.1165 2.24806 11.9996C2.24806 13.8826 2.79568 15.725 3.82422 17.3024L0 21.1283L2.87256 24L6.69678 20.1758C8.27412 21.2043 10.1165 21.7519 11.9996 21.7519C13.8826 21.7519 15.725 21.2043 17.3024 20.1758L21.1274 24L24 21.1283L20.1749 17.3066C21.2047 15.7286 21.7523 13.8847 21.7507 12.0004V11.9996ZM6.31142 11.9996C6.31023 11.1512 6.49882 10.3133 6.86339 9.54724C7.22796 8.78118 7.75927 8.10638 8.41841 7.57225C9.07755 7.03812 9.84781 6.6582 10.6728 6.46031C11.4978 6.26242 12.3566 6.25158 13.1863 6.42858C14.016 6.60558 14.7956 6.96593 15.468 7.48325C16.1404 8.00056 16.6886 8.66174 17.0724 9.41835C17.4562 10.175 17.6659 11.0078 17.6861 11.856C17.7063 12.7041 17.5366 13.546 17.1893 14.3201L13.4363 10.5629L10.5629 13.4363L14.3159 17.1893C13.4504 17.5782 12.5013 17.7441 11.5552 17.6716C10.6091 17.5992 9.69631 17.2908 8.90016 16.7746C8.10401 16.2584 7.44993 15.5509 6.9977 14.7168C6.54548 13.8826 6.30953 12.9484 6.31142 11.9996Z" fill="#082B8C"/>
<path fill-rule="evenodd" clip-rule="evenodd" d="M43.1864 12.1143C43.1864 14.46 41.9968 16.5786 39.8791 17.5562L41.0033 19.0222L38.6895 20.195L37.1414 18.1426H37.0928C33.2644 18.1426 31 15.3563 31 12.1143C31 8.87235 33.2644 6.08691 37.0928 6.08691C40.9212 6.08691 43.1864 8.87235 43.1864 12.1143ZM37.0928 15.7802C39.26 15.7802 40.4328 14.1023 40.4328 12.1143C40.4328 10.1273 39.26 8.44846 37.0928 8.44846C34.9097 8.44846 33.7368 10.1273 33.7528 12.1143C33.7368 14.1023 34.9097 15.7802 37.0928 15.7802ZM47.4546 18.0287C45.5647 18.0287 44.5544 16.8559 44.5544 14.8185V9.96391H47.0793V14.2648C47.0793 15.3404 47.4378 15.9268 48.3828 15.9268C49.4417 15.9268 49.8982 15.2424 49.8982 14.1835V9.96391H52.3746V17.8167H49.8982V16.6925C49.4584 17.5235 48.6433 18.0287 47.4546 18.0287ZM57.5718 18.0287C55.2262 18.0287 53.8733 16.2527 53.8733 13.8903C53.8733 11.5447 55.3225 9.75196 57.6045 9.75196C58.7438 9.75196 59.6402 10.2898 60.064 11.0881V9.96391H62.5404V17.8167H60.064V16.7084C59.6402 17.4909 58.6634 18.0287 57.5718 18.0287ZM58.2881 15.9595C59.5262 15.9595 60.1621 15.0305 60.1621 13.8903C60.1621 12.7661 59.5262 11.8379 58.2881 11.8379C57.132 11.8379 56.4149 12.7008 56.4149 13.8903C56.4149 15.0799 57.132 15.9595 58.2881 15.9595ZM64.6095 9.96391H67.1018V11.1041C67.5583 10.2244 68.4547 9.75196 69.6434 9.75196C71.5501 9.75196 72.511 10.8276 72.511 12.9613V17.8167H70.002V13.7764C70.002 12.457 69.6275 11.8538 68.6172 11.8538C67.6237 11.8538 67.1018 12.5056 67.1018 13.7111V17.8159H64.6095V9.96391ZM78.6205 15.8783C78.9305 15.8783 79.2555 15.8615 79.4834 15.8288V17.8167C79.1256 17.8821 78.5392 17.9466 77.8222 17.9466C76.6493 17.9466 75.0359 17.6869 75.0359 15.0631V11.9351H73.7977V9.96391H75.0359V7.63503H77.5289V9.96391H79.3049V11.9351H77.5289V14.5421C77.5289 15.6981 78.0014 15.8783 78.6205 15.8783ZM84.0615 18.0614C81.7645 18.0614 80.3471 16.9371 80.3471 15.4544H82.8234C82.8234 15.9922 83.3453 16.3826 84.111 16.3826C84.6479 16.3826 85.0232 16.1061 85.0232 15.6496C85.0232 15.3396 84.8766 15.0799 84.4528 14.9819L82.5302 14.4935C81.2267 14.1668 80.559 13.3525 80.559 12.2283C80.559 10.7623 81.8457 9.73605 83.9149 9.73605C86.212 9.73605 87.4175 10.6969 87.4175 12.1797H84.9579C84.9579 11.626 84.5508 11.3168 83.8823 11.3168C83.3453 11.3168 82.9859 11.5765 82.9859 11.9677C82.9859 12.3263 83.2305 12.5542 83.6544 12.6681L85.5116 13.1732C86.718 13.4999 87.4996 14.2321 87.4996 15.3563C87.4996 16.9698 86.212 18.0614 84.0615 18.0614ZM93.1684 15.8783C93.4784 15.8783 93.8043 15.8615 94.0321 15.8288V17.8167C93.6736 17.8821 93.0872 17.9466 92.3701 17.9466C91.1973 17.9466 89.5847 17.6869 89.5847 15.0631V11.9351H88.3465V9.96391H89.5847V7.63503H92.0769V9.96391H93.8529V11.9351H92.0769V14.5421C92.0769 15.6981 92.5494 15.8783 93.1684 15.8783ZM98.5936 18.0287C96.2479 18.0287 94.8958 16.2527 94.8958 13.8903C94.8958 11.5447 96.3451 9.75196 98.6262 9.75196C99.7672 9.75196 100.663 10.2898 101.087 11.0881V9.96391H103.563V17.8167H101.087V16.7084C100.663 17.4909 99.6851 18.0287 98.5936 18.0287ZM99.3106 15.9595C100.549 15.9595 101.185 15.0305 101.185 13.8903C101.185 12.7661 100.549 11.8379 99.3106 11.8379C98.1546 11.8379 97.4375 12.7008 97.4375 13.8903C97.4375 15.0799 98.1537 15.9595 99.3106 15.9595ZM105.632 9.96391H108.124V11.1041C108.467 10.3225 109.281 9.75196 110.373 9.75196C111.773 9.75196 112.491 10.3719 112.833 11.2021C113.256 10.3551 114.185 9.7528 115.341 9.7528C117.59 9.7528 118.128 11.3001 118.128 12.9454V17.8167H115.619V13.4019C115.619 12.3104 115.212 11.8538 114.446 11.8538C113.663 11.8538 113.126 12.2936 113.126 13.7764V17.8167H110.617V13.3852C110.617 12.2936 110.226 11.8538 109.461 11.8538C108.662 11.8538 108.124 12.2936 108.124 13.7764V17.8167H105.632V9.96391ZM120.1 9.96391H122.592V11.0881C122.999 10.3384 123.977 9.75196 125.149 9.75196C127.3 9.75196 128.766 11.414 128.766 13.8903C128.766 16.3507 127.251 18.0287 125.084 18.0287C123.928 18.0287 122.982 17.4423 122.592 16.7084V21.0747H120.099V9.96391H120.1ZM124.367 15.9595C125.459 15.9595 126.224 15.1126 126.224 13.8903C126.224 12.684 125.459 11.8379 124.367 11.8379C123.243 11.8379 122.477 12.6681 122.477 13.8903C122.477 15.1285 123.26 15.9595 124.367 15.9595ZM129.423 11.5958C129.228 11.6003 129.036 11.5513 128.867 11.4542C128.712 11.3631 128.586 11.2301 128.503 11.0705C128.417 10.9031 128.373 10.7169 128.376 10.5285C128.376 10.3325 128.417 10.1532 128.503 9.99155C128.587 9.82903 128.709 9.7017 128.867 9.60704C129.036 9.50992 129.228 9.46095 129.423 9.46546C129.632 9.46546 129.816 9.51321 129.976 9.60787C130.135 9.7017 130.257 9.82903 130.342 9.99155C130.427 10.1532 130.47 10.3325 130.47 10.5285C130.47 10.7279 130.427 10.908 130.342 11.0705C130.258 11.2305 130.131 11.3635 129.976 11.4542C129.816 11.5489 129.632 11.5966 129.423 11.5966V11.5958ZM129.423 11.4207C129.592 11.4207 129.741 11.3805 129.868 11.3009C129.994 11.2231 130.096 11.1113 130.162 10.9784C130.229 10.8435 130.262 10.6936 130.262 10.5285C130.262 10.3669 130.229 10.2186 130.162 10.0829C130.094 9.94549 129.989 9.83056 129.858 9.75204C129.727 9.67351 129.575 9.63478 129.423 9.64055C129.265 9.63702 129.111 9.67859 128.976 9.76034C128.85 9.83865 128.749 9.95028 128.682 10.0829C128.612 10.221 128.577 10.3738 128.578 10.5285C128.578 10.6936 128.613 10.8435 128.682 10.9784C128.751 11.1141 128.85 11.2213 128.976 11.3009C129.104 11.3805 129.253 11.4207 129.423 11.4207ZM129.044 9.95134H129.482C129.594 9.95134 129.685 9.98904 129.757 10.0653C129.828 10.1407 129.864 10.232 129.864 10.3375C129.865 10.4162 129.843 10.4933 129.799 10.5587C129.754 10.6242 129.689 10.6726 129.614 10.6961L129.857 11.0781H129.661L129.439 10.7162H129.219V11.0781H129.044V9.95134ZM129.47 10.5646C129.537 10.5646 129.589 10.5428 129.63 10.4992C129.67 10.455 129.691 10.3971 129.689 10.3375C129.691 10.2769 129.67 10.2178 129.63 10.1725C129.609 10.1507 129.585 10.1336 129.557 10.1223C129.53 10.111 129.5 10.1058 129.47 10.1072H129.223V10.5646H129.47Z" fill="white"/>
</svg>
